M48
; DRILL file {KiCad 6.0.10-86aedd382b~118~ubuntu18.04.1} date Mon 20 Nov 2023 15:15:38 GMT
; FORMAT={-:-/ absolute / metric / decimal}
; #@! TF.CreationDate,2023-11-20T15:15:38+00:00
; #@! TF.GenerationSoftware,Kicad,Pcbnew,6.0.10-86aedd382b~118~ubuntu18.04.1
; #@! TF.FileFunction,Plated,1,2,PTH
FMAT,2
METRIC
; #@! TA.AperFunction,Plated,PTH,ViaDrill
T1C0.500
; #@! TA.AperFunction,Plated,PTH,ViaDrill
T2C0.700
; #@! TA.AperFunction,Plated,PTH,ComponentDrill
T3C0.700
; #@! TA.AperFunction,Plated,PTH,ComponentDrill
T4C0.800
; #@! TA.AperFunction,Plated,PTH,ComponentDrill
T5C0.900
; #@! TA.AperFunction,Plated,PTH,ComponentDrill
T6C0.950
; #@! TA.AperFunction,Plated,PTH,ComponentDrill
T7C1.000
; #@! TA.AperFunction,Plated,PTH,ComponentDrill
T8C1.100
; #@! TA.AperFunction,Plated,PTH,ComponentDrill
T9C2.500
%
G90
G05
T1
X45.72Y-71.12
X45.72Y-73.66
X45.72Y-119.888
X46.736Y-84.709
X49.784Y-35.052
X51.308Y-43.688
X51.308Y-50.8
X51.816Y-41.656
X52.324Y-39.624
X52.324Y-53.34
X52.832Y-37.592
X53.34Y-55.88
X53.34Y-116.84
X54.356Y-58.42
X55.88Y-60.96
X55.88Y-114.3
X56.388Y-63.5
X56.388Y-83.82
X56.896Y-26.416
X56.896Y-35.56
X57.912Y-66.04
X58.42Y-68.58
X58.928Y-26.416
X58.928Y-35.56
X59.436Y-71.12
X59.436Y-86.868
X60.452Y-121.92
X60.96Y-54.61
X60.96Y-91.948
X61.468Y-27.94
X61.468Y-35.56
X63.5Y-27.94
X63.5Y-38.1
X63.5Y-40.64
X63.5Y-83.82
X63.5Y-86.868
X63.5Y-88.9
X63.5Y-91.948
X65.278Y-84.836
X65.532Y-28.956
X65.532Y-37.084
X65.532Y-125.73
X67.056Y-83.82
X67.056Y-114.3
X67.564Y-28.956
X67.564Y-38.1
X67.564Y-127.889
X68.072Y-65.532
X68.58Y-111.76
X69.088Y-96.52
X69.596Y-99.06
X69.85Y-109.22
X70.612Y-105.156
X71.12Y-81.915
X71.374Y-125.73
X72.39Y-84.455
X73.025Y-80.645
X73.152Y-127.0
X74.295Y-83.185
X77.47Y-62.484
X77.47Y-117.348
X78.74Y-81.915
X80.01Y-64.008
X80.01Y-118.618
X82.55Y-54.356
X82.55Y-116.078
X85.09Y-53.34
X85.09Y-115.062
X88.9Y-93.345
X91.44Y-83.82
X91.44Y-94.615
X91.44Y-128.27
X93.98Y-95.25
X95.25Y-78.105
X96.52Y-95.885
X96.52Y-109.728
X97.79Y-51.054
X99.06Y-90.17
X103.124Y-107.696
X103.632Y-82.296
X104.14Y-44.196
X104.14Y-53.34
X104.14Y-90.932
X106.68Y-44.196
X106.68Y-53.594
X106.68Y-109.22
X107.696Y-30.226
X109.22Y-42.926
X110.49Y-118.11
X114.3Y-42.926
X114.3Y-52.324
X114.3Y-78.74
X116.205Y-117.856
X116.84Y-53.34
X116.84Y-77.216
X119.38Y-75.692
X120.015Y-109.22
X120.015Y-113.284
X123.952Y-29.972
X124.46Y-97.155
X124.46Y-99.695
X127.508Y-38.608
X128.524Y-77.216
X129.286Y-95.504
X129.857Y-106.997
X132.08Y-69.088
X132.08Y-71.12
X132.08Y-86.36
X132.588Y-36.576
X134.62Y-72.644
X137.16Y-72.644
X138.43Y-29.21
X143.51Y-36.83
X147.32Y-44.45
X147.828Y-34.036
X149.86Y-43.18
X151.13Y-35.052
X154.432Y-43.18
X156.464Y-40.64
X158.496Y-45.72
X158.496Y-49.276
X162.56Y-56.896
X165.1Y-71.12
X165.1Y-106.045
X166.624Y-93.472
X167.64Y-53.34
X168.91Y-125.095
X169.672Y-56.896
X171.45Y-122.555
X175.26Y-44.45
X175.768Y-57.404
X175.768Y-59.944
X178.308Y-28.956
X178.435Y-97.79
X180.34Y-43.688
X181.61Y-39.116
X182.88Y-50.292
X183.896Y-37.592
X185.42Y-35.052
X186.69Y-58.42
X189.225Y-43.18
X195.58Y-37.084
X195.58Y-52.324
X196.85Y-35.56
X198.12Y-38.608
T2
X47.752Y-89.916
X61.468Y-39.37
X69.088Y-49.784
X80.01Y-60.452
X84.836Y-33.02
X97.536Y-28.448
X100.076Y-35.56
X101.6Y-28.956
X113.665Y-128.905
X121.92Y-111.125
X124.46Y-62.738
X130.556Y-28.956
X131.064Y-32.004
X140.716Y-50.292
X149.86Y-52.324
X157.48Y-99.06
X160.02Y-111.125
X164.465Y-111.125
X168.275Y-106.045
X169.164Y-84.836
X176.53Y-38.1
X185.42Y-109.22
X185.674Y-29.21
X187.96Y-85.344
X189.865Y-106.68
T3
X71.12Y-29.21
X71.12Y-36.83
X76.2Y-29.21
X76.2Y-36.83
X81.28Y-29.21
X81.28Y-36.83
X88.9Y-29.21
X88.9Y-36.83
X110.457Y-29.258
X110.457Y-36.877
X115.537Y-29.258
X115.537Y-36.877
X120.617Y-29.258
X120.617Y-36.877
X128.237Y-29.258
X128.237Y-36.877
X135.857Y-29.258
X135.857Y-36.877
X140.938Y-29.258
X140.938Y-36.877
X146.017Y-29.258
X146.017Y-36.877
X153.637Y-29.258
X153.637Y-36.877
X182.88Y-95.25
X185.42Y-92.71
X185.42Y-97.79
X196.85Y-109.22
X199.39Y-106.68
X199.39Y-111.76
T4
X45.085Y-130.81
X48.26Y-48.25
X48.26Y-50.79
X48.26Y-53.33
X48.26Y-55.87
X48.26Y-58.41
X48.26Y-60.95
X48.26Y-63.49
X48.26Y-66.03
X48.26Y-68.57
X48.26Y-71.11
X48.26Y-73.65
X48.26Y-76.19
X48.26Y-78.73
X48.26Y-81.27
X48.265Y-93.97
X48.265Y-96.51
X48.265Y-99.05
X48.265Y-101.59
X48.265Y-104.13
X48.265Y-106.67
X48.265Y-109.21
X48.265Y-111.75
X48.265Y-114.29
X48.265Y-116.83
X48.265Y-119.37
X48.265Y-121.91
X48.265Y-124.45
X48.265Y-126.99
X50.085Y-130.81
X52.665Y-130.81
X52.665Y-133.35
X52.665Y-135.89
X57.825Y-139.7
X62.825Y-130.81
X62.825Y-133.35
X62.825Y-135.89
X62.825Y-139.7
X63.5Y-48.25
X63.5Y-50.79
X63.5Y-53.33
X63.5Y-55.87
X63.5Y-58.41
X63.5Y-60.95
X63.5Y-63.49
X63.5Y-66.03
X63.5Y-68.57
X63.5Y-71.11
X63.5Y-73.65
X63.5Y-76.19
X63.5Y-78.73
X63.5Y-81.27
X63.505Y-93.97
X63.505Y-96.51
X63.505Y-99.05
X63.505Y-101.59
X63.505Y-104.13
X63.505Y-106.67
X63.505Y-109.21
X63.505Y-111.75
X63.505Y-114.29
X63.505Y-116.83
X63.505Y-119.37
X63.505Y-121.91
X63.505Y-124.45
X63.505Y-126.99
X72.39Y-55.92
X72.39Y-60.92
X76.195Y-40.655
X76.195Y-48.275
X76.195Y-113.045
X76.195Y-120.665
X76.2Y-58.42
X76.2Y-73.66
X76.2Y-86.36
X76.2Y-101.6
X78.735Y-40.655
X78.735Y-48.275
X78.735Y-113.045
X78.735Y-120.665
X78.74Y-58.42
X78.74Y-73.66
X78.74Y-86.36
X78.74Y-101.6
X81.275Y-40.655
X81.275Y-48.275
X81.275Y-113.045
X81.275Y-120.665
X81.28Y-58.42
X81.28Y-73.66
X81.28Y-86.36
X81.28Y-101.6
X83.815Y-40.655
X83.815Y-48.275
X83.815Y-113.045
X83.815Y-120.665
X83.82Y-58.42
X83.82Y-73.66
X83.82Y-86.36
X83.82Y-101.6
X86.355Y-40.655
X86.355Y-48.275
X86.355Y-113.045
X86.355Y-120.665
X86.36Y-58.42
X86.36Y-73.66
X86.36Y-86.36
X86.36Y-101.6
X88.895Y-40.655
X88.895Y-48.275
X88.895Y-113.045
X88.895Y-120.665
X88.9Y-58.42
X88.9Y-73.66
X88.9Y-86.36
X88.9Y-101.6
X91.435Y-40.655
X91.435Y-48.275
X91.435Y-113.045
X91.435Y-120.665
X91.44Y-58.42
X91.44Y-73.66
X91.44Y-86.36
X91.44Y-101.6
X93.39Y-30.48
X93.89Y-35.56
X93.98Y-58.42
X93.98Y-73.66
X93.98Y-86.36
X93.98Y-101.6
X96.52Y-58.42
X96.52Y-73.66
X96.52Y-86.36
X96.52Y-101.6
X96.52Y-113.045
X96.52Y-120.665
X99.06Y-40.64
X99.06Y-48.26
X99.06Y-58.42
X99.06Y-73.66
X99.06Y-86.36
X99.06Y-101.6
X99.06Y-113.045
X99.06Y-120.665
X101.6Y-40.64
X101.6Y-48.26
X101.6Y-58.42
X101.6Y-73.66
X101.6Y-86.36
X101.6Y-101.6
X101.6Y-113.045
X101.6Y-120.665
X104.14Y-40.64
X104.14Y-48.26
X104.14Y-58.42
X104.14Y-73.66
X104.14Y-86.36
X104.14Y-101.6
X104.14Y-113.045
X104.14Y-120.665
X104.82Y-30.48
X105.32Y-35.56
X106.68Y-40.64
X106.68Y-48.26
X106.68Y-58.42
X106.68Y-73.66
X106.68Y-86.36
X106.68Y-101.6
X106.68Y-113.045
X106.68Y-120.665
X109.22Y-40.64
X109.22Y-48.26
X109.22Y-58.42
X109.22Y-73.66
X109.22Y-86.36
X109.22Y-101.6
X109.22Y-113.045
X109.22Y-120.665
X111.76Y-40.64
X111.76Y-48.26
X111.76Y-58.42
X111.76Y-73.66
X111.76Y-86.36
X111.76Y-101.6
X111.76Y-113.045
X111.76Y-120.665
X114.3Y-40.64
X114.3Y-48.26
X114.3Y-58.42
X114.3Y-73.66
X114.3Y-86.36
X114.3Y-101.6
X114.3Y-113.045
X114.3Y-120.665
X116.84Y-40.64
X116.84Y-48.26
X116.84Y-58.42
X116.84Y-73.66
X116.84Y-86.36
X116.84Y-101.6
X119.38Y-40.64
X119.38Y-48.26
X119.38Y-58.42
X119.38Y-73.66
X119.38Y-86.36
X119.38Y-101.6
X121.92Y-40.64
X121.92Y-48.26
X121.92Y-58.42
X121.92Y-73.66
X121.92Y-86.36
X121.92Y-101.6
X123.952Y-114.935
X123.952Y-127.635
X124.46Y-58.42
X124.46Y-73.66
X124.46Y-86.36
X124.46Y-101.6
X128.905Y-118.745
X128.905Y-128.905
X129.545Y-40.655
X129.545Y-48.275
X132.08Y-58.42
X132.08Y-66.04
X132.08Y-76.2
X132.08Y-83.82
X132.08Y-93.98
X132.08Y-101.6
X132.085Y-40.655
X132.085Y-48.275
X133.35Y-118.745
X133.35Y-128.905
X134.54Y-109.935
X134.54Y-114.935
X134.54Y-132.715
X134.54Y-137.715
X134.62Y-58.42
X134.62Y-66.04
X134.62Y-76.2
X134.62Y-83.82
X134.62Y-93.98
X134.62Y-101.6
X134.62Y-105.41
X134.625Y-40.655
X134.625Y-48.275
X137.16Y-58.42
X137.16Y-66.04
X137.16Y-76.2
X137.16Y-83.82
X137.16Y-93.98
X137.16Y-101.6
X137.165Y-40.655
X137.165Y-48.275
X137.795Y-121.325
X137.795Y-126.325
X139.7Y-58.42
X139.7Y-66.04
X139.7Y-76.2
X139.7Y-83.82
X139.7Y-93.98
X139.7Y-101.6
X139.705Y-40.655
X139.705Y-48.275
X140.89Y-116.84
X140.89Y-120.025
X140.89Y-127.645
X140.89Y-132.715
X140.89Y-135.89
X142.24Y-58.42
X142.24Y-66.04
X142.24Y-76.2
X142.24Y-83.82
X142.24Y-93.98
X142.24Y-101.6
X142.245Y-40.655
X142.245Y-48.275
X143.43Y-120.025
X143.43Y-127.645
X144.78Y-58.42
X144.78Y-66.04
X144.78Y-76.2
X144.78Y-83.82
X144.78Y-93.98
X144.78Y-101.6
X144.78Y-105.41
X144.785Y-40.655
X144.785Y-48.275
X145.89Y-116.84
X145.97Y-120.025
X145.97Y-127.645
X146.05Y-54.864
X147.32Y-58.42
X147.32Y-66.04
X147.32Y-76.2
X147.32Y-83.82
X147.32Y-93.98
X147.32Y-101.6
X147.32Y-105.41
X147.325Y-40.655
X147.325Y-48.275
X148.51Y-120.025
X148.51Y-127.645
X149.86Y-58.42
X149.86Y-66.04
X149.86Y-76.2
X149.86Y-83.82
X149.86Y-93.98
X149.86Y-101.6
X149.865Y-40.655
X149.865Y-48.275
X151.05Y-132.715
X151.05Y-135.89
X152.32Y-105.41
X152.4Y-58.42
X152.4Y-66.04
X152.4Y-76.2
X152.4Y-83.82
X152.4Y-93.98
X152.4Y-101.6
X152.405Y-40.655
X152.405Y-48.275
X154.94Y-58.42
X154.94Y-66.04
X154.94Y-76.2
X154.94Y-83.82
X154.94Y-93.98
X154.94Y-101.6
X158.75Y-33.02
X158.75Y-35.56
X158.75Y-54.864
X158.81Y-30.48
X161.285Y-40.655
X161.285Y-48.275
X163.825Y-40.655
X163.825Y-48.275
X166.365Y-40.655
X166.365Y-48.275
X168.905Y-40.655
X168.905Y-48.275
X170.18Y-33.02
X170.18Y-35.56
X170.22Y-140.335
X170.24Y-30.48
X171.445Y-40.655
X171.445Y-48.275
X172.085Y-125.73
X172.125Y-116.84
X172.125Y-119.38
X173.985Y-40.655
X173.985Y-48.275
X173.99Y-33.02
X175.22Y-140.335
X176.525Y-40.655
X176.525Y-48.275
X176.53Y-30.48
X176.53Y-35.56
X177.085Y-125.73
X177.125Y-116.84
X177.125Y-119.38
X180.975Y-118.745
X180.975Y-128.905
X181.61Y-30.48
X181.61Y-35.56
X181.61Y-77.47
X181.61Y-88.9
X182.245Y-105.41
X184.145Y-40.655
X184.145Y-48.275
X184.145Y-55.895
X184.145Y-63.515
X184.15Y-33.02
X184.15Y-118.745
X184.15Y-128.905
X185.42Y-68.57
X185.42Y-71.11
X185.42Y-73.65
X185.42Y-80.725
X185.42Y-85.725
X186.685Y-40.655
X186.685Y-48.275
X186.685Y-55.895
X186.685Y-63.515
X187.96Y-30.48
X187.96Y-33.02
X187.96Y-35.56
X188.675Y-111.76
X189.225Y-40.655
X189.225Y-48.275
X189.225Y-55.895
X189.225Y-63.515
X189.865Y-77.47
X189.865Y-88.9
X191.135Y-114.34
X191.135Y-119.34
X191.135Y-123.23
X191.135Y-125.73
X191.765Y-40.655
X191.765Y-48.275
X191.765Y-55.895
X191.765Y-63.515
X191.77Y-68.57
X191.77Y-71.11
X191.77Y-73.65
X192.405Y-77.47
X192.405Y-88.9
X192.405Y-91.44
X192.405Y-102.87
X192.405Y-105.41
X193.675Y-111.76
X193.675Y-129.58
X193.675Y-134.58
X194.305Y-40.655
X194.305Y-48.275
X194.305Y-55.895
X194.305Y-63.515
X194.945Y-77.47
X194.945Y-88.9
X194.945Y-91.44
X194.945Y-102.87
X196.845Y-40.655
X196.845Y-48.275
X196.845Y-55.895
X196.845Y-63.515
X197.485Y-77.47
X197.485Y-88.9
X197.485Y-91.44
X197.485Y-102.87
X198.12Y-68.57
X198.12Y-71.11
X198.12Y-73.65
X199.385Y-40.655
X199.385Y-48.275
X199.385Y-55.895
X199.385Y-63.515
X199.39Y-30.48
X199.39Y-33.02
X199.39Y-35.56
X200.025Y-77.47
X200.025Y-88.9
X200.025Y-91.44
X200.025Y-102.87
T5
X166.37Y-116.84
X166.37Y-130.81
X168.91Y-116.84
X168.91Y-130.81
T6
X160.02Y-66.04
X160.02Y-68.58
X160.02Y-71.12
X160.02Y-73.66
X160.02Y-76.2
X160.02Y-78.74
X160.02Y-81.28
X160.02Y-83.82
X160.02Y-86.36
X160.02Y-88.9
X160.02Y-91.44
X160.02Y-93.98
X160.02Y-96.52
X160.02Y-99.06
X175.26Y-66.04
X175.26Y-68.58
X175.26Y-71.12
X175.26Y-73.66
X175.26Y-76.2
X175.26Y-78.74
X175.26Y-81.28
X175.26Y-83.82
X175.26Y-86.36
X175.26Y-88.9
X175.26Y-91.44
X175.26Y-93.98
X175.26Y-96.52
X175.26Y-99.06
T7
X69.85Y-133.35
X69.85Y-135.89
X72.39Y-133.35
X72.39Y-135.89
X74.93Y-133.35
X74.93Y-135.89
X77.47Y-133.35
X77.47Y-135.89
X80.01Y-133.35
X80.01Y-135.89
X82.55Y-133.35
X82.55Y-135.89
X85.09Y-133.35
X85.09Y-135.89
X87.63Y-133.35
X87.63Y-135.89
X90.17Y-133.35
X90.17Y-135.89
X92.71Y-133.35
X92.71Y-135.89
X95.25Y-133.35
X95.25Y-135.89
X97.79Y-133.35
X97.79Y-135.89
X100.33Y-133.35
X100.33Y-135.89
X102.87Y-133.35
X102.87Y-135.89
X105.41Y-133.35
X105.41Y-135.89
X107.95Y-133.35
X107.95Y-135.89
X110.49Y-133.35
X110.49Y-135.89
X156.635Y-122.555
X156.985Y-126.055
X159.385Y-117.555
X159.385Y-127.555
X161.785Y-119.055
X162.135Y-122.555
T8
X140.89Y-113.665
X151.05Y-113.665
X170.18Y-111.323
X170.18Y-133.675
X172.72Y-111.323
X172.72Y-133.675
X175.26Y-111.323
X175.26Y-133.675
X199.39Y-124.46
X199.39Y-127.0
X199.39Y-129.54
T9
X160.02Y-137.795
X185.42Y-137.795
T7
X120.62Y-131.08G85X123.22Y-131.08
G05
X123.22Y-137.28G85X120.62Y-137.28
G05
X126.92Y-135.48G85X126.92Y-132.88
G05
T0
M30
