G04 #@! TF.GenerationSoftware,KiCad,Pcbnew,6.0.10-86aedd382b~118~ubuntu18.04.1*
G04 #@! TF.CreationDate,2023-11-20T15:15:35+00:00*
G04 #@! TF.ProjectId,micron_plus,6d696372-6f6e-45f7-906c-75732e6b6963,rev?*
G04 #@! TF.SameCoordinates,Original*
G04 #@! TF.FileFunction,Copper,L1,Top*
G04 #@! TF.FilePolarity,Positive*
%FSLAX46Y46*%
G04 Gerber Fmt 4.6, Leading zero omitted, Abs format (unit mm)*
G04 Created by KiCad (PCBNEW 6.0.10-86aedd382b~118~ubuntu18.04.1) date 2023-11-20 15:15:35*
%MOMM*%
%LPD*%
G01*
G04 APERTURE LIST*
G04 Aperture macros list*
%AMRoundRect*
0 Rectangle with rounded corners*
0 $1 Rounding radius*
0 $2 $3 $4 $5 $6 $7 $8 $9 X,Y pos of 4 corners*
0 Add a 4 corners polygon primitive as box body*
4,1,4,$2,$3,$4,$5,$6,$7,$8,$9,$2,$3,0*
0 Add four circle primitives for the rounded corners*
1,1,$1+$1,$2,$3*
1,1,$1+$1,$4,$5*
1,1,$1+$1,$6,$7*
1,1,$1+$1,$8,$9*
0 Add four rect primitives between the rounded corners*
20,1,$1+$1,$2,$3,$4,$5,0*
20,1,$1+$1,$4,$5,$6,$7,0*
20,1,$1+$1,$6,$7,$8,$9,0*
20,1,$1+$1,$8,$9,$2,$3,0*%
G04 Aperture macros list end*
G04 #@! TA.AperFunction,ComponentPad*
%ADD10R,1.400000X1.400000*%
G04 #@! TD*
G04 #@! TA.AperFunction,ComponentPad*
%ADD11C,1.400000*%
G04 #@! TD*
G04 #@! TA.AperFunction,ComponentPad*
%ADD12C,1.440000*%
G04 #@! TD*
G04 #@! TA.AperFunction,ComponentPad*
%ADD13R,1.600000X1.600000*%
G04 #@! TD*
G04 #@! TA.AperFunction,ComponentPad*
%ADD14C,1.600000*%
G04 #@! TD*
G04 #@! TA.AperFunction,ComponentPad*
%ADD15O,1.600000X1.600000*%
G04 #@! TD*
G04 #@! TA.AperFunction,ComponentPad*
%ADD16R,2.200000X2.200000*%
G04 #@! TD*
G04 #@! TA.AperFunction,ComponentPad*
%ADD17O,2.200000X2.200000*%
G04 #@! TD*
G04 #@! TA.AperFunction,ComponentPad*
%ADD18RoundRect,0.850000X-1.300000X0.000000X1.300000X0.000000X1.300000X0.000000X-1.300000X0.000000X0*%
G04 #@! TD*
G04 #@! TA.AperFunction,ComponentPad*
%ADD19RoundRect,0.850000X0.000000X-1.300000X0.000000X1.300000X0.000000X1.300000X0.000000X-1.300000X0*%
G04 #@! TD*
G04 #@! TA.AperFunction,ComponentPad*
%ADD20RoundRect,0.850000X1.300000X0.000000X-1.300000X0.000000X-1.300000X0.000000X1.300000X0.000000X0*%
G04 #@! TD*
G04 #@! TA.AperFunction,ComponentPad*
%ADD21O,1.200000X1.600000*%
G04 #@! TD*
G04 #@! TA.AperFunction,ComponentPad*
%ADD22O,1.200000X1.200000*%
G04 #@! TD*
G04 #@! TA.AperFunction,ComponentPad*
%ADD23R,1.905000X2.000000*%
G04 #@! TD*
G04 #@! TA.AperFunction,ComponentPad*
%ADD24O,1.905000X2.000000*%
G04 #@! TD*
G04 #@! TA.AperFunction,ComponentPad*
%ADD25R,1.500000X1.500000*%
G04 #@! TD*
G04 #@! TA.AperFunction,ComponentPad*
%ADD26C,1.500000*%
G04 #@! TD*
G04 #@! TA.AperFunction,ComponentPad*
%ADD27RoundRect,0.250000X0.600000X-0.600000X0.600000X0.600000X-0.600000X0.600000X-0.600000X-0.600000X0*%
G04 #@! TD*
G04 #@! TA.AperFunction,ComponentPad*
%ADD28C,1.700000*%
G04 #@! TD*
G04 #@! TA.AperFunction,ComponentPad*
%ADD29R,2.000000X1.905000*%
G04 #@! TD*
G04 #@! TA.AperFunction,ComponentPad*
%ADD30O,2.000000X1.905000*%
G04 #@! TD*
G04 #@! TA.AperFunction,ComponentPad*
%ADD31C,6.000000*%
G04 #@! TD*
G04 #@! TA.AperFunction,ComponentPad*
%ADD32C,2.400000*%
G04 #@! TD*
G04 #@! TA.AperFunction,ComponentPad*
%ADD33R,1.800000X1.800000*%
G04 #@! TD*
G04 #@! TA.AperFunction,ComponentPad*
%ADD34C,1.800000*%
G04 #@! TD*
G04 #@! TA.AperFunction,ComponentPad*
%ADD35R,2.400000X1.600000*%
G04 #@! TD*
G04 #@! TA.AperFunction,ComponentPad*
%ADD36O,2.400000X1.600000*%
G04 #@! TD*
G04 #@! TA.AperFunction,ViaPad*
%ADD37C,1.524000*%
G04 #@! TD*
G04 #@! TA.AperFunction,Conductor*
%ADD38C,1.016000*%
G04 #@! TD*
G04 #@! TA.AperFunction,Conductor*
%ADD39C,0.508000*%
G04 #@! TD*
G04 #@! TA.AperFunction,Conductor*
%ADD40C,0.381000*%
G04 #@! TD*
G04 APERTURE END LIST*
D10*
X128237500Y-29257500D03*
D11*
X120617500Y-29257500D03*
X115537500Y-29257500D03*
X110457500Y-29257500D03*
X110457500Y-36877500D03*
X115537500Y-36877500D03*
X120617500Y-36877500D03*
X128237500Y-36877500D03*
D12*
X198120000Y-68570000D03*
X198120000Y-71110000D03*
X198120000Y-73650000D03*
D13*
X185420000Y-85725000D03*
D14*
X185420000Y-80725000D03*
D13*
X148510000Y-120025000D03*
D15*
X145970000Y-120025000D03*
X143430000Y-120025000D03*
X140890000Y-120025000D03*
X140890000Y-127645000D03*
X143430000Y-127645000D03*
X145970000Y-127645000D03*
X148510000Y-127645000D03*
D14*
X194945000Y-91440000D03*
D15*
X194945000Y-102870000D03*
D10*
X153637500Y-29257500D03*
D11*
X146017500Y-29257500D03*
X140937500Y-29257500D03*
X135857500Y-29257500D03*
X135857500Y-36877500D03*
X140937500Y-36877500D03*
X146017500Y-36877500D03*
X153637500Y-36877500D03*
D14*
X192405000Y-91440000D03*
D15*
X192405000Y-102870000D03*
D13*
X63500000Y-81270000D03*
D15*
X63500000Y-78730000D03*
X63500000Y-76190000D03*
X63500000Y-73650000D03*
X63500000Y-71110000D03*
X63500000Y-68570000D03*
X63500000Y-66030000D03*
X63500000Y-63490000D03*
X63500000Y-60950000D03*
X63500000Y-58410000D03*
X63500000Y-55870000D03*
X63500000Y-53330000D03*
X63500000Y-50790000D03*
X63500000Y-48250000D03*
X48260000Y-48250000D03*
X48260000Y-50790000D03*
X48260000Y-53330000D03*
X48260000Y-55870000D03*
X48260000Y-58410000D03*
X48260000Y-60950000D03*
X48260000Y-63490000D03*
X48260000Y-66030000D03*
X48260000Y-68570000D03*
X48260000Y-71110000D03*
X48260000Y-73650000D03*
X48260000Y-76190000D03*
X48260000Y-78730000D03*
X48260000Y-81270000D03*
D14*
X158750000Y-54864000D03*
D15*
X146050000Y-54864000D03*
D14*
X52665000Y-135890000D03*
D15*
X62825000Y-135890000D03*
D14*
X181610000Y-77470000D03*
D15*
X181610000Y-88900000D03*
D14*
X50085000Y-130810000D03*
X45085000Y-130810000D03*
X172125000Y-116840000D03*
X177125000Y-116840000D03*
X172125000Y-119380000D03*
X177125000Y-119380000D03*
D16*
X140890000Y-113665000D03*
D17*
X151050000Y-113665000D03*
D18*
X121920000Y-131080000D03*
D19*
X126920000Y-134180000D03*
D20*
X121920000Y-137280000D03*
D21*
X185420000Y-92710000D03*
D22*
X182880000Y-95250000D03*
X185420000Y-97790000D03*
D23*
X175260000Y-111323000D03*
D24*
X172720000Y-111323000D03*
X170180000Y-111323000D03*
D13*
X184145000Y-63515000D03*
D15*
X186685000Y-63515000D03*
X189225000Y-63515000D03*
X191765000Y-63515000D03*
X194305000Y-63515000D03*
X196845000Y-63515000D03*
X199385000Y-63515000D03*
X199385000Y-55895000D03*
X196845000Y-55895000D03*
X194305000Y-55895000D03*
X191765000Y-55895000D03*
X189225000Y-55895000D03*
X186685000Y-55895000D03*
X184145000Y-55895000D03*
D14*
X62825000Y-139700000D03*
X57825000Y-139700000D03*
D25*
X181610000Y-35560000D03*
D26*
X184150000Y-33020000D03*
X181610000Y-30480000D03*
D27*
X69850000Y-135890000D03*
D28*
X69850000Y-133350000D03*
X72390000Y-135890000D03*
X72390000Y-133350000D03*
X74930000Y-135890000D03*
X74930000Y-133350000D03*
X77470000Y-135890000D03*
X77470000Y-133350000D03*
X80010000Y-135890000D03*
X80010000Y-133350000D03*
X82550000Y-135890000D03*
X82550000Y-133350000D03*
X85090000Y-135890000D03*
X85090000Y-133350000D03*
X87630000Y-135890000D03*
X87630000Y-133350000D03*
X90170000Y-135890000D03*
X90170000Y-133350000D03*
X92710000Y-135890000D03*
X92710000Y-133350000D03*
X95250000Y-135890000D03*
X95250000Y-133350000D03*
X97790000Y-135890000D03*
X97790000Y-133350000D03*
X100330000Y-135890000D03*
X100330000Y-133350000D03*
X102870000Y-135890000D03*
X102870000Y-133350000D03*
X105410000Y-135890000D03*
X105410000Y-133350000D03*
X107950000Y-135890000D03*
X107950000Y-133350000D03*
X110490000Y-135890000D03*
X110490000Y-133350000D03*
D14*
X52665000Y-133350000D03*
D15*
X62825000Y-133350000D03*
D14*
X187960000Y-35560000D03*
D15*
X199390000Y-35560000D03*
D13*
X172085000Y-125730000D03*
D14*
X177085000Y-125730000D03*
D12*
X185420000Y-68570000D03*
X185420000Y-71110000D03*
X185420000Y-73650000D03*
D14*
X193675000Y-129580000D03*
X193675000Y-134580000D03*
X192405000Y-77470000D03*
D15*
X192405000Y-88900000D03*
D13*
X99060000Y-48260000D03*
D15*
X101600000Y-48260000D03*
X104140000Y-48260000D03*
X106680000Y-48260000D03*
X109220000Y-48260000D03*
X111760000Y-48260000D03*
X114300000Y-48260000D03*
X116840000Y-48260000D03*
X119380000Y-48260000D03*
X121920000Y-48260000D03*
X121920000Y-40640000D03*
X119380000Y-40640000D03*
X116840000Y-40640000D03*
X114300000Y-40640000D03*
X111760000Y-40640000D03*
X109220000Y-40640000D03*
X106680000Y-40640000D03*
X104140000Y-40640000D03*
X101600000Y-40640000D03*
X99060000Y-40640000D03*
D14*
X151050000Y-135890000D03*
D15*
X140890000Y-135890000D03*
D14*
X133350000Y-118745000D03*
D15*
X133350000Y-128905000D03*
D13*
X76200000Y-101600000D03*
D15*
X78740000Y-101600000D03*
X81280000Y-101600000D03*
X83820000Y-101600000D03*
X86360000Y-101600000D03*
X88900000Y-101600000D03*
X91440000Y-101600000D03*
X93980000Y-101600000D03*
X96520000Y-101600000D03*
X99060000Y-101600000D03*
X101600000Y-101600000D03*
X104140000Y-101600000D03*
X106680000Y-101600000D03*
X109220000Y-101600000D03*
X111760000Y-101600000D03*
X114300000Y-101600000D03*
X116840000Y-101600000D03*
X119380000Y-101600000D03*
X121920000Y-101600000D03*
X124460000Y-101600000D03*
X124460000Y-86360000D03*
X121920000Y-86360000D03*
X119380000Y-86360000D03*
X116840000Y-86360000D03*
X114300000Y-86360000D03*
X111760000Y-86360000D03*
X109220000Y-86360000D03*
X106680000Y-86360000D03*
X104140000Y-86360000D03*
X101600000Y-86360000D03*
X99060000Y-86360000D03*
X96520000Y-86360000D03*
X93980000Y-86360000D03*
X91440000Y-86360000D03*
X88900000Y-86360000D03*
X86360000Y-86360000D03*
X83820000Y-86360000D03*
X81280000Y-86360000D03*
X78740000Y-86360000D03*
X76200000Y-86360000D03*
D13*
X76195000Y-48275000D03*
D15*
X78735000Y-48275000D03*
X81275000Y-48275000D03*
X83815000Y-48275000D03*
X86355000Y-48275000D03*
X88895000Y-48275000D03*
X91435000Y-48275000D03*
X91435000Y-40655000D03*
X88895000Y-40655000D03*
X86355000Y-40655000D03*
X83815000Y-40655000D03*
X81275000Y-40655000D03*
X78735000Y-40655000D03*
X76195000Y-40655000D03*
D14*
X193675000Y-111760000D03*
X188675000Y-111760000D03*
D25*
X176530000Y-30480000D03*
D26*
X173990000Y-33020000D03*
X176530000Y-35560000D03*
D14*
X189865000Y-88900000D03*
D15*
X189865000Y-77470000D03*
D14*
X144780000Y-105410000D03*
D15*
X134620000Y-105410000D03*
D13*
X132080000Y-101600000D03*
D15*
X134620000Y-101600000D03*
X137160000Y-101600000D03*
X139700000Y-101600000D03*
X142240000Y-101600000D03*
X144780000Y-101600000D03*
X147320000Y-101600000D03*
X149860000Y-101600000D03*
X152400000Y-101600000D03*
X154940000Y-101600000D03*
X154940000Y-93980000D03*
X152400000Y-93980000D03*
X149860000Y-93980000D03*
X147320000Y-93980000D03*
X144780000Y-93980000D03*
X142240000Y-93980000D03*
X139700000Y-93980000D03*
X137160000Y-93980000D03*
X134620000Y-93980000D03*
X132080000Y-93980000D03*
D13*
X191135000Y-125730000D03*
D14*
X191135000Y-123230000D03*
D13*
X63505000Y-126990000D03*
D15*
X63505000Y-124450000D03*
X63505000Y-121910000D03*
X63505000Y-119370000D03*
X63505000Y-116830000D03*
X63505000Y-114290000D03*
X63505000Y-111750000D03*
X63505000Y-109210000D03*
X63505000Y-106670000D03*
X63505000Y-104130000D03*
X63505000Y-101590000D03*
X63505000Y-99050000D03*
X63505000Y-96510000D03*
X63505000Y-93970000D03*
X48265000Y-93970000D03*
X48265000Y-96510000D03*
X48265000Y-99050000D03*
X48265000Y-101590000D03*
X48265000Y-104130000D03*
X48265000Y-106670000D03*
X48265000Y-109210000D03*
X48265000Y-111750000D03*
X48265000Y-114290000D03*
X48265000Y-116830000D03*
X48265000Y-119370000D03*
X48265000Y-121910000D03*
X48265000Y-124450000D03*
X48265000Y-126990000D03*
D10*
X88900000Y-29210000D03*
D11*
X81280000Y-29210000D03*
X76200000Y-29210000D03*
X71120000Y-29210000D03*
X71120000Y-36830000D03*
X76200000Y-36830000D03*
X81280000Y-36830000D03*
X88900000Y-36830000D03*
D21*
X199390000Y-106680000D03*
D22*
X196850000Y-109220000D03*
X199390000Y-111760000D03*
D13*
X96520000Y-120665000D03*
D15*
X99060000Y-120665000D03*
X101600000Y-120665000D03*
X104140000Y-120665000D03*
X106680000Y-120665000D03*
X109220000Y-120665000D03*
X111760000Y-120665000D03*
X114300000Y-120665000D03*
X114300000Y-113045000D03*
X111760000Y-113045000D03*
X109220000Y-113045000D03*
X106680000Y-113045000D03*
X104140000Y-113045000D03*
X101600000Y-113045000D03*
X99060000Y-113045000D03*
X96520000Y-113045000D03*
D14*
X187960000Y-30480000D03*
D15*
X199390000Y-30480000D03*
D14*
X200025000Y-77470000D03*
D15*
X200025000Y-88900000D03*
D13*
X132080000Y-66040000D03*
D15*
X134620000Y-66040000D03*
X137160000Y-66040000D03*
X139700000Y-66040000D03*
X142240000Y-66040000D03*
X144780000Y-66040000D03*
X147320000Y-66040000D03*
X149860000Y-66040000D03*
X152400000Y-66040000D03*
X154940000Y-66040000D03*
X154940000Y-58420000D03*
X152400000Y-58420000D03*
X149860000Y-58420000D03*
X147320000Y-58420000D03*
X144780000Y-58420000D03*
X142240000Y-58420000D03*
X139700000Y-58420000D03*
X137160000Y-58420000D03*
X134620000Y-58420000D03*
X132080000Y-58420000D03*
D13*
X197485000Y-88900000D03*
D15*
X197485000Y-77470000D03*
D14*
X123952000Y-127635000D03*
D15*
X123952000Y-114935000D03*
D14*
X140890000Y-132715000D03*
D15*
X151050000Y-132715000D03*
D13*
X129545000Y-48275000D03*
D15*
X132085000Y-48275000D03*
X134625000Y-48275000D03*
X137165000Y-48275000D03*
X139705000Y-48275000D03*
X142245000Y-48275000D03*
X144785000Y-48275000D03*
X147325000Y-48275000D03*
X149865000Y-48275000D03*
X152405000Y-48275000D03*
X152405000Y-40655000D03*
X149865000Y-40655000D03*
X147325000Y-40655000D03*
X144785000Y-40655000D03*
X142245000Y-40655000D03*
X139705000Y-40655000D03*
X137165000Y-40655000D03*
X134625000Y-40655000D03*
X132085000Y-40655000D03*
X129545000Y-40655000D03*
D13*
X132080000Y-83820000D03*
D15*
X134620000Y-83820000D03*
X137160000Y-83820000D03*
X139700000Y-83820000D03*
X142240000Y-83820000D03*
X144780000Y-83820000D03*
X147320000Y-83820000D03*
X149860000Y-83820000D03*
X152400000Y-83820000D03*
X154940000Y-83820000D03*
X154940000Y-76200000D03*
X152400000Y-76200000D03*
X149860000Y-76200000D03*
X147320000Y-76200000D03*
X144780000Y-76200000D03*
X142240000Y-76200000D03*
X139700000Y-76200000D03*
X137160000Y-76200000D03*
X134620000Y-76200000D03*
X132080000Y-76200000D03*
D14*
X145890000Y-116840000D03*
X140890000Y-116840000D03*
D13*
X187960000Y-33020000D03*
D15*
X199390000Y-33020000D03*
D13*
X76200000Y-73660000D03*
D15*
X78740000Y-73660000D03*
X81280000Y-73660000D03*
X83820000Y-73660000D03*
X86360000Y-73660000D03*
X88900000Y-73660000D03*
X91440000Y-73660000D03*
X93980000Y-73660000D03*
X96520000Y-73660000D03*
X99060000Y-73660000D03*
X101600000Y-73660000D03*
X104140000Y-73660000D03*
X106680000Y-73660000D03*
X109220000Y-73660000D03*
X111760000Y-73660000D03*
X114300000Y-73660000D03*
X116840000Y-73660000D03*
X119380000Y-73660000D03*
X121920000Y-73660000D03*
X124460000Y-73660000D03*
X124460000Y-58420000D03*
X121920000Y-58420000D03*
X119380000Y-58420000D03*
X116840000Y-58420000D03*
X114300000Y-58420000D03*
X111760000Y-58420000D03*
X109220000Y-58420000D03*
X106680000Y-58420000D03*
X104140000Y-58420000D03*
X101600000Y-58420000D03*
X99060000Y-58420000D03*
X96520000Y-58420000D03*
X93980000Y-58420000D03*
X91440000Y-58420000D03*
X88900000Y-58420000D03*
X86360000Y-58420000D03*
X83820000Y-58420000D03*
X81280000Y-58420000D03*
X78740000Y-58420000D03*
X76200000Y-58420000D03*
D13*
X200025000Y-102870000D03*
D15*
X200025000Y-91440000D03*
D14*
X175220000Y-140335000D03*
X170220000Y-140335000D03*
X194945000Y-77470000D03*
D15*
X194945000Y-88900000D03*
D14*
X52665000Y-130810000D03*
D15*
X62825000Y-130810000D03*
D14*
X180975000Y-128905000D03*
D15*
X180975000Y-118745000D03*
D14*
X147320000Y-105410000D03*
X152320000Y-105410000D03*
X72390000Y-55920000D03*
X72390000Y-60920000D03*
X184150000Y-128905000D03*
D15*
X184150000Y-118745000D03*
D14*
X158810000Y-30480000D03*
D15*
X170240000Y-30480000D03*
D13*
X197485000Y-102870000D03*
D15*
X197485000Y-91440000D03*
D13*
X105320000Y-35560000D03*
D15*
X93890000Y-35560000D03*
D14*
X128905000Y-128905000D03*
D15*
X128905000Y-118745000D03*
D13*
X170180000Y-35560000D03*
D15*
X158750000Y-35560000D03*
D29*
X199390000Y-124460000D03*
D30*
X199390000Y-127000000D03*
X199390000Y-129540000D03*
D13*
X184145000Y-48275000D03*
D15*
X186685000Y-48275000D03*
X189225000Y-48275000D03*
X191765000Y-48275000D03*
X194305000Y-48275000D03*
X196845000Y-48275000D03*
X199385000Y-48275000D03*
X199385000Y-40655000D03*
X196845000Y-40655000D03*
X194305000Y-40655000D03*
X191765000Y-40655000D03*
X189225000Y-40655000D03*
X186685000Y-40655000D03*
X184145000Y-40655000D03*
D13*
X76195000Y-120665000D03*
D15*
X78735000Y-120665000D03*
X81275000Y-120665000D03*
X83815000Y-120665000D03*
X86355000Y-120665000D03*
X88895000Y-120665000D03*
X91435000Y-120665000D03*
X91435000Y-113045000D03*
X88895000Y-113045000D03*
X86355000Y-113045000D03*
X83815000Y-113045000D03*
X81275000Y-113045000D03*
X78735000Y-113045000D03*
X76195000Y-113045000D03*
D12*
X191770000Y-68570000D03*
X191770000Y-71110000D03*
X191770000Y-73650000D03*
D14*
X158750000Y-33020000D03*
D15*
X170180000Y-33020000D03*
D13*
X93390000Y-30480000D03*
D15*
X104820000Y-30480000D03*
D13*
X134540000Y-114935000D03*
D14*
X134540000Y-109935000D03*
X137795000Y-126325000D03*
X137795000Y-121325000D03*
D31*
X185420000Y-137795000D03*
X160020000Y-137795000D03*
D13*
X134540000Y-132715000D03*
D14*
X134540000Y-137715000D03*
D13*
X161285000Y-48275000D03*
D15*
X163825000Y-48275000D03*
X166365000Y-48275000D03*
X168905000Y-48275000D03*
X171445000Y-48275000D03*
X173985000Y-48275000D03*
X176525000Y-48275000D03*
X176525000Y-40655000D03*
X173985000Y-40655000D03*
X171445000Y-40655000D03*
X168905000Y-40655000D03*
X166365000Y-40655000D03*
X163825000Y-40655000D03*
X161285000Y-40655000D03*
D14*
X192405000Y-105410000D03*
D15*
X182245000Y-105410000D03*
D32*
X156985000Y-126055000D03*
X156635000Y-122555000D03*
X159385000Y-127555000D03*
X159385000Y-117555000D03*
X162135000Y-122555000D03*
X161785000Y-119055000D03*
D23*
X175260000Y-133675000D03*
D24*
X172720000Y-133675000D03*
X170180000Y-133675000D03*
D13*
X191135000Y-119340000D03*
D14*
X191135000Y-114340000D03*
D33*
X166370000Y-116840000D03*
D34*
X168910000Y-116840000D03*
D35*
X160020000Y-99060000D03*
D36*
X160020000Y-96520000D03*
X160020000Y-93980000D03*
X160020000Y-91440000D03*
X160020000Y-88900000D03*
X160020000Y-86360000D03*
X160020000Y-83820000D03*
X160020000Y-81280000D03*
X160020000Y-78740000D03*
X160020000Y-76200000D03*
X160020000Y-73660000D03*
X160020000Y-71120000D03*
X160020000Y-68580000D03*
X160020000Y-66040000D03*
X175260000Y-66040000D03*
X175260000Y-68580000D03*
X175260000Y-71120000D03*
X175260000Y-73660000D03*
X175260000Y-76200000D03*
X175260000Y-78740000D03*
X175260000Y-81280000D03*
X175260000Y-83820000D03*
X175260000Y-86360000D03*
X175260000Y-88900000D03*
X175260000Y-91440000D03*
X175260000Y-93980000D03*
X175260000Y-96520000D03*
X175260000Y-99060000D03*
D33*
X166370000Y-130810000D03*
D34*
X168910000Y-130810000D03*
D37*
X140716000Y-50292000D03*
X189865000Y-106680000D03*
X169164000Y-84836000D03*
X157480000Y-99060000D03*
X185674000Y-29210000D03*
X69088000Y-49784000D03*
X124460000Y-62738000D03*
X121920000Y-111125000D03*
X80010000Y-60452000D03*
X61468000Y-39370000D03*
X47752000Y-89916000D03*
X113665000Y-128905000D03*
X176530000Y-38100000D03*
X97536000Y-28448000D03*
X100076000Y-35560000D03*
X130556000Y-28956000D03*
X101600000Y-28956000D03*
X168275000Y-106045000D03*
X164465000Y-111125000D03*
X160020000Y-111125000D03*
X104140000Y-44196000D03*
X138430000Y-29210000D03*
X127508000Y-38608000D03*
X168910000Y-125095000D03*
X171450000Y-122555000D03*
X91440000Y-83820000D03*
X73152000Y-127000000D03*
X72390000Y-84455000D03*
X74295000Y-83185000D03*
X71374000Y-125730000D03*
X185420000Y-35052000D03*
X186690000Y-58420000D03*
X84836000Y-33020000D03*
X131064000Y-32004000D03*
X149860000Y-52324000D03*
X68072000Y-65532000D03*
X128524000Y-77216000D03*
X45720000Y-71120000D03*
X57912000Y-66040000D03*
X53340000Y-116840000D03*
X143510000Y-36830000D03*
X55880000Y-114300000D03*
X55880000Y-60960000D03*
X165100000Y-106045000D03*
X175768000Y-57404000D03*
X181610000Y-39116000D03*
X195580000Y-37084000D03*
X196850000Y-35560000D03*
X175768000Y-59944000D03*
X183896000Y-37592000D03*
X158496000Y-45720000D03*
X149860000Y-43180000D03*
X151130000Y-35052000D03*
X147828000Y-34036000D03*
X147320000Y-44450000D03*
X77470000Y-62484000D03*
X77470000Y-117348000D03*
X80010000Y-118618000D03*
X80010000Y-64008000D03*
X69850000Y-109220000D03*
X69596000Y-99060000D03*
X68580000Y-111760000D03*
X69088000Y-96520000D03*
X67056000Y-83820000D03*
X67056000Y-114300000D03*
X88900000Y-93345000D03*
X91440000Y-94615000D03*
X65278000Y-84836000D03*
X91440000Y-128270000D03*
X93980000Y-95250000D03*
X95250000Y-78105000D03*
X67564000Y-127889000D03*
X60960000Y-91948000D03*
X96520000Y-109728000D03*
X63500000Y-91948000D03*
X60452000Y-121920000D03*
X96520000Y-95885000D03*
X63500000Y-88900000D03*
X46736000Y-84709000D03*
X99060000Y-90170000D03*
X103632000Y-82296000D03*
X63500000Y-86868000D03*
X59436000Y-71120000D03*
X59436000Y-86868000D03*
X56388000Y-63500000D03*
X56388000Y-83820000D03*
X63500000Y-83820000D03*
X104140000Y-90932000D03*
X58420000Y-68580000D03*
X103124000Y-107696000D03*
X56896000Y-26416000D03*
X56896000Y-35560000D03*
X178435000Y-97790000D03*
X124460000Y-97155000D03*
X162560000Y-56896000D03*
X166624000Y-93472000D03*
X124460000Y-99695000D03*
X106680000Y-109220000D03*
X169672000Y-56896000D03*
X114300000Y-78740000D03*
X65532000Y-125730000D03*
X110490000Y-118110000D03*
X116840000Y-77216000D03*
X119380000Y-75692000D03*
X129286000Y-95504000D03*
X116205000Y-117856000D03*
X132080000Y-86360000D03*
X71120000Y-81915000D03*
X70612000Y-105156000D03*
X78740000Y-81915000D03*
X82550000Y-116078000D03*
X82550000Y-54356000D03*
X85090000Y-53340000D03*
X85090000Y-115062000D03*
X49784000Y-35052000D03*
X63500000Y-40640000D03*
X51308000Y-50800000D03*
X132080000Y-69088000D03*
X51308000Y-43688000D03*
X52324000Y-53340000D03*
X51816000Y-41656000D03*
X132080000Y-71120000D03*
X134620000Y-72644000D03*
X53340000Y-55880000D03*
X52324000Y-39624000D03*
X52832000Y-37592000D03*
X54356000Y-58420000D03*
X137160000Y-72644000D03*
X97790000Y-51054000D03*
X106680000Y-44196000D03*
X114300000Y-52324000D03*
X104140000Y-53340000D03*
X116840000Y-53340000D03*
X106680000Y-53594000D03*
X114300000Y-42926000D03*
X109220000Y-42926000D03*
X67564000Y-38100000D03*
X154432000Y-43180000D03*
X67564000Y-28956000D03*
X120015000Y-113284000D03*
X129857500Y-106997500D03*
X120015000Y-109220000D03*
X63500000Y-38100000D03*
X63500000Y-27940000D03*
X180340000Y-43688000D03*
X165100000Y-71120000D03*
X73025000Y-80645000D03*
X60960000Y-54610000D03*
X123952000Y-29972000D03*
X107696000Y-30226000D03*
X132588000Y-36576000D03*
X195580000Y-52324000D03*
X158496000Y-49276000D03*
X167640000Y-53340000D03*
X65532000Y-37084000D03*
X65532000Y-28956000D03*
X61468000Y-35560000D03*
X61468000Y-27940000D03*
X189225000Y-43180000D03*
X198120000Y-38608000D03*
X45720000Y-119888000D03*
X45720000Y-73660000D03*
X182880000Y-50292000D03*
X156464000Y-40640000D03*
X175260000Y-44450000D03*
X58928000Y-35560000D03*
X178308000Y-28956000D03*
X58928000Y-26416000D03*
X185420000Y-109220000D03*
X187960000Y-85344000D03*
D38*
X134620000Y-132715000D02*
X137160000Y-135255000D01*
X137160000Y-137795000D02*
X138430000Y-139065000D01*
X161925000Y-133350000D02*
X165735000Y-137160000D01*
X175260000Y-133675000D02*
X189540000Y-133675000D01*
X165735000Y-137160000D02*
X171775000Y-137160000D01*
X137160000Y-135255000D02*
X137160000Y-137795000D01*
X129667000Y-132715000D02*
X134540000Y-132715000D01*
X152400000Y-139065000D02*
X158115000Y-133350000D01*
X138430000Y-139065000D02*
X152400000Y-139065000D01*
X189540000Y-133675000D02*
X193635000Y-129580000D01*
X175220000Y-140335000D02*
X175220000Y-133715000D01*
X158115000Y-133350000D02*
X161925000Y-133350000D01*
X171775000Y-137160000D02*
X175260000Y-133675000D01*
X127912000Y-130960000D02*
X129667000Y-132715000D01*
X121920000Y-130960000D02*
X127912000Y-130960000D01*
X193675000Y-129580000D02*
X199350000Y-129580000D01*
X87630000Y-125730000D02*
X91435000Y-121925000D01*
D39*
X86360000Y-134620000D02*
X85090000Y-135890000D01*
D38*
X69636000Y-53380000D02*
X64506000Y-48250000D01*
X185420000Y-73650000D02*
X185420000Y-80725000D01*
D40*
X86360000Y-132080000D02*
X86360000Y-134620000D01*
D38*
X76200000Y-73660000D02*
X76200000Y-64730000D01*
X154860000Y-102870000D02*
X152320000Y-105410000D01*
X72390000Y-60920000D02*
X69636000Y-58166000D01*
X169164000Y-84836000D02*
X169164000Y-78232000D01*
X176525000Y-48275000D02*
X176525000Y-47503000D01*
D39*
X87630000Y-130810000D02*
X86360000Y-132080000D01*
D38*
X65278000Y-46482000D02*
X89642000Y-46482000D01*
X63510000Y-48250000D02*
X65278000Y-46482000D01*
X156972000Y-57912000D02*
X156972000Y-64008000D01*
X178435000Y-43180000D02*
X179832000Y-41783000D01*
X199629000Y-63515000D02*
X202184000Y-60960000D01*
X152400000Y-54864000D02*
X152405000Y-54869000D01*
X51816000Y-87884000D02*
X57912000Y-93980000D01*
X189865000Y-99060000D02*
X197485000Y-91440000D01*
X180848000Y-32512000D02*
X182372000Y-32512000D01*
D39*
X76200000Y-88392000D02*
X74930000Y-87122000D01*
D38*
X91435000Y-121925000D02*
X91435000Y-120665000D01*
X76200000Y-73660000D02*
X76200000Y-84328000D01*
X182372000Y-32512000D02*
X185674000Y-29210000D01*
X157480000Y-99060000D02*
X154940000Y-101600000D01*
X69636000Y-58166000D02*
X69636000Y-53380000D01*
X64506000Y-48250000D02*
X52314000Y-48250000D01*
X146050000Y-54864000D02*
X152400000Y-54864000D01*
X57912000Y-93980000D02*
X63500000Y-93980000D01*
D39*
X87630000Y-130810000D02*
X88900000Y-132080000D01*
D38*
X43688000Y-129413000D02*
X45085000Y-130810000D01*
D39*
X88900000Y-134620000D02*
X90170000Y-135890000D01*
D38*
X50292000Y-46228000D02*
X45720000Y-46228000D01*
X162560000Y-71628000D02*
X162560000Y-68580000D01*
X152400000Y-54864000D02*
X153924000Y-54864000D01*
X76200000Y-64730000D02*
X72390000Y-60920000D01*
X140716000Y-50292000D02*
X141478000Y-50292000D01*
X87630000Y-130810000D02*
X87630000Y-125730000D01*
X178435000Y-45593000D02*
X178435000Y-43180000D01*
X169164000Y-78232000D02*
X162560000Y-71628000D01*
X43688000Y-87884000D02*
X51816000Y-87884000D01*
X45720000Y-46228000D02*
X43688000Y-48260000D01*
X189865000Y-106680000D02*
X189865000Y-99060000D01*
X162560000Y-68580000D02*
X160020000Y-66040000D01*
X52314000Y-48250000D02*
X50292000Y-46228000D01*
X202184000Y-35814000D02*
X199390000Y-33020000D01*
X176525000Y-47503000D02*
X178435000Y-45593000D01*
D39*
X74930000Y-87122000D02*
X74930000Y-85598000D01*
D38*
X179832000Y-33528000D02*
X180848000Y-32512000D01*
X156972000Y-64008000D02*
X154940000Y-66040000D01*
D39*
X74930000Y-85598000D02*
X76200000Y-84328000D01*
D38*
X154860000Y-101680000D02*
X154860000Y-102870000D01*
X153924000Y-54864000D02*
X156972000Y-57912000D01*
X179832000Y-41783000D02*
X179832000Y-33528000D01*
X152405000Y-48275000D02*
X152405000Y-54869000D01*
X141478000Y-50292000D02*
X146050000Y-54864000D01*
D40*
X88900000Y-132080000D02*
X88900000Y-134620000D01*
D38*
X43688000Y-48260000D02*
X43688000Y-129413000D01*
X202184000Y-60960000D02*
X202184000Y-35814000D01*
X89642000Y-46482000D02*
X91435000Y-48275000D01*
X76200000Y-88392000D02*
X76200000Y-101600000D01*
X93760000Y-30480000D02*
X91440000Y-30480000D01*
X72390000Y-53086000D02*
X69088000Y-49784000D01*
X91440000Y-28448000D02*
X89662000Y-28448000D01*
X130175000Y-104140000D02*
X133350000Y-107315000D01*
X130175000Y-99441000D02*
X130175000Y-104140000D01*
X182880000Y-97790000D02*
X182880000Y-99695000D01*
X80010000Y-60452000D02*
X75184000Y-60452000D01*
X129286000Y-73406000D02*
X132080000Y-76200000D01*
X172085000Y-130810000D02*
X170180000Y-132715000D01*
X100076000Y-30988000D02*
X97536000Y-28448000D01*
X161290000Y-38100000D02*
X161285000Y-38105000D01*
X132080000Y-97536000D02*
X130175000Y-99441000D01*
X183515000Y-76200000D02*
X181610000Y-74295000D01*
X121920000Y-114300000D02*
X120650000Y-115570000D01*
X115570000Y-126682500D02*
X115570000Y-128905000D01*
X125984000Y-82296000D02*
X124460000Y-80772000D01*
X131572000Y-109093000D02*
X131572000Y-109220000D01*
X58420000Y-98425000D02*
X58420000Y-126990000D01*
X182880000Y-99695000D02*
X181610000Y-100965000D01*
X144780000Y-105410000D02*
X144780000Y-107315000D01*
X133350000Y-107315000D02*
X131572000Y-109093000D01*
X124460000Y-101600000D02*
X124968000Y-101600000D01*
X147320000Y-107315000D02*
X144780000Y-107315000D01*
X172085000Y-125730000D02*
X172085000Y-130810000D01*
X123825000Y-109220000D02*
X121920000Y-111125000D01*
X131572000Y-109220000D02*
X124460000Y-109220000D01*
X162306000Y-107315000D02*
X147320000Y-107315000D01*
X181610000Y-100965000D02*
X179070000Y-100965000D01*
X97028000Y-38608000D02*
X99060000Y-40640000D01*
X175260000Y-128905000D02*
X180975000Y-128905000D01*
X127508000Y-40640000D02*
X126492000Y-40640000D01*
X164465000Y-102870000D02*
X162306000Y-105029000D01*
X170180000Y-132715000D02*
X170180000Y-133675000D01*
X132080000Y-58420000D02*
X129286000Y-61214000D01*
X100076000Y-35560000D02*
X100076000Y-30988000D01*
X75184000Y-60452000D02*
X72390000Y-57658000D01*
X129545000Y-40655000D02*
X127523000Y-40655000D01*
X181610000Y-91440000D02*
X183515000Y-89535000D01*
X124460000Y-101600000D02*
X124460000Y-109220000D01*
X130556000Y-29464000D02*
X128237500Y-31782500D01*
X184145000Y-59695000D02*
X184145000Y-55895000D01*
X162306000Y-107315000D02*
X162306000Y-115951000D01*
X58420000Y-126990000D02*
X63505000Y-126990000D01*
X130556000Y-28956000D02*
X130556000Y-29464000D01*
X91440000Y-30480000D02*
X91440000Y-28448000D01*
X115570000Y-135255000D02*
X111125000Y-139700000D01*
X97536000Y-28448000D02*
X91440000Y-28448000D01*
X176530000Y-38100000D02*
X170180000Y-38100000D01*
X124460000Y-80772000D02*
X124460000Y-73660000D01*
X124460000Y-109220000D02*
X123825000Y-109220000D01*
X172085000Y-125730000D02*
X175260000Y-128905000D01*
X183515000Y-89535000D02*
X183515000Y-76200000D01*
X120650000Y-121602500D02*
X115570000Y-126682500D01*
X78232000Y-38608000D02*
X91440000Y-38608000D01*
D39*
X181610000Y-96520000D02*
X181610000Y-91440000D01*
D38*
X72390000Y-55920000D02*
X72390000Y-53086000D01*
X177165000Y-102870000D02*
X164465000Y-102870000D01*
X158750000Y-33020000D02*
X161285000Y-35555000D01*
X51435000Y-91440000D02*
X58420000Y-98425000D01*
X47752000Y-89916000D02*
X49276000Y-91440000D01*
X89662000Y-28448000D02*
X88900000Y-29210000D01*
X120650000Y-115570000D02*
X120650000Y-121602500D01*
X161285000Y-35555000D02*
X161285000Y-38105000D01*
X76195000Y-40645000D02*
X78232000Y-38608000D01*
X170180000Y-35560000D02*
X170180000Y-38100000D01*
X181610000Y-62230000D02*
X184145000Y-59695000D01*
X124968000Y-101600000D02*
X125984000Y-100584000D01*
X128237500Y-31782500D02*
X128237500Y-36877500D01*
X125984000Y-40132000D02*
X125984000Y-37592000D01*
X91440000Y-29464000D02*
X91186000Y-29210000D01*
D39*
X50085000Y-130810000D02*
X52665000Y-130810000D01*
D38*
X49276000Y-91440000D02*
X51435000Y-91440000D01*
X72390000Y-57658000D02*
X72390000Y-55920000D01*
X147320000Y-105410000D02*
X147320000Y-107315000D01*
X126492000Y-40640000D02*
X125984000Y-40132000D01*
X121920000Y-111125000D02*
X121920000Y-114300000D01*
X48265000Y-126990000D02*
X63505000Y-126990000D01*
D39*
X61468000Y-39370000D02*
X77470000Y-39370000D01*
D38*
X179070000Y-100965000D02*
X177165000Y-102870000D01*
X125984000Y-37592000D02*
X126698500Y-36877500D01*
X161285000Y-38105000D02*
X161285000Y-40655000D01*
X162306000Y-105029000D02*
X162306000Y-107696000D01*
X132080000Y-79248000D02*
X129540000Y-81788000D01*
X126698500Y-36877500D02*
X128237500Y-36877500D01*
X124460000Y-62738000D02*
X124460000Y-73660000D01*
X91440000Y-38608000D02*
X91440000Y-30480000D01*
X127523000Y-40655000D02*
X127508000Y-40640000D01*
X91440000Y-30480000D02*
X91440000Y-29464000D01*
X91440000Y-38608000D02*
X97028000Y-38608000D01*
X91186000Y-29210000D02*
X88900000Y-29210000D01*
X129540000Y-81788000D02*
X129540000Y-87376000D01*
X162306000Y-115951000D02*
X172085000Y-125730000D01*
X170180000Y-38100000D02*
X161290000Y-38100000D01*
X115570000Y-128905000D02*
X113665000Y-128905000D01*
X182880000Y-97790000D02*
X181610000Y-96520000D01*
X111125000Y-139700000D02*
X63500000Y-139700000D01*
X132080000Y-76200000D02*
X132080000Y-79248000D01*
X129540000Y-87376000D02*
X132080000Y-89916000D01*
X48240000Y-81270000D02*
X63480000Y-81270000D01*
X181610000Y-74295000D02*
X181610000Y-62230000D01*
X132080000Y-93980000D02*
X132080000Y-97536000D01*
X125984000Y-100584000D02*
X125984000Y-82296000D01*
X115570000Y-128905000D02*
X115570000Y-135255000D01*
X129286000Y-61214000D02*
X129286000Y-73406000D01*
X132080000Y-89916000D02*
X132080000Y-93980000D01*
X144780000Y-107315000D02*
X133350000Y-107315000D01*
D39*
X194310000Y-119380000D02*
X191175000Y-119380000D01*
X199390000Y-124460000D02*
X194310000Y-119380000D01*
D38*
X171450000Y-109220000D02*
X168275000Y-106045000D01*
D39*
X186690000Y-126365000D02*
X184150000Y-128905000D01*
D38*
X189230000Y-109220000D02*
X191135000Y-109220000D01*
X201930000Y-114300000D02*
X199390000Y-111760000D01*
D39*
X186690000Y-120015000D02*
X186690000Y-126365000D01*
D38*
X201930000Y-131445000D02*
X201930000Y-114300000D01*
X182880000Y-109220000D02*
X171450000Y-109220000D01*
X187325000Y-107315000D02*
X189230000Y-109220000D01*
X53975000Y-142240000D02*
X191135000Y-142240000D01*
X187325000Y-107315000D02*
X184785000Y-107315000D01*
D39*
X193675000Y-114935000D02*
X191770000Y-116840000D01*
X191770000Y-116840000D02*
X189865000Y-116840000D01*
D38*
X96774000Y-24130000D02*
X54610000Y-24130000D01*
X42164000Y-130429000D02*
X53975000Y-142240000D01*
D39*
X189865000Y-116840000D02*
X186690000Y-120015000D01*
D38*
X42164000Y-36576000D02*
X42164000Y-130429000D01*
X101600000Y-28956000D02*
X96774000Y-24130000D01*
X199390000Y-111760000D02*
X193675000Y-111760000D01*
X193675000Y-111760000D02*
X191135000Y-109220000D01*
X184785000Y-107315000D02*
X182880000Y-109220000D01*
X54610000Y-24130000D02*
X42164000Y-36576000D01*
X191135000Y-142240000D02*
X201930000Y-131445000D01*
D39*
X193675000Y-111760000D02*
X193675000Y-114935000D01*
D38*
X170180000Y-114935000D02*
X170180000Y-111323000D01*
X172085000Y-116840000D02*
X170180000Y-114935000D01*
X160020000Y-111125000D02*
X138350000Y-111125000D01*
X123952000Y-114935000D02*
X134540000Y-114935000D01*
X164465000Y-111125000D02*
X169982000Y-111125000D01*
X138350000Y-111125000D02*
X134540000Y-114935000D01*
D39*
X96520000Y-35560000D02*
X101600000Y-40640000D01*
X93980000Y-35560000D02*
X96520000Y-35560000D01*
X103124000Y-32512000D02*
X103124000Y-36576000D01*
X103124000Y-36576000D02*
X105410000Y-38862000D01*
X105410000Y-38862000D02*
X105410000Y-42926000D01*
X105410000Y-42926000D02*
X104140000Y-44196000D01*
X105156000Y-30480000D02*
X103124000Y-32512000D01*
X130048000Y-35052000D02*
X130048000Y-38608000D01*
X136525000Y-31115000D02*
X133985000Y-31115000D01*
X133985000Y-31115000D02*
X130048000Y-35052000D01*
X130048000Y-38608000D02*
X127508000Y-38608000D01*
X138430000Y-29210000D02*
X136525000Y-31115000D01*
X168910000Y-125095000D02*
X168910000Y-130810000D01*
X171450000Y-122555000D02*
X179070000Y-122555000D01*
X179070000Y-122555000D02*
X180975000Y-120650000D01*
X180975000Y-120650000D02*
X180975000Y-118745000D01*
X168910000Y-116840000D02*
X168910000Y-118745000D01*
X180340000Y-116840000D02*
X182880000Y-116840000D01*
X179070000Y-120332500D02*
X179070000Y-118110000D01*
X178117500Y-121285000D02*
X179070000Y-120332500D01*
X184150000Y-118110000D02*
X184150000Y-118745000D01*
X182880000Y-116840000D02*
X184150000Y-118110000D01*
X179070000Y-118110000D02*
X180340000Y-116840000D01*
X171450000Y-121285000D02*
X178117500Y-121285000D01*
X168910000Y-118745000D02*
X171450000Y-121285000D01*
X199385000Y-55895000D02*
X200914000Y-54366000D01*
X200914000Y-54366000D02*
X200914000Y-37084000D01*
X200914000Y-37084000D02*
X199390000Y-35560000D01*
X69215000Y-137795000D02*
X67945000Y-136525000D01*
X123190000Y-62230000D02*
X123190000Y-85090000D01*
X124460000Y-92075000D02*
X123190000Y-93345000D01*
X67945000Y-136525000D02*
X67945000Y-134620000D01*
X124460000Y-86360000D02*
X124460000Y-92075000D01*
X123190000Y-85090000D02*
X124460000Y-86360000D01*
X113665000Y-135255000D02*
X111125000Y-137795000D01*
X118745000Y-120650000D02*
X111760000Y-127635000D01*
X123190000Y-102235000D02*
X118745000Y-106680000D01*
X111125000Y-137795000D02*
X69215000Y-137795000D01*
X111760000Y-129540000D02*
X113665000Y-131445000D01*
X118745000Y-106680000D02*
X118745000Y-120650000D01*
X67945000Y-134620000D02*
X69215000Y-133350000D01*
X124460000Y-60960000D02*
X123190000Y-62230000D01*
X113665000Y-131445000D02*
X113665000Y-135255000D01*
X123190000Y-93345000D02*
X123190000Y-102235000D01*
X111760000Y-127635000D02*
X111760000Y-129540000D01*
X124460000Y-58420000D02*
X124460000Y-60960000D01*
X115570000Y-66548000D02*
X114300000Y-65278000D01*
X72390000Y-133350000D02*
X80010000Y-125730000D01*
X90170000Y-85090000D02*
X91440000Y-83820000D01*
X81280000Y-125730000D02*
X80010000Y-125730000D01*
X88900000Y-114935000D02*
X88900000Y-115570000D01*
X114300000Y-86360000D02*
X114300000Y-81915000D01*
X114300000Y-65278000D02*
X114300000Y-58420000D01*
X88900000Y-115570000D02*
X85090000Y-119380000D01*
X114300000Y-81915000D02*
X115570000Y-80645000D01*
X90170000Y-88265000D02*
X90170000Y-85090000D01*
X85090000Y-121920000D02*
X81280000Y-125730000D01*
X88895000Y-113045000D02*
X88895000Y-114930000D01*
X115570000Y-80645000D02*
X115570000Y-66548000D01*
X87630000Y-90805000D02*
X90170000Y-88265000D01*
X88895000Y-114930000D02*
X88900000Y-114935000D01*
X85090000Y-119380000D02*
X85090000Y-121920000D01*
X88895000Y-113025000D02*
X87630000Y-111760000D01*
X87630000Y-111760000D02*
X87630000Y-90805000D01*
X88895000Y-122423000D02*
X88900000Y-122428000D01*
X88895000Y-120665000D02*
X88895000Y-120020000D01*
X88895000Y-120665000D02*
X88895000Y-122423000D01*
X91440000Y-117475000D02*
X91440000Y-113050000D01*
X88895000Y-122560000D02*
X80010000Y-131445000D01*
X88895000Y-122423000D02*
X88895000Y-122560000D01*
X80010000Y-131445000D02*
X80010000Y-133350000D01*
X88895000Y-120020000D02*
X91440000Y-117475000D01*
X91440000Y-88265000D02*
X90170000Y-89535000D01*
X91440000Y-65278000D02*
X92710000Y-66548000D01*
X92710000Y-85090000D02*
X92710000Y-66548000D01*
X90170000Y-116840000D02*
X87630000Y-119380000D01*
X91440000Y-86360000D02*
X92710000Y-85090000D01*
D40*
X83820000Y-134620000D02*
X79375000Y-134620000D01*
X78740000Y-133985000D02*
X78740000Y-131445000D01*
D39*
X78740000Y-130810000D02*
X78740000Y-131445000D01*
X90170000Y-89535000D02*
X90170000Y-116840000D01*
D40*
X85090000Y-133350000D02*
X83820000Y-134620000D01*
D39*
X87630000Y-119380000D02*
X87630000Y-121920000D01*
D40*
X79375000Y-134620000D02*
X78740000Y-133985000D01*
D39*
X87630000Y-121920000D02*
X78740000Y-130810000D01*
X91440000Y-58420000D02*
X91440000Y-65278000D01*
X91440000Y-86360000D02*
X91440000Y-88265000D01*
X90170000Y-133350000D02*
X90170000Y-125793500D01*
X93980000Y-65278000D02*
X95250000Y-66548000D01*
X93980000Y-88265000D02*
X92710000Y-89535000D01*
X93980000Y-76454000D02*
X93980000Y-86360000D01*
X95250000Y-75184000D02*
X93980000Y-76454000D01*
X90170000Y-125793500D02*
X92710000Y-123253500D01*
X92710000Y-89535000D02*
X92710000Y-104775000D01*
D40*
X92710000Y-123253500D02*
X92710000Y-104775000D01*
D39*
X95250000Y-66548000D02*
X95250000Y-75184000D01*
X93980000Y-58420000D02*
X93980000Y-65278000D01*
X93980000Y-86360000D02*
X93980000Y-88265000D01*
X95250000Y-89535000D02*
X96520000Y-88265000D01*
X91440000Y-131445000D02*
X94234000Y-128651000D01*
D40*
X91440000Y-131445000D02*
X91440000Y-134620000D01*
D39*
X96520000Y-58420000D02*
X96520000Y-65278000D01*
X97790000Y-80010000D02*
X96520000Y-81280000D01*
D40*
X94234000Y-106934000D02*
X94234000Y-124714000D01*
D39*
X97790000Y-66548000D02*
X97790000Y-80010000D01*
D40*
X95250000Y-105918000D02*
X94234000Y-106934000D01*
D39*
X96520000Y-65278000D02*
X97790000Y-66548000D01*
X96520000Y-86360000D02*
X96520000Y-88265000D01*
X94234000Y-128651000D02*
X94234000Y-124714000D01*
X92710000Y-135890000D02*
X91440000Y-134620000D01*
X96520000Y-81280000D02*
X96520000Y-86360000D01*
X95250000Y-105918000D02*
X95250000Y-89535000D01*
X97790000Y-88900000D02*
X99060000Y-87630000D01*
X99060000Y-81153000D02*
X99060000Y-86360000D01*
D40*
X95758000Y-111252000D02*
X94996000Y-112014000D01*
D39*
X92710000Y-133350000D02*
X92710000Y-131445000D01*
D40*
X97028000Y-111252000D02*
X95758000Y-111252000D01*
X98044000Y-110236000D02*
X97028000Y-111252000D01*
D39*
X100330000Y-66548000D02*
X100330000Y-79883000D01*
X97790000Y-108458000D02*
X97790000Y-88900000D01*
D40*
X97790000Y-108458000D02*
X98044000Y-108712000D01*
D39*
X94996000Y-129159000D02*
X94996000Y-125476000D01*
D40*
X94996000Y-112014000D02*
X94996000Y-125476000D01*
D39*
X92710000Y-131445000D02*
X94996000Y-129159000D01*
X99060000Y-65278000D02*
X100330000Y-66548000D01*
X100330000Y-79883000D02*
X99060000Y-81153000D01*
X99060000Y-87630000D02*
X99060000Y-86360000D01*
X99060000Y-58420000D02*
X99060000Y-65278000D01*
D40*
X98044000Y-108712000D02*
X98044000Y-110236000D01*
D39*
X102870000Y-66548000D02*
X102870000Y-80010000D01*
X99060000Y-104140000D02*
X99060000Y-110490000D01*
X102870000Y-80010000D02*
X101600000Y-81280000D01*
X100330000Y-88900000D02*
X100330000Y-102870000D01*
X101600000Y-58420000D02*
X101600000Y-65278000D01*
D40*
X93980000Y-131445000D02*
X93980000Y-134620000D01*
D39*
X100330000Y-102870000D02*
X99060000Y-104140000D01*
X97790000Y-111760000D02*
X97790000Y-127635000D01*
X101600000Y-65278000D02*
X102870000Y-66548000D01*
X101600000Y-86360000D02*
X101600000Y-87630000D01*
X97790000Y-127635000D02*
X93980000Y-131445000D01*
X101600000Y-87630000D02*
X100330000Y-88900000D01*
X101600000Y-81280000D02*
X101600000Y-86360000D01*
X95250000Y-135890000D02*
X93980000Y-134620000D01*
X99060000Y-110490000D02*
X97790000Y-111760000D01*
X104140000Y-86360000D02*
X104140000Y-88900000D01*
X105410000Y-85090000D02*
X104140000Y-86360000D01*
X102870000Y-102870000D02*
X100330000Y-105410000D01*
X104140000Y-58420000D02*
X104140000Y-65278000D01*
X105410000Y-66548000D02*
X105410000Y-85090000D01*
X100330000Y-126365000D02*
X95250000Y-131445000D01*
X102870000Y-90170000D02*
X102870000Y-102870000D01*
X95250000Y-131445000D02*
X95250000Y-133350000D01*
X104140000Y-65278000D02*
X105410000Y-66548000D01*
X100330000Y-105410000D02*
X100330000Y-126365000D01*
X104140000Y-88900000D02*
X102870000Y-90170000D01*
X101600000Y-110490000D02*
X101600000Y-106362500D01*
X106680000Y-65278000D02*
X107950000Y-66548000D01*
X106680000Y-92075000D02*
X106680000Y-86360000D01*
X105410000Y-93345000D02*
X106680000Y-92075000D01*
D40*
X96520000Y-134620000D02*
X96520000Y-131445000D01*
D39*
X96520000Y-131445000D02*
X102870000Y-125095000D01*
X102870000Y-111760000D02*
X101600000Y-110490000D01*
X106680000Y-58420000D02*
X106680000Y-65278000D01*
X97790000Y-135890000D02*
X96520000Y-134620000D01*
X106680000Y-77216000D02*
X106680000Y-86360000D01*
X105410000Y-102552500D02*
X105410000Y-93345000D01*
X102870000Y-125095000D02*
X102870000Y-111760000D01*
X107950000Y-75946000D02*
X106680000Y-77216000D01*
X107950000Y-66548000D02*
X107950000Y-75946000D01*
X101600000Y-106362500D02*
X105410000Y-102552500D01*
X110490000Y-76073000D02*
X109220000Y-77343000D01*
X109220000Y-77343000D02*
X109220000Y-86360000D01*
X109220000Y-58420000D02*
X109220000Y-65278000D01*
X109220000Y-65278000D02*
X110490000Y-66548000D01*
X97790000Y-131445000D02*
X105410000Y-123825000D01*
X97790000Y-133350000D02*
X97790000Y-131445000D01*
X107950000Y-93980000D02*
X109220000Y-92710000D01*
X104775000Y-110490000D02*
X104775000Y-108839000D01*
X105410000Y-111125000D02*
X104775000Y-110490000D01*
X107950000Y-105664000D02*
X107950000Y-93980000D01*
X104775000Y-108839000D02*
X107950000Y-105664000D01*
X109220000Y-92710000D02*
X109220000Y-86360000D01*
X105410000Y-123825000D02*
X105410000Y-111125000D01*
X110490000Y-66548000D02*
X110490000Y-76073000D01*
X110490000Y-106362500D02*
X108585000Y-108267500D01*
X107950000Y-122555000D02*
X99060000Y-131445000D01*
X111760000Y-65278000D02*
X113030000Y-66548000D01*
X108585000Y-111125000D02*
X107950000Y-111760000D01*
X111760000Y-58420000D02*
X111760000Y-65278000D01*
X113030000Y-66548000D02*
X113030000Y-75946000D01*
X100330000Y-135890000D02*
X99060000Y-134620000D01*
D40*
X99060000Y-131445000D02*
X99060000Y-134620000D01*
D39*
X108585000Y-108267500D02*
X108585000Y-111125000D01*
X107950000Y-111760000D02*
X107950000Y-122555000D01*
X111760000Y-92710000D02*
X110490000Y-93980000D01*
X113030000Y-75946000D02*
X111760000Y-77216000D01*
X111760000Y-77216000D02*
X111760000Y-86360000D01*
X111760000Y-86360000D02*
X111760000Y-92710000D01*
X110490000Y-93980000D02*
X110490000Y-106362500D01*
X73025000Y-120523000D02*
X69596000Y-123952000D01*
X73152000Y-101473000D02*
X72390000Y-102235000D01*
X73025000Y-104775000D02*
X73025000Y-120523000D01*
X87630000Y-66802000D02*
X87630000Y-80010000D01*
X72390000Y-93218000D02*
X73152000Y-93980000D01*
X70612000Y-127000000D02*
X73152000Y-127000000D01*
X72390000Y-104140000D02*
X73025000Y-104775000D01*
X69596000Y-125984000D02*
X70612000Y-127000000D01*
X87630000Y-80010000D02*
X86360000Y-81280000D01*
X69596000Y-123952000D02*
X69596000Y-125984000D01*
X72390000Y-102235000D02*
X72390000Y-104140000D01*
X72390000Y-84455000D02*
X72390000Y-93218000D01*
X86360000Y-65532000D02*
X87630000Y-66802000D01*
X73152000Y-93980000D02*
X73152000Y-101473000D01*
X86360000Y-58420000D02*
X86360000Y-65532000D01*
X86360000Y-81280000D02*
X86360000Y-86360000D01*
X73660000Y-84328000D02*
X74295000Y-83693000D01*
X90170000Y-80010000D02*
X88900000Y-81280000D01*
X88900000Y-58420000D02*
X88900000Y-65278000D01*
X88900000Y-81280000D02*
X88900000Y-86360000D01*
X88900000Y-65278000D02*
X90170000Y-66548000D01*
X90170000Y-66548000D02*
X90170000Y-80010000D01*
X71374000Y-125730000D02*
X74676000Y-122428000D01*
X74676000Y-122428000D02*
X74676000Y-93472000D01*
X73660000Y-92456000D02*
X73660000Y-84328000D01*
X74295000Y-83693000D02*
X74295000Y-83185000D01*
X74676000Y-93472000D02*
X73660000Y-92456000D01*
X120650000Y-102870000D02*
X117475000Y-106045000D01*
X120650000Y-74676000D02*
X120650000Y-61531500D01*
X112395000Y-132080000D02*
X112395000Y-133985000D01*
X110490000Y-130175000D02*
X112395000Y-132080000D01*
X121920000Y-86360000D02*
X121920000Y-92710000D01*
X120650000Y-61531500D02*
X121920000Y-60261500D01*
X120650000Y-93980000D02*
X120650000Y-102870000D01*
X121920000Y-60261500D02*
X121920000Y-58420000D01*
X121920000Y-75946000D02*
X120650000Y-74676000D01*
X117475000Y-120015000D02*
X110490000Y-127000000D01*
X121920000Y-92710000D02*
X120650000Y-93980000D01*
X110490000Y-127000000D02*
X110490000Y-130175000D01*
X112395000Y-133985000D02*
X110490000Y-135890000D01*
X117475000Y-106045000D02*
X117475000Y-120015000D01*
X121920000Y-86360000D02*
X121920000Y-75946000D01*
X116840000Y-65278000D02*
X118110000Y-66548000D01*
X115570000Y-102870000D02*
X115570000Y-93980000D01*
X113030000Y-105410000D02*
X115570000Y-102870000D01*
X118110000Y-80645000D02*
X116840000Y-81915000D01*
X116840000Y-81915000D02*
X116840000Y-86360000D01*
X113030000Y-121920000D02*
X113030000Y-105410000D01*
X110490000Y-133350000D02*
X109220000Y-132080000D01*
X109220000Y-132080000D02*
X109220000Y-125730000D01*
X109220000Y-125730000D02*
X113030000Y-121920000D01*
X115570000Y-93980000D02*
X116840000Y-92710000D01*
X118110000Y-66548000D02*
X118110000Y-80645000D01*
X116840000Y-92710000D02*
X116840000Y-86360000D01*
X116840000Y-58420000D02*
X116840000Y-65278000D01*
X182245000Y-105410000D02*
X182245000Y-102235000D01*
X184150000Y-96520000D02*
X182880000Y-95250000D01*
X185420000Y-57150000D02*
X185420000Y-35052000D01*
X186690000Y-58420000D02*
X185420000Y-57150000D01*
X182245000Y-102235000D02*
X184150000Y-100330000D01*
X184150000Y-100330000D02*
X184150000Y-96520000D01*
X71120000Y-36830000D02*
X74930000Y-33020000D01*
X74930000Y-33020000D02*
X84836000Y-33020000D01*
X131064000Y-31496000D02*
X133302500Y-29257500D01*
X140970000Y-39624000D02*
X140937500Y-39591500D01*
X146050000Y-47498000D02*
X140970000Y-42418000D01*
X140970000Y-42418000D02*
X140970000Y-39624000D01*
X131064000Y-32004000D02*
X131064000Y-31496000D01*
X146050000Y-51562000D02*
X146050000Y-47498000D01*
X149860000Y-52324000D02*
X146812000Y-52324000D01*
X133302500Y-29257500D02*
X135857500Y-29257500D01*
X146812000Y-52324000D02*
X146050000Y-51562000D01*
X140937500Y-39591500D02*
X140937500Y-36877500D01*
X155956000Y-30480000D02*
X139192000Y-30480000D01*
X136652000Y-33020000D02*
X133604000Y-33020000D01*
X133604000Y-33020000D02*
X131064000Y-35560000D01*
X131572000Y-40142000D02*
X132085000Y-40655000D01*
X170180000Y-30480000D02*
X168656000Y-28956000D01*
X157480000Y-28956000D02*
X155956000Y-30480000D01*
X168656000Y-28956000D02*
X157480000Y-28956000D01*
X131064000Y-39624000D02*
X131572000Y-40132000D01*
X131064000Y-35560000D02*
X131064000Y-39624000D01*
X131572000Y-40132000D02*
X131572000Y-40142000D01*
X139192000Y-30480000D02*
X136652000Y-33020000D01*
X50292000Y-75057000D02*
X50292000Y-77978000D01*
X127000000Y-47752000D02*
X129286000Y-45466000D01*
X61595000Y-62230000D02*
X64770000Y-62230000D01*
X46990000Y-72390000D02*
X49276000Y-72390000D01*
X49276000Y-72390000D02*
X50292000Y-73406000D01*
X128524000Y-77216000D02*
X127000000Y-75692000D01*
X50292000Y-73406000D02*
X50292000Y-75057000D01*
X139705000Y-43175000D02*
X139705000Y-40655000D01*
X127000000Y-75692000D02*
X127000000Y-47752000D01*
X50292000Y-77978000D02*
X49540000Y-78730000D01*
X61595000Y-72390000D02*
X61595000Y-62230000D01*
X64770000Y-62230000D02*
X68072000Y-65532000D01*
X137414000Y-45466000D02*
X139705000Y-43175000D01*
X58928000Y-75057000D02*
X61595000Y-72390000D01*
X129286000Y-45466000D02*
X137414000Y-45466000D01*
X49540000Y-78730000D02*
X48240000Y-78730000D01*
X50292000Y-75057000D02*
X58928000Y-75057000D01*
X45720000Y-71120000D02*
X46990000Y-72390000D01*
X57912000Y-66040000D02*
X48250000Y-66040000D01*
X48260000Y-111760000D02*
X53340000Y-116840000D01*
X142245000Y-39883000D02*
X142240000Y-39878000D01*
X142245000Y-40655000D02*
X142245000Y-39883000D01*
X55880000Y-60960000D02*
X48250000Y-60960000D01*
X55880000Y-114300000D02*
X48260000Y-106680000D01*
X142240000Y-39878000D02*
X142240000Y-38100000D01*
X142240000Y-38100000D02*
X143510000Y-36830000D01*
X203454000Y-63754000D02*
X202184000Y-65024000D01*
X102870000Y-37846000D02*
X102870000Y-41783000D01*
X167005000Y-104140000D02*
X168910000Y-104140000D01*
X134620000Y-76200000D02*
X134620000Y-81280000D01*
X102108000Y-37084000D02*
X102870000Y-37846000D01*
X198120000Y-59944000D02*
X196845000Y-58669000D01*
X203454000Y-32639000D02*
X203454000Y-63754000D01*
X198120000Y-64516000D02*
X198120000Y-59944000D01*
X198628000Y-65024000D02*
X198120000Y-64516000D01*
X196845000Y-58669000D02*
X196845000Y-55895000D01*
X189865000Y-86360000D02*
X189865000Y-77470000D01*
X109982000Y-23114000D02*
X102108000Y-30988000D01*
X192024000Y-23114000D02*
X198120000Y-29210000D01*
X200025000Y-29210000D02*
X203454000Y-32639000D01*
X182880000Y-107315000D02*
X187960000Y-102235000D01*
X198120000Y-29210000D02*
X200025000Y-29210000D01*
X187960000Y-88265000D02*
X189865000Y-86360000D01*
X202057000Y-79248000D02*
X203200000Y-78105000D01*
X132080000Y-101600000D02*
X132080000Y-102870000D01*
X168910000Y-104140000D02*
X172085000Y-107315000D01*
X101600000Y-43053000D02*
X101600000Y-48260000D01*
X203200000Y-78105000D02*
X203200000Y-66040000D01*
X134620000Y-86360000D02*
X134620000Y-93980000D01*
X165100000Y-106045000D02*
X167005000Y-104140000D01*
D40*
X109982000Y-23114000D02*
X191770000Y-23114000D01*
D39*
X134620000Y-96520000D02*
X134620000Y-93980000D01*
X102870000Y-41783000D02*
X101600000Y-43053000D01*
X132080000Y-99060000D02*
X134620000Y-96520000D01*
X132080000Y-102870000D02*
X134620000Y-105410000D01*
X132080000Y-83820000D02*
X134620000Y-86360000D01*
X189865000Y-77470000D02*
X191643000Y-79248000D01*
X134620000Y-81280000D02*
X132080000Y-83820000D01*
X187960000Y-102235000D02*
X187960000Y-88265000D01*
X132080000Y-101600000D02*
X132080000Y-99060000D01*
X191643000Y-79248000D02*
X202057000Y-79248000D01*
X203200000Y-66040000D02*
X202184000Y-65024000D01*
X172085000Y-107315000D02*
X182880000Y-107315000D01*
X202184000Y-65024000D02*
X198628000Y-65024000D01*
D40*
X191770000Y-23114000D02*
X192024000Y-23114000D01*
D39*
X102108000Y-30988000D02*
X102108000Y-37084000D01*
X198120000Y-71110000D02*
X198120000Y-68570000D01*
X200025000Y-77470000D02*
X200025000Y-73015000D01*
X200025000Y-73015000D02*
X198120000Y-71110000D01*
X191770000Y-73660000D02*
X194945000Y-76835000D01*
X194945000Y-76835000D02*
X194945000Y-77470000D01*
X185420000Y-71110000D02*
X185420000Y-68570000D01*
X185420000Y-71110000D02*
X186045000Y-71110000D01*
X186045000Y-71110000D02*
X192405000Y-77470000D01*
X179324000Y-48260000D02*
X182372000Y-45212000D01*
X120650000Y-26670000D02*
X120650000Y-29210000D01*
X195072000Y-36576000D02*
X195072000Y-29210000D01*
D40*
X195580000Y-37084000D02*
X195072000Y-36576000D01*
D39*
X122682000Y-24638000D02*
X120650000Y-26670000D01*
X195072000Y-29210000D02*
X190500000Y-24638000D01*
X182372000Y-45212000D02*
X182372000Y-43180000D01*
X181610000Y-42418000D02*
X181610000Y-39116000D01*
X182372000Y-43180000D02*
X181610000Y-42418000D01*
D40*
X190500000Y-24638000D02*
X122682000Y-24638000D01*
D39*
X175768000Y-57404000D02*
X179324000Y-53848000D01*
X179324000Y-53848000D02*
X179324000Y-48260000D01*
X182626000Y-41910000D02*
X182626000Y-39878000D01*
X180340000Y-55372000D02*
X180340000Y-48768000D01*
X115537500Y-29257500D02*
X120904000Y-23891000D01*
X196088000Y-28702000D02*
X191262000Y-23876000D01*
X182626000Y-39878000D02*
X183896000Y-38608000D01*
X196088000Y-33528000D02*
X196088000Y-28702000D01*
X183896000Y-38608000D02*
X183896000Y-37592000D01*
D40*
X127254000Y-23876000D02*
X191262000Y-23876000D01*
X127254000Y-23876000D02*
X120904000Y-23876000D01*
D39*
X175768000Y-59944000D02*
X180340000Y-55372000D01*
X180340000Y-48768000D02*
X183388000Y-45720000D01*
X120904000Y-23876000D02*
X120904000Y-23891000D01*
X196850000Y-34290000D02*
X196088000Y-33528000D01*
X183388000Y-45720000D02*
X183388000Y-42672000D01*
X183388000Y-42672000D02*
X182626000Y-41910000D01*
X196850000Y-35560000D02*
X196850000Y-34290000D01*
X172212000Y-82296000D02*
X173736000Y-83820000D01*
X158496000Y-45720000D02*
X156972000Y-45720000D01*
X160020000Y-51816000D02*
X172212000Y-64008000D01*
X155956000Y-48768000D02*
X159004000Y-51816000D01*
X172212000Y-64008000D02*
X172212000Y-82296000D01*
X151130000Y-35052000D02*
X151130000Y-41910000D01*
X155956000Y-46736000D02*
X155956000Y-48768000D01*
X151130000Y-41910000D02*
X149860000Y-43180000D01*
X173736000Y-83820000D02*
X175260000Y-83820000D01*
X159004000Y-51816000D02*
X160020000Y-51816000D01*
X156972000Y-45720000D02*
X155956000Y-46736000D01*
X147320000Y-44450000D02*
X148590000Y-43180000D01*
X149352000Y-38608000D02*
X149352000Y-35560000D01*
X149352000Y-35560000D02*
X147828000Y-34036000D01*
X148590000Y-43180000D02*
X148590000Y-39370000D01*
X148590000Y-39370000D02*
X149352000Y-38608000D01*
X196845000Y-66675000D02*
X196845000Y-63515000D01*
X196215000Y-67305000D02*
X196215000Y-71745000D01*
X196845000Y-66675000D02*
X196215000Y-67305000D01*
X196215000Y-71745000D02*
X198120000Y-73650000D01*
X77470000Y-93345000D02*
X78740000Y-94615000D01*
X78740000Y-94615000D02*
X78740000Y-101600000D01*
X77470000Y-102870000D02*
X78740000Y-101600000D01*
X77470000Y-62484000D02*
X77470000Y-93345000D01*
X77470000Y-117348000D02*
X77470000Y-102870000D01*
X80010000Y-64008000D02*
X80010000Y-93345000D01*
X81280000Y-94615000D02*
X81280000Y-101600000D01*
X80010000Y-118618000D02*
X80010000Y-102870000D01*
X80010000Y-93345000D02*
X81280000Y-94615000D01*
X80010000Y-102870000D02*
X81280000Y-101600000D01*
X69215000Y-69215000D02*
X63490000Y-63490000D01*
X71120000Y-97536000D02*
X71120000Y-95504000D01*
X69596000Y-99060000D02*
X71120000Y-97536000D01*
X69215000Y-81978500D02*
X69215000Y-69215000D01*
X69215000Y-108585000D02*
X69850000Y-109220000D01*
X69596000Y-99060000D02*
X69215000Y-99441000D01*
X69215000Y-99441000D02*
X69215000Y-108585000D01*
X69850000Y-94234000D02*
X69850000Y-82613500D01*
X71120000Y-95504000D02*
X69850000Y-94234000D01*
X69850000Y-82613500D02*
X69215000Y-81978500D01*
X67945000Y-82423000D02*
X68580000Y-83058000D01*
X68580000Y-84455000D02*
X67945000Y-85090000D01*
X69088000Y-96520000D02*
X68072000Y-96520000D01*
X63480000Y-66030000D02*
X67945000Y-70495000D01*
X67945000Y-96393000D02*
X67945000Y-111125000D01*
X68580000Y-111760000D02*
X67945000Y-111125000D01*
X68072000Y-96520000D02*
X67945000Y-96393000D01*
X67945000Y-70495000D02*
X67945000Y-82423000D01*
X68580000Y-83058000D02*
X68580000Y-84455000D01*
X67945000Y-85090000D02*
X67945000Y-96393000D01*
X66675000Y-83439000D02*
X66675000Y-71765000D01*
X66802000Y-84074000D02*
X67056000Y-83820000D01*
X88900000Y-93345000D02*
X88900000Y-101600000D01*
X67056000Y-83820000D02*
X66675000Y-83439000D01*
X67056000Y-114300000D02*
X66802000Y-114046000D01*
X66675000Y-71765000D02*
X63480000Y-68570000D01*
X66802000Y-114046000D02*
X66802000Y-84074000D01*
X65278000Y-84836000D02*
X65405000Y-84963000D01*
X65405000Y-73035000D02*
X63480000Y-71110000D01*
X91440000Y-94615000D02*
X91440000Y-101600000D01*
X65278000Y-84836000D02*
X65405000Y-84709000D01*
X65405000Y-84963000D02*
X65405000Y-114935000D01*
X65405000Y-114935000D02*
X63500000Y-116840000D01*
X65405000Y-84709000D02*
X65405000Y-73035000D01*
X91440000Y-125984000D02*
X93472000Y-123952000D01*
X67564000Y-120396000D02*
X66548000Y-119380000D01*
X95250000Y-78105000D02*
X95250000Y-88265000D01*
X93980000Y-89535000D02*
X93980000Y-95250000D01*
D40*
X93980000Y-105410000D02*
X93472000Y-105918000D01*
D39*
X67564000Y-127889000D02*
X67564000Y-120396000D01*
X91440000Y-128270000D02*
X91440000Y-125984000D01*
X93980000Y-95250000D02*
X93980000Y-101600000D01*
X95250000Y-88265000D02*
X93980000Y-89535000D01*
X66548000Y-119380000D02*
X63500000Y-119380000D01*
X93980000Y-101600000D02*
X93980000Y-105410000D01*
D40*
X93472000Y-105918000D02*
X93472000Y-123952000D01*
D39*
X60960000Y-91948000D02*
X63500000Y-91948000D01*
X96520000Y-95885000D02*
X96520000Y-101600000D01*
X60452000Y-121920000D02*
X63500000Y-121920000D01*
X96520000Y-101600000D02*
X96520000Y-109728000D01*
X56388000Y-88900000D02*
X63500000Y-88900000D01*
X99060000Y-90170000D02*
X99060000Y-101600000D01*
X52832000Y-85344000D02*
X56388000Y-88900000D01*
X46736000Y-85344000D02*
X52832000Y-85344000D01*
X48240000Y-71110000D02*
X59426000Y-71110000D01*
X59426000Y-71110000D02*
X59436000Y-71120000D01*
X59436000Y-86868000D02*
X63500000Y-86868000D01*
X103632000Y-82296000D02*
X102870000Y-83058000D01*
X102870000Y-83058000D02*
X102870000Y-88265000D01*
X102870000Y-88265000D02*
X101600000Y-89535000D01*
X101600000Y-89535000D02*
X101600000Y-101600000D01*
X56388000Y-83820000D02*
X63500000Y-83820000D01*
X104140000Y-90932000D02*
X104140000Y-101600000D01*
X56388000Y-63500000D02*
X48250000Y-63500000D01*
X106680000Y-101600000D02*
X106680000Y-105410000D01*
X56896000Y-35560000D02*
X56896000Y-26416000D01*
X106680000Y-105410000D02*
X104394000Y-107696000D01*
X181356000Y-58928000D02*
X181356000Y-49276000D01*
X182357000Y-48275000D02*
X184145000Y-48275000D01*
X179324000Y-96901000D02*
X179324000Y-60960000D01*
X178435000Y-97790000D02*
X179324000Y-96901000D01*
X179324000Y-60960000D02*
X181356000Y-58928000D01*
X181356000Y-49276000D02*
X182357000Y-48275000D01*
X58420000Y-68580000D02*
X48250000Y-68580000D01*
X104394000Y-107696000D02*
X103124000Y-107696000D01*
X171196000Y-65024000D02*
X171196000Y-85344000D01*
X106680000Y-108585000D02*
X109220000Y-106045000D01*
X124460000Y-97155000D02*
X124460000Y-99695000D01*
X173482000Y-87630000D02*
X176530000Y-87630000D01*
X177292000Y-94488000D02*
X176530000Y-95250000D01*
X176530000Y-87630000D02*
X177292000Y-88392000D01*
X177292000Y-88392000D02*
X177292000Y-94488000D01*
X161285000Y-49017000D02*
X161285000Y-48275000D01*
X171196000Y-85344000D02*
X173482000Y-87630000D01*
X168402000Y-95250000D02*
X166624000Y-93472000D01*
X169672000Y-56896000D02*
X169164000Y-56896000D01*
X109220000Y-106045000D02*
X109220000Y-101600000D01*
X106680000Y-109220000D02*
X106680000Y-108585000D01*
X176530000Y-95250000D02*
X168402000Y-95250000D01*
X162560000Y-56896000D02*
X163068000Y-56896000D01*
X163068000Y-56896000D02*
X171196000Y-65024000D01*
X169164000Y-56896000D02*
X161285000Y-49017000D01*
X65532000Y-125730000D02*
X65532000Y-128143000D01*
X110490000Y-107950000D02*
X110490000Y-118110000D01*
X46228000Y-127508000D02*
X46228000Y-123952000D01*
X64770000Y-128905000D02*
X47625000Y-128905000D01*
X111760000Y-101600000D02*
X111760000Y-106680000D01*
X47625000Y-128905000D02*
X46228000Y-127508000D01*
X65532000Y-128143000D02*
X64770000Y-128905000D01*
X46228000Y-123952000D02*
X48265000Y-121915000D01*
X111760000Y-93980000D02*
X111760000Y-101600000D01*
X111760000Y-106680000D02*
X110490000Y-107950000D01*
X114300000Y-78740000D02*
X114300000Y-80264000D01*
X114300000Y-80264000D02*
X113030000Y-81534000D01*
X113030000Y-81534000D02*
X113030000Y-92710000D01*
X113030000Y-92710000D02*
X111760000Y-93980000D01*
X116840000Y-80772000D02*
X115570000Y-82042000D01*
X115570000Y-82042000D02*
X115570000Y-92710000D01*
X116840000Y-77216000D02*
X116840000Y-80772000D01*
X115570000Y-92710000D02*
X114300000Y-93980000D01*
X114300000Y-93980000D02*
X114300000Y-101600000D01*
X118110000Y-82042000D02*
X118110000Y-92710000D01*
X119380000Y-80772000D02*
X118110000Y-82042000D01*
X116840000Y-93980000D02*
X116840000Y-101600000D01*
X118110000Y-92710000D02*
X116840000Y-93980000D01*
X119380000Y-75692000D02*
X119380000Y-80772000D01*
X129545000Y-53843000D02*
X129545000Y-48275000D01*
X128016000Y-55372000D02*
X129545000Y-53843000D01*
X129286000Y-95504000D02*
X128270000Y-94488000D01*
X128016000Y-74676000D02*
X128016000Y-55372000D01*
X128270000Y-94488000D02*
X128270000Y-81026000D01*
X130556000Y-78740000D02*
X130556000Y-77216000D01*
X130556000Y-77216000D02*
X128016000Y-74676000D01*
X128270000Y-81026000D02*
X130556000Y-78740000D01*
X118110000Y-94234000D02*
X119380000Y-92964000D01*
X116205000Y-104775000D02*
X118110000Y-102870000D01*
X119380000Y-92964000D02*
X119380000Y-86360000D01*
X116205000Y-117856000D02*
X116205000Y-104775000D01*
X118110000Y-102870000D02*
X118110000Y-94234000D01*
X130810000Y-85090000D02*
X130810000Y-82550000D01*
X130556000Y-72644000D02*
X133350000Y-75438000D01*
X130810000Y-85090000D02*
X132080000Y-86360000D01*
X134620000Y-58420000D02*
X130556000Y-62484000D01*
X130556000Y-62484000D02*
X130556000Y-72644000D01*
X133350000Y-75438000D02*
X133350000Y-80010000D01*
X130810000Y-82550000D02*
X133350000Y-80010000D01*
X64506000Y-55870000D02*
X63480000Y-55870000D01*
X70485000Y-81280000D02*
X70485000Y-63881000D01*
X66040000Y-57404000D02*
X64506000Y-55870000D01*
X70612000Y-102108000D02*
X70612000Y-105156000D01*
X72136000Y-100584000D02*
X70612000Y-102108000D01*
X78740000Y-73660000D02*
X78740000Y-81915000D01*
X66040000Y-59436000D02*
X66040000Y-57404000D01*
X71120000Y-81915000D02*
X70485000Y-81280000D01*
X70485000Y-63881000D02*
X66040000Y-59436000D01*
X71120000Y-93980000D02*
X72136000Y-94996000D01*
X72136000Y-94996000D02*
X72136000Y-100584000D01*
X71120000Y-81915000D02*
X71120000Y-93980000D01*
X82550000Y-74930000D02*
X81280000Y-73660000D01*
X81280000Y-66421000D02*
X81280000Y-73660000D01*
X82550000Y-116078000D02*
X82550000Y-74930000D01*
X82550000Y-65151000D02*
X81280000Y-66421000D01*
X82550000Y-54356000D02*
X82550000Y-65151000D01*
X85090000Y-74930000D02*
X83820000Y-73660000D01*
X83820000Y-66548000D02*
X83820000Y-73660000D01*
X85090000Y-115062000D02*
X85090000Y-74930000D01*
X85090000Y-65278000D02*
X83820000Y-66548000D01*
X85090000Y-53340000D02*
X85090000Y-65278000D01*
X49784000Y-35052000D02*
X52324000Y-35052000D01*
X52324000Y-35052000D02*
X57912000Y-40640000D01*
X57912000Y-40640000D02*
X63500000Y-40640000D01*
X91440000Y-45212000D02*
X92964000Y-46736000D01*
X145796000Y-60452000D02*
X147320000Y-58928000D01*
X92964000Y-46736000D02*
X92964000Y-49784000D01*
X51308000Y-50800000D02*
X48250000Y-50800000D01*
X137668000Y-60452000D02*
X145796000Y-60452000D01*
X52832000Y-45212000D02*
X91440000Y-45212000D01*
X132080000Y-69088000D02*
X133350000Y-67818000D01*
X51308000Y-43688000D02*
X52832000Y-45212000D01*
X88900000Y-66548000D02*
X88900000Y-73660000D01*
X133350000Y-64770000D02*
X137668000Y-60452000D01*
X87630000Y-55118000D02*
X87630000Y-65278000D01*
X87630000Y-65278000D02*
X88900000Y-66548000D01*
X133350000Y-67818000D02*
X133350000Y-64770000D01*
X92964000Y-49784000D02*
X87630000Y-55118000D01*
X146812000Y-61468000D02*
X149860000Y-58420000D01*
X54356000Y-44196000D02*
X91948000Y-44196000D01*
X91440000Y-66548000D02*
X91440000Y-73660000D01*
X138938000Y-61468000D02*
X146812000Y-61468000D01*
X52324000Y-53340000D02*
X48250000Y-53340000D01*
X51816000Y-41656000D02*
X54356000Y-44196000D01*
X93980000Y-50038000D02*
X90170000Y-53848000D01*
X135890000Y-67564000D02*
X135890000Y-64516000D01*
X93980000Y-46228000D02*
X93980000Y-50038000D01*
X132334000Y-71120000D02*
X135890000Y-67564000D01*
X90170000Y-53848000D02*
X90170000Y-65278000D01*
X91948000Y-44196000D02*
X93980000Y-46228000D01*
X135890000Y-64516000D02*
X138938000Y-61468000D01*
X90170000Y-65278000D02*
X91440000Y-66548000D01*
X132080000Y-71120000D02*
X132334000Y-71120000D01*
X93980000Y-66548000D02*
X93980000Y-73660000D01*
X148336000Y-62484000D02*
X152400000Y-58420000D01*
X138430000Y-68834000D02*
X138430000Y-64516000D01*
X94996000Y-50292000D02*
X92710000Y-52578000D01*
X92710000Y-52578000D02*
X92710000Y-65278000D01*
X53340000Y-55880000D02*
X48250000Y-55880000D01*
X52324000Y-39624000D02*
X55880000Y-43180000D01*
X138430000Y-64516000D02*
X140462000Y-62484000D01*
X92710000Y-65278000D02*
X93980000Y-66548000D01*
X92456000Y-43180000D02*
X94996000Y-45720000D01*
X140462000Y-62484000D02*
X148336000Y-62484000D01*
X134620000Y-72644000D02*
X138430000Y-68834000D01*
X55880000Y-43180000D02*
X92456000Y-43180000D01*
X94996000Y-45720000D02*
X94996000Y-50292000D01*
X140970000Y-68834000D02*
X137160000Y-72644000D01*
X96520000Y-66548000D02*
X96520000Y-73660000D01*
X140970000Y-68834000D02*
X140970000Y-64262000D01*
X141732000Y-63500000D02*
X150368000Y-63500000D01*
X57404000Y-42164000D02*
X92964000Y-42164000D01*
X54346000Y-58410000D02*
X54356000Y-58420000D01*
X92964000Y-42164000D02*
X96012000Y-45212000D01*
X48240000Y-58410000D02*
X54346000Y-58410000D01*
X96012000Y-50800000D02*
X95250000Y-51562000D01*
X95250000Y-65278000D02*
X96520000Y-66548000D01*
X150368000Y-63500000D02*
X154940000Y-58928000D01*
X96012000Y-45212000D02*
X96012000Y-50800000D01*
X140970000Y-64262000D02*
X141732000Y-63500000D01*
X52832000Y-37592000D02*
X57404000Y-42164000D01*
X95250000Y-51562000D02*
X95250000Y-65278000D01*
X97790000Y-51054000D02*
X97790000Y-65278000D01*
X99060000Y-66548000D02*
X99060000Y-73660000D01*
X97790000Y-65278000D02*
X99060000Y-66548000D01*
X105156000Y-49784000D02*
X101600000Y-49784000D01*
X101600000Y-66548000D02*
X101600000Y-73660000D01*
X100330000Y-65278000D02*
X101600000Y-66548000D01*
X101600000Y-49784000D02*
X100330000Y-51054000D01*
X106680000Y-48260000D02*
X105156000Y-49784000D01*
X100330000Y-51054000D02*
X100330000Y-65278000D01*
X106680000Y-44196000D02*
X106680000Y-48260000D01*
X104394000Y-66802000D02*
X104394000Y-73406000D01*
X114300000Y-52324000D02*
X114300000Y-48260000D01*
X104140000Y-53340000D02*
X102870000Y-54610000D01*
X102870000Y-54610000D02*
X102870000Y-65278000D01*
X102870000Y-65278000D02*
X104394000Y-66802000D01*
X116840000Y-53340000D02*
X116840000Y-48260000D01*
X106680000Y-53594000D02*
X105410000Y-54864000D01*
X105410000Y-65278000D02*
X106680000Y-66548000D01*
X105410000Y-54864000D02*
X105410000Y-65278000D01*
X106680000Y-66548000D02*
X106680000Y-73660000D01*
X114300000Y-42926000D02*
X114554000Y-42926000D01*
X107950000Y-65278000D02*
X109220000Y-66548000D01*
X109220000Y-42926000D02*
X107950000Y-44196000D01*
X114554000Y-42926000D02*
X116840000Y-40640000D01*
X109220000Y-66548000D02*
X109220000Y-73660000D01*
X107950000Y-44196000D02*
X107950000Y-65278000D01*
X112014000Y-42926000D02*
X112014000Y-43942000D01*
X110490000Y-65278000D02*
X111760000Y-66548000D01*
X114300000Y-40640000D02*
X112014000Y-42926000D01*
X110490000Y-45466000D02*
X110490000Y-65278000D01*
X112014000Y-43942000D02*
X110490000Y-45466000D01*
X111760000Y-66548000D02*
X111760000Y-73660000D01*
X126746000Y-42418000D02*
X123444000Y-45720000D01*
X135636000Y-39116000D02*
X133604000Y-39116000D01*
X122428000Y-52324000D02*
X119888000Y-52324000D01*
X123444000Y-51308000D02*
X122428000Y-52324000D01*
X119888000Y-52324000D02*
X117348000Y-54864000D01*
X117348000Y-54864000D02*
X114808000Y-54864000D01*
X132842000Y-42418000D02*
X126746000Y-42418000D01*
X133350000Y-41910000D02*
X132842000Y-42418000D01*
X113030000Y-65278000D02*
X114300000Y-66548000D01*
X133604000Y-39116000D02*
X133350000Y-39370000D01*
X114300000Y-66548000D02*
X114300000Y-73660000D01*
X114808000Y-54864000D02*
X113030000Y-56642000D01*
X133350000Y-39370000D02*
X133350000Y-41910000D01*
X113030000Y-56642000D02*
X113030000Y-65278000D01*
X123444000Y-45720000D02*
X123444000Y-51308000D01*
X137165000Y-40645000D02*
X135636000Y-39116000D01*
X124460000Y-46228000D02*
X124460000Y-51816000D01*
X134625000Y-40655000D02*
X134625000Y-42667000D01*
X115570000Y-65278000D02*
X116840000Y-66548000D01*
X116840000Y-66548000D02*
X116840000Y-73660000D01*
X127254000Y-43434000D02*
X124460000Y-46228000D01*
X117856000Y-55880000D02*
X116840000Y-55880000D01*
X116840000Y-55880000D02*
X115570000Y-57150000D01*
X115570000Y-57150000D02*
X115570000Y-65278000D01*
X120396000Y-53340000D02*
X117856000Y-55880000D01*
X133858000Y-43434000D02*
X127254000Y-43434000D01*
X124460000Y-51816000D02*
X122936000Y-53340000D01*
X134625000Y-42667000D02*
X133858000Y-43434000D01*
X122936000Y-53340000D02*
X120396000Y-53340000D01*
X138430000Y-41656000D02*
X135636000Y-44450000D01*
X154432000Y-43180000D02*
X151384000Y-46228000D01*
X118872000Y-59944000D02*
X119888000Y-59944000D01*
X146050000Y-45466000D02*
X146050000Y-39624000D01*
X67564000Y-28956000D02*
X67564000Y-38100000D01*
X118110000Y-59182000D02*
X118872000Y-59944000D01*
X120650000Y-59182000D02*
X120650000Y-57658000D01*
X123190000Y-57658000D02*
X123190000Y-60706000D01*
X138430000Y-36830000D02*
X138430000Y-41656000D01*
X135636000Y-44450000D02*
X127762000Y-44450000D01*
X146812000Y-46228000D02*
X146050000Y-45466000D01*
X125476000Y-52324000D02*
X123444000Y-54356000D01*
X123190000Y-60706000D02*
X121920000Y-61976000D01*
X146050000Y-39624000D02*
X147828000Y-37846000D01*
X121920000Y-61976000D02*
X121920000Y-73660000D01*
X123444000Y-54356000D02*
X120904000Y-54356000D01*
X120650000Y-57658000D02*
X121412000Y-56896000D01*
X145796000Y-34544000D02*
X140716000Y-34544000D01*
X119888000Y-59944000D02*
X120650000Y-59182000D01*
X147828000Y-37846000D02*
X147828000Y-36576000D01*
X147828000Y-36576000D02*
X145796000Y-34544000D01*
X125476000Y-46736000D02*
X125476000Y-52324000D01*
X122428000Y-56896000D02*
X123190000Y-57658000D01*
X118110000Y-57150000D02*
X118110000Y-59182000D01*
X121412000Y-56896000D02*
X122428000Y-56896000D01*
X127762000Y-44450000D02*
X125476000Y-46736000D01*
X151384000Y-46228000D02*
X146812000Y-46228000D01*
X120904000Y-54356000D02*
X118110000Y-57150000D01*
X140716000Y-34544000D02*
X138430000Y-36830000D01*
X125984000Y-77724000D02*
X125984000Y-56388000D01*
X119380000Y-57404000D02*
X119380000Y-58420000D01*
X128270000Y-105410000D02*
X128270000Y-98806000D01*
X128270000Y-98806000D02*
X127254000Y-97790000D01*
X120015000Y-113284000D02*
X120015000Y-109220000D01*
X127254000Y-78994000D02*
X125984000Y-77724000D01*
X124968000Y-55372000D02*
X121412000Y-55372000D01*
X129857500Y-106997500D02*
X128270000Y-105410000D01*
X121412000Y-55372000D02*
X119380000Y-57404000D01*
X125984000Y-56388000D02*
X124968000Y-55372000D01*
X127254000Y-97790000D02*
X127254000Y-78994000D01*
X78740000Y-50810000D02*
X81275000Y-48275000D01*
X63500000Y-38100000D02*
X63500000Y-27940000D01*
X78740000Y-58420000D02*
X78740000Y-50810000D01*
X135890000Y-52070000D02*
X135890000Y-59690000D01*
X132080000Y-63500000D02*
X132080000Y-66040000D01*
X135890000Y-59690000D02*
X132080000Y-63500000D01*
X132095000Y-48275000D02*
X135890000Y-52070000D01*
X153924000Y-52832000D02*
X158496000Y-57404000D01*
X157480000Y-65532000D02*
X157480000Y-66548000D01*
X157480000Y-66548000D02*
X155448000Y-68580000D01*
X143002000Y-68580000D02*
X135890000Y-75692000D01*
X137160000Y-82550000D02*
X137160000Y-83820000D01*
X155956000Y-42164000D02*
X155956000Y-43688000D01*
X135857500Y-36877500D02*
X140223000Y-32512000D01*
X155956000Y-36576000D02*
X155956000Y-38608000D01*
X155956000Y-38608000D02*
X154940000Y-39624000D01*
X155956000Y-43688000D02*
X153924000Y-45720000D01*
X135890000Y-75692000D02*
X135890000Y-81280000D01*
X135890000Y-81280000D02*
X137160000Y-82550000D01*
X155448000Y-68580000D02*
X143002000Y-68580000D01*
X140223000Y-32512000D02*
X151892000Y-32512000D01*
X153924000Y-45720000D02*
X153924000Y-52832000D01*
X154940000Y-39624000D02*
X154940000Y-41148000D01*
X158496000Y-64516000D02*
X157480000Y-65532000D01*
X151892000Y-32512000D02*
X155956000Y-36576000D01*
X158496000Y-57404000D02*
X158496000Y-64516000D01*
X154940000Y-41148000D02*
X155956000Y-42164000D01*
X144780000Y-81280000D02*
X142240000Y-83820000D01*
X158242000Y-80010000D02*
X156972000Y-81280000D01*
X165100000Y-82296000D02*
X162814000Y-80010000D01*
X162814000Y-80010000D02*
X158242000Y-80010000D01*
X175260000Y-96520000D02*
X166624000Y-96520000D01*
X166624000Y-96520000D02*
X165100000Y-94996000D01*
X156972000Y-81280000D02*
X144780000Y-81280000D01*
X165100000Y-94996000D02*
X165100000Y-82296000D01*
X151384000Y-85344000D02*
X149860000Y-83820000D01*
X173228000Y-56896000D02*
X173228000Y-59944000D01*
X176530000Y-97790000D02*
X166116000Y-97790000D01*
X180340000Y-45720000D02*
X178308000Y-47752000D01*
X173228000Y-59944000D02*
X178308000Y-65024000D01*
X158750000Y-82550000D02*
X155956000Y-85344000D01*
X162306000Y-82550000D02*
X158750000Y-82550000D01*
X164084000Y-95758000D02*
X164084000Y-84328000D01*
X178308000Y-96012000D02*
X176530000Y-97790000D01*
X178308000Y-47752000D02*
X178308000Y-51816000D01*
X178308000Y-51816000D02*
X173228000Y-56896000D01*
X178308000Y-65024000D02*
X178308000Y-96012000D01*
X166116000Y-97790000D02*
X164084000Y-95758000D01*
X164084000Y-84328000D02*
X162306000Y-82550000D01*
X180340000Y-43688000D02*
X180340000Y-45720000D01*
X155956000Y-85344000D02*
X151384000Y-85344000D01*
X154940000Y-46228000D02*
X154940000Y-49276000D01*
X162286000Y-44196000D02*
X156972000Y-44196000D01*
X158496000Y-52832000D02*
X159512000Y-52832000D01*
X156972000Y-44196000D02*
X154940000Y-46228000D01*
X166365000Y-48275000D02*
X162286000Y-44196000D01*
X165100000Y-64516000D02*
X165100000Y-71120000D01*
X161036000Y-54356000D02*
X161036000Y-60452000D01*
X159512000Y-52832000D02*
X161036000Y-54356000D01*
X154940000Y-49276000D02*
X158496000Y-52832000D01*
X161036000Y-60452000D02*
X165100000Y-64516000D01*
X67056000Y-58928000D02*
X67056000Y-56388000D01*
X67056000Y-56388000D02*
X65278000Y-54610000D01*
X72390000Y-80010000D02*
X72390000Y-64262000D01*
X72390000Y-64262000D02*
X67056000Y-58928000D01*
X65278000Y-54610000D02*
X60960000Y-54610000D01*
X73025000Y-80645000D02*
X72390000Y-80010000D01*
X167132000Y-86868000D02*
X167132000Y-78486000D01*
X146050000Y-72390000D02*
X142240000Y-76200000D01*
X169164000Y-88900000D02*
X167132000Y-86868000D01*
X161036000Y-72390000D02*
X146050000Y-72390000D01*
X167132000Y-78486000D02*
X161036000Y-72390000D01*
X175260000Y-88900000D02*
X169164000Y-88900000D01*
X154940000Y-78232000D02*
X139192000Y-78232000D01*
X161290000Y-74930000D02*
X158242000Y-74930000D01*
X158242000Y-74930000D02*
X154940000Y-78232000D01*
X139192000Y-78232000D02*
X137160000Y-76200000D01*
X168148000Y-91440000D02*
X166116000Y-89408000D01*
X166116000Y-89408000D02*
X166116000Y-79756000D01*
X175260000Y-91440000D02*
X168148000Y-91440000D01*
X166116000Y-79756000D02*
X161290000Y-74930000D01*
X138684000Y-103124000D02*
X143002000Y-103124000D01*
X156972000Y-93980000D02*
X160020000Y-93980000D01*
X152146000Y-98806000D02*
X156972000Y-93980000D01*
X143510000Y-102616000D02*
X143510000Y-100203000D01*
X144907000Y-98806000D02*
X152146000Y-98806000D01*
X137160000Y-101600000D02*
X138684000Y-103124000D01*
X143510000Y-100203000D02*
X144907000Y-98806000D01*
X143002000Y-103124000D02*
X143510000Y-102616000D01*
X142240000Y-99568000D02*
X144018000Y-97790000D01*
X142240000Y-101600000D02*
X142240000Y-99568000D01*
X153670000Y-95504000D02*
X153670000Y-92710000D01*
X151384000Y-97790000D02*
X153670000Y-95504000D01*
X144018000Y-97790000D02*
X151384000Y-97790000D01*
X154940000Y-91440000D02*
X160020000Y-91440000D01*
X153670000Y-92710000D02*
X154940000Y-91440000D01*
X152400000Y-100076000D02*
X148844000Y-100076000D01*
X148844000Y-100076000D02*
X147320000Y-101600000D01*
X162052000Y-90932000D02*
X162052000Y-94488000D01*
X161290000Y-95250000D02*
X157226000Y-95250000D01*
X160020000Y-88900000D02*
X162052000Y-90932000D01*
X162052000Y-94488000D02*
X161290000Y-95250000D01*
X157226000Y-95250000D02*
X152400000Y-100076000D01*
X161290000Y-97790000D02*
X156210000Y-97790000D01*
X156210000Y-97790000D02*
X152400000Y-101600000D01*
X160020000Y-86360000D02*
X163068000Y-89408000D01*
X163068000Y-96012000D02*
X161290000Y-97790000D01*
X163068000Y-89408000D02*
X163068000Y-96012000D01*
X159004000Y-83820000D02*
X160020000Y-83820000D01*
X156464000Y-86360000D02*
X159004000Y-83820000D01*
X152400000Y-93980000D02*
X152400000Y-87884000D01*
X152400000Y-87884000D02*
X153924000Y-86360000D01*
X153924000Y-86360000D02*
X156464000Y-86360000D01*
X148590000Y-83058000D02*
X148590000Y-92710000D01*
X157480000Y-82296000D02*
X149352000Y-82296000D01*
X158496000Y-81280000D02*
X157480000Y-82296000D01*
X149352000Y-82296000D02*
X148590000Y-83058000D01*
X148590000Y-92710000D02*
X147320000Y-93980000D01*
X160020000Y-81280000D02*
X158496000Y-81280000D01*
X140970000Y-92710000D02*
X142240000Y-93980000D01*
X156305250Y-80264000D02*
X143510000Y-80264000D01*
X157829250Y-78740000D02*
X156305250Y-80264000D01*
X140970000Y-82804000D02*
X140970000Y-92710000D01*
X160020000Y-78740000D02*
X157829250Y-78740000D01*
X143510000Y-80264000D02*
X140970000Y-82804000D01*
X138430000Y-82804000D02*
X138430000Y-92710000D01*
X155702000Y-79248000D02*
X141986000Y-79248000D01*
X158496000Y-77724000D02*
X157226000Y-77724000D01*
X160020000Y-76200000D02*
X158496000Y-77724000D01*
X141986000Y-79248000D02*
X138430000Y-82804000D01*
X138430000Y-92710000D02*
X137160000Y-93980000D01*
X157226000Y-77724000D02*
X155702000Y-79248000D01*
X110490000Y-39370000D02*
X110490000Y-43815000D01*
X107696000Y-36576000D02*
X110490000Y-39370000D01*
X107696000Y-30226000D02*
X107696000Y-36576000D01*
X195580000Y-64516000D02*
X195580000Y-62484000D01*
X189225000Y-64765000D02*
X189484000Y-65024000D01*
X189484000Y-65024000D02*
X195072000Y-65024000D01*
X189225000Y-63515000D02*
X189225000Y-64765000D01*
X123952000Y-27686000D02*
X123952000Y-29972000D01*
X188722000Y-26162000D02*
X193040000Y-30480000D01*
X109220000Y-45085000D02*
X109220000Y-48260000D01*
D40*
X125476000Y-26162000D02*
X188722000Y-26162000D01*
D39*
X110490000Y-43815000D02*
X109220000Y-45085000D01*
X193040000Y-59944000D02*
X195580000Y-62484000D01*
X193040000Y-30480000D02*
X193040000Y-59944000D01*
X195072000Y-65024000D02*
X195580000Y-64516000D01*
X125476000Y-26162000D02*
X123952000Y-27686000D01*
X125476000Y-30480000D02*
X123444000Y-32512000D01*
X114808000Y-45212000D02*
X111760000Y-48260000D01*
X192024000Y-30988000D02*
X192024000Y-38100000D01*
X190500000Y-59710000D02*
X194305000Y-63515000D01*
X190500000Y-39624000D02*
X190500000Y-59710000D01*
X123444000Y-32512000D02*
X123444000Y-42672000D01*
D40*
X187960000Y-26924000D02*
X126492000Y-26924000D01*
D39*
X123444000Y-42672000D02*
X120904000Y-45212000D01*
X120904000Y-45212000D02*
X114808000Y-45212000D01*
X187960000Y-26924000D02*
X192024000Y-30988000D01*
X126492000Y-26924000D02*
X125476000Y-27940000D01*
X192024000Y-38100000D02*
X190500000Y-39624000D01*
X125476000Y-27940000D02*
X125476000Y-30480000D01*
X124460000Y-33655000D02*
X126492000Y-31623000D01*
X187960000Y-54620000D02*
X186685000Y-55895000D01*
X126492000Y-28702000D02*
X127508000Y-27686000D01*
X119380000Y-48260000D02*
X124460000Y-43180000D01*
X191008000Y-36576000D02*
X187960000Y-39624000D01*
X191008000Y-31496000D02*
X191008000Y-36576000D01*
D40*
X127508000Y-27686000D02*
X187198000Y-27686000D01*
D39*
X126492000Y-31623000D02*
X126492000Y-28702000D01*
X187198000Y-27686000D02*
X191008000Y-31496000D01*
X187960000Y-39624000D02*
X187960000Y-54620000D01*
X124460000Y-43180000D02*
X124460000Y-33655000D01*
X160528000Y-42164000D02*
X156972000Y-38608000D01*
X136652000Y-34544000D02*
X134620000Y-34544000D01*
X156972000Y-38608000D02*
X156972000Y-35560000D01*
X156972000Y-35560000D02*
X152908000Y-31496000D01*
X176525000Y-40655000D02*
X175016000Y-42164000D01*
X152908000Y-31496000D02*
X139700000Y-31496000D01*
X134620000Y-34544000D02*
X132588000Y-36576000D01*
X175016000Y-42164000D02*
X160528000Y-42164000D01*
X139700000Y-31496000D02*
X136652000Y-34544000D01*
X194056000Y-29972000D02*
X189484000Y-25400000D01*
X122428000Y-37592000D02*
X122428000Y-26924000D01*
D40*
X189484000Y-25400000D02*
X123952000Y-25400000D01*
D39*
X195580000Y-39624000D02*
X194056000Y-38100000D01*
X195580000Y-52324000D02*
X195580000Y-39624000D01*
X119380000Y-40640000D02*
X122428000Y-37592000D01*
X122428000Y-26924000D02*
X123952000Y-25400000D01*
X194056000Y-38100000D02*
X194056000Y-29972000D01*
X173228000Y-62992000D02*
X173228000Y-78232000D01*
X160020000Y-50800000D02*
X161036000Y-50800000D01*
X173736000Y-78740000D02*
X175260000Y-78740000D01*
X161036000Y-50800000D02*
X173228000Y-62992000D01*
X158496000Y-49276000D02*
X160020000Y-50800000D01*
X173228000Y-78232000D02*
X173736000Y-78740000D01*
X167640000Y-53340000D02*
X163825000Y-49525000D01*
X163825000Y-49525000D02*
X163825000Y-48275000D01*
X65532000Y-28956000D02*
X65532000Y-37084000D01*
X61468000Y-27940000D02*
X61468000Y-35560000D01*
X189225000Y-43180000D02*
X189225000Y-48275000D01*
X198120000Y-38608000D02*
X198120000Y-45212000D01*
X196845000Y-46487000D02*
X196845000Y-48275000D01*
X198120000Y-45212000D02*
X196845000Y-46487000D01*
X70167500Y-129540000D02*
X73025000Y-129540000D01*
X65405000Y-134302500D02*
X70167500Y-129540000D01*
X64008000Y-137668000D02*
X51649000Y-137668000D01*
X48250000Y-76190000D02*
X45720000Y-73660000D01*
X64008000Y-137668000D02*
X65405000Y-136271000D01*
X50633000Y-133818000D02*
X45212000Y-128397000D01*
X50633000Y-136652000D02*
X50633000Y-133818000D01*
X51649000Y-137668000D02*
X50633000Y-136652000D01*
X45212000Y-128397000D02*
X45212000Y-120396000D01*
X76195000Y-126360000D02*
X76195000Y-120665000D01*
X65405000Y-136271000D02*
X65405000Y-134302500D01*
X45212000Y-120396000D02*
X45720000Y-119888000D01*
X73025000Y-129530000D02*
X76195000Y-126360000D01*
X73025000Y-129540000D02*
X73025000Y-129530000D01*
X81275000Y-118125000D02*
X83815000Y-120665000D01*
X81275000Y-113045000D02*
X81275000Y-118125000D01*
X159004000Y-43180000D02*
X173990000Y-43180000D01*
X177165000Y-99695000D02*
X179070000Y-99695000D01*
X179070000Y-99695000D02*
X180340000Y-98425000D01*
X173990000Y-43180000D02*
X175260000Y-44450000D01*
X156464000Y-40640000D02*
X159004000Y-43180000D01*
X182372000Y-50800000D02*
X182880000Y-50292000D01*
X169545000Y-99060000D02*
X171450000Y-100965000D01*
X175895000Y-100965000D02*
X177165000Y-99695000D01*
X180340000Y-98425000D02*
X180340000Y-61468000D01*
X182372000Y-59436000D02*
X182372000Y-50800000D01*
X180340000Y-61468000D02*
X182372000Y-59436000D01*
X171450000Y-100965000D02*
X175895000Y-100965000D01*
X160020000Y-99060000D02*
X169545000Y-99060000D01*
X172212000Y-60452000D02*
X172212000Y-55880000D01*
X175260000Y-46736000D02*
X176720500Y-45275500D01*
X178308000Y-41402000D02*
X178308000Y-28956000D01*
X177292000Y-65532000D02*
X172212000Y-60452000D01*
X58928000Y-26416000D02*
X58928000Y-35560000D01*
X176720500Y-42989500D02*
X178308000Y-41402000D01*
X175260000Y-52832000D02*
X175260000Y-46736000D01*
X176720500Y-45275500D02*
X176720500Y-42989500D01*
X177292000Y-84328000D02*
X177292000Y-65532000D01*
X175260000Y-86360000D02*
X177292000Y-84328000D01*
X172212000Y-55880000D02*
X175260000Y-52832000D01*
X191770000Y-71110000D02*
X191770000Y-68570000D01*
X194564000Y-73279000D02*
X197485000Y-76200000D01*
X188976000Y-66040000D02*
X191135000Y-66040000D01*
X191135000Y-66040000D02*
X194564000Y-69469000D01*
X187960000Y-65024000D02*
X188976000Y-66040000D01*
X189225000Y-58679000D02*
X187960000Y-59944000D01*
X187960000Y-59944000D02*
X187960000Y-65024000D01*
X194564000Y-69469000D02*
X194564000Y-73279000D01*
X189225000Y-55895000D02*
X189225000Y-58679000D01*
X197485000Y-76200000D02*
X197485000Y-77470000D01*
D38*
X191135000Y-125730000D02*
X195580000Y-125730000D01*
X196850000Y-127000000D02*
X199390000Y-127000000D01*
X195580000Y-125730000D02*
X196850000Y-127000000D01*
X173355000Y-113665000D02*
X172720000Y-114300000D01*
X187960000Y-85344000D02*
X187960000Y-86360000D01*
X172125000Y-119380000D02*
X173355000Y-119380000D01*
X180975000Y-113665000D02*
X173355000Y-113665000D01*
X172720000Y-114300000D02*
X172720000Y-111323000D01*
X173355000Y-119380000D02*
X174625000Y-118110000D01*
X174625000Y-118110000D02*
X174625000Y-116205000D01*
X187960000Y-86360000D02*
X185420000Y-88900000D01*
X185420000Y-88900000D02*
X185420000Y-92710000D01*
X174625000Y-116205000D02*
X172720000Y-114300000D01*
X185420000Y-109220000D02*
X180975000Y-113665000D01*
M02*
