G04 #@! TF.GenerationSoftware,KiCad,Pcbnew,6.0.10-86aedd382b~118~ubuntu18.04.1*
G04 #@! TF.CreationDate,2023-11-20T15:15:36+00:00*
G04 #@! TF.ProjectId,micron_plus,6d696372-6f6e-45f7-906c-75732e6b6963,rev?*
G04 #@! TF.SameCoordinates,Original*
G04 #@! TF.FileFunction,Legend,Bot*
G04 #@! TF.FilePolarity,Positive*
%FSLAX46Y46*%
G04 Gerber Fmt 4.6, Leading zero omitted, Abs format (unit mm)*
G04 Created by KiCad (PCBNEW 6.0.10-86aedd382b~118~ubuntu18.04.1) date 2023-11-20 15:15:36*
%MOMM*%
%LPD*%
G01*
G04 APERTURE LIST*
G04 Aperture macros list*
%AMRoundRect*
0 Rectangle with rounded corners*
0 $1 Rounding radius*
0 $2 $3 $4 $5 $6 $7 $8 $9 X,Y pos of 4 corners*
0 Add a 4 corners polygon primitive as box body*
4,1,4,$2,$3,$4,$5,$6,$7,$8,$9,$2,$3,0*
0 Add four circle primitives for the rounded corners*
1,1,$1+$1,$2,$3*
1,1,$1+$1,$4,$5*
1,1,$1+$1,$6,$7*
1,1,$1+$1,$8,$9*
0 Add four rect primitives between the rounded corners*
20,1,$1+$1,$2,$3,$4,$5,0*
20,1,$1+$1,$4,$5,$6,$7,0*
20,1,$1+$1,$6,$7,$8,$9,0*
20,1,$1+$1,$8,$9,$2,$3,0*%
G04 Aperture macros list end*
%ADD10C,0.200000*%
%ADD11C,0.150000*%
%ADD12C,0.120000*%
%ADD13RoundRect,0.050000X-0.700000X0.700000X-0.700000X-0.700000X0.700000X-0.700000X0.700000X0.700000X0*%
%ADD14C,1.500000*%
%ADD15C,1.540000*%
%ADD16RoundRect,0.050000X0.800000X-0.800000X0.800000X0.800000X-0.800000X0.800000X-0.800000X-0.800000X0*%
%ADD17C,1.700000*%
%ADD18RoundRect,0.050000X-0.800000X0.800000X-0.800000X-0.800000X0.800000X-0.800000X0.800000X0.800000X0*%
%ADD19O,1.700000X1.700000*%
%ADD20RoundRect,0.050000X0.800000X0.800000X-0.800000X0.800000X-0.800000X-0.800000X0.800000X-0.800000X0*%
%ADD21C,3.300000*%
%ADD22RoundRect,0.050000X-1.100000X-1.100000X1.100000X-1.100000X1.100000X1.100000X-1.100000X1.100000X0*%
%ADD23O,2.300000X2.300000*%
%ADD24RoundRect,0.952000X-1.300000X0.000000X1.300000X0.000000X1.300000X0.000000X-1.300000X0.000000X0*%
%ADD25RoundRect,0.952000X0.000000X-1.300000X0.000000X1.300000X0.000000X1.300000X0.000000X-1.300000X0*%
%ADD26RoundRect,0.952000X1.300000X0.000000X-1.300000X0.000000X-1.300000X0.000000X1.300000X0.000000X0*%
%ADD27O,1.300000X1.700000*%
%ADD28O,1.300000X1.300000*%
%ADD29RoundRect,0.050000X0.952500X1.000000X-0.952500X1.000000X-0.952500X-1.000000X0.952500X-1.000000X0*%
%ADD30O,2.005000X2.100000*%
%ADD31RoundRect,0.050000X0.750000X-0.750000X0.750000X0.750000X-0.750000X0.750000X-0.750000X-0.750000X0*%
%ADD32C,1.600000*%
%ADD33RoundRect,0.300000X0.600000X-0.600000X0.600000X0.600000X-0.600000X0.600000X-0.600000X-0.600000X0*%
%ADD34C,1.800000*%
%ADD35RoundRect,0.050000X-0.800000X-0.800000X0.800000X-0.800000X0.800000X0.800000X-0.800000X0.800000X0*%
%ADD36RoundRect,0.050000X-0.750000X0.750000X-0.750000X-0.750000X0.750000X-0.750000X0.750000X0.750000X0*%
%ADD37RoundRect,0.050000X-1.000000X0.952500X-1.000000X-0.952500X1.000000X-0.952500X1.000000X0.952500X0*%
%ADD38O,2.100000X2.005000*%
%ADD39C,6.100000*%
%ADD40C,2.500000*%
%ADD41RoundRect,0.050000X-0.900000X-0.900000X0.900000X-0.900000X0.900000X0.900000X-0.900000X0.900000X0*%
%ADD42C,1.900000*%
%ADD43RoundRect,0.050000X-1.200000X-0.800000X1.200000X-0.800000X1.200000X0.800000X-1.200000X0.800000X0*%
%ADD44O,2.500000X1.700000*%
G04 APERTURE END LIST*
D10*
X121128571Y-64153928D02*
X121057142Y-64082500D01*
X120914285Y-64011071D01*
X120557142Y-64011071D01*
X120414285Y-64082500D01*
X120342857Y-64153928D01*
X120271428Y-64296785D01*
X120271428Y-64439642D01*
X120342857Y-64653928D01*
X121200000Y-65511071D01*
X120271428Y-65511071D01*
X118914285Y-64011071D02*
X119628571Y-64011071D01*
X119700000Y-64725357D01*
X119628571Y-64653928D01*
X119485714Y-64582500D01*
X119128571Y-64582500D01*
X118985714Y-64653928D01*
X118914285Y-64725357D01*
X118842857Y-64868214D01*
X118842857Y-65225357D01*
X118914285Y-65368214D01*
X118985714Y-65439642D01*
X119128571Y-65511071D01*
X119485714Y-65511071D01*
X119628571Y-65439642D01*
X119700000Y-65368214D01*
X118342857Y-64011071D02*
X117414285Y-64011071D01*
X117914285Y-64582500D01*
X117700000Y-64582500D01*
X117557142Y-64653928D01*
X117485714Y-64725357D01*
X117414285Y-64868214D01*
X117414285Y-65225357D01*
X117485714Y-65368214D01*
X117557142Y-65439642D01*
X117700000Y-65511071D01*
X118128571Y-65511071D01*
X118271428Y-65439642D01*
X118342857Y-65368214D01*
X116842857Y-64153928D02*
X116771428Y-64082500D01*
X116628571Y-64011071D01*
X116271428Y-64011071D01*
X116128571Y-64082500D01*
X116057142Y-64153928D01*
X115985714Y-64296785D01*
X115985714Y-64439642D01*
X116057142Y-64653928D01*
X116914285Y-65511071D01*
X115985714Y-65511071D01*
X122557142Y-66568928D02*
X122485714Y-66497500D01*
X122342857Y-66426071D01*
X121985714Y-66426071D01*
X121842857Y-66497500D01*
X121771428Y-66568928D01*
X121700000Y-66711785D01*
X121700000Y-66854642D01*
X121771428Y-67068928D01*
X122628571Y-67926071D01*
X121700000Y-67926071D01*
X121200000Y-66426071D02*
X120200000Y-66426071D01*
X120842857Y-67926071D01*
X118842857Y-67926071D02*
X119700000Y-67926071D01*
X119271428Y-67926071D02*
X119271428Y-66426071D01*
X119414285Y-66640357D01*
X119557142Y-66783214D01*
X119700000Y-66854642D01*
X118271428Y-66568928D02*
X118200000Y-66497500D01*
X118057142Y-66426071D01*
X117700000Y-66426071D01*
X117557142Y-66497500D01*
X117485714Y-66568928D01*
X117414285Y-66711785D01*
X117414285Y-66854642D01*
X117485714Y-67068928D01*
X118342857Y-67926071D01*
X117414285Y-67926071D01*
X116557142Y-67068928D02*
X116700000Y-66997500D01*
X116771428Y-66926071D01*
X116842857Y-66783214D01*
X116842857Y-66711785D01*
X116771428Y-66568928D01*
X116700000Y-66497500D01*
X116557142Y-66426071D01*
X116271428Y-66426071D01*
X116128571Y-66497500D01*
X116057142Y-66568928D01*
X115985714Y-66711785D01*
X115985714Y-66783214D01*
X116057142Y-66926071D01*
X116128571Y-66997500D01*
X116271428Y-67068928D01*
X116557142Y-67068928D01*
X116700000Y-67140357D01*
X116771428Y-67211785D01*
X116842857Y-67354642D01*
X116842857Y-67640357D01*
X116771428Y-67783214D01*
X116700000Y-67854642D01*
X116557142Y-67926071D01*
X116271428Y-67926071D01*
X116128571Y-67854642D01*
X116057142Y-67783214D01*
X115985714Y-67640357D01*
X115985714Y-67354642D01*
X116057142Y-67211785D01*
X116128571Y-67140357D01*
X116271428Y-67068928D01*
X122067857Y-62273571D02*
X122067857Y-60773571D01*
X121710714Y-60773571D01*
X121496428Y-60845000D01*
X121353571Y-60987857D01*
X121282142Y-61130714D01*
X121210714Y-61416428D01*
X121210714Y-61630714D01*
X121282142Y-61916428D01*
X121353571Y-62059285D01*
X121496428Y-62202142D01*
X121710714Y-62273571D01*
X122067857Y-62273571D01*
X119996428Y-62202142D02*
X120139285Y-62273571D01*
X120425000Y-62273571D01*
X120567857Y-62202142D01*
X120639285Y-62059285D01*
X120639285Y-61487857D01*
X120567857Y-61345000D01*
X120425000Y-61273571D01*
X120139285Y-61273571D01*
X119996428Y-61345000D01*
X119925000Y-61487857D01*
X119925000Y-61630714D01*
X120639285Y-61773571D01*
X119425000Y-61273571D02*
X119067857Y-62273571D01*
X118710714Y-61273571D01*
X118139285Y-62273571D02*
X118139285Y-61273571D01*
X118139285Y-60773571D02*
X118210714Y-60845000D01*
X118139285Y-60916428D01*
X118067857Y-60845000D01*
X118139285Y-60773571D01*
X118139285Y-60916428D01*
X116782142Y-62202142D02*
X116925000Y-62273571D01*
X117210714Y-62273571D01*
X117353571Y-62202142D01*
X117425000Y-62130714D01*
X117496428Y-61987857D01*
X117496428Y-61559285D01*
X117425000Y-61416428D01*
X117353571Y-61345000D01*
X117210714Y-61273571D01*
X116925000Y-61273571D01*
X116782142Y-61345000D01*
X115567857Y-62202142D02*
X115710714Y-62273571D01*
X115996428Y-62273571D01*
X116139285Y-62202142D01*
X116210714Y-62059285D01*
X116210714Y-61487857D01*
X116139285Y-61345000D01*
X115996428Y-61273571D01*
X115710714Y-61273571D01*
X115567857Y-61345000D01*
X115496428Y-61487857D01*
X115496428Y-61630714D01*
X116210714Y-61773571D01*
X113782142Y-62202142D02*
X113567857Y-62273571D01*
X113210714Y-62273571D01*
X113067857Y-62202142D01*
X112996428Y-62130714D01*
X112925000Y-61987857D01*
X112925000Y-61845000D01*
X112996428Y-61702142D01*
X113067857Y-61630714D01*
X113210714Y-61559285D01*
X113496428Y-61487857D01*
X113639285Y-61416428D01*
X113710714Y-61345000D01*
X113782142Y-61202142D01*
X113782142Y-61059285D01*
X113710714Y-60916428D01*
X113639285Y-60845000D01*
X113496428Y-60773571D01*
X113139285Y-60773571D01*
X112925000Y-60845000D01*
X111639285Y-61273571D02*
X111639285Y-62273571D01*
X112282142Y-61273571D02*
X112282142Y-62059285D01*
X112210714Y-62202142D01*
X112067857Y-62273571D01*
X111853571Y-62273571D01*
X111710714Y-62202142D01*
X111639285Y-62130714D01*
X110925000Y-61273571D02*
X110925000Y-62773571D01*
X110925000Y-61345000D02*
X110782142Y-61273571D01*
X110496428Y-61273571D01*
X110353571Y-61345000D01*
X110282142Y-61416428D01*
X110210714Y-61559285D01*
X110210714Y-61987857D01*
X110282142Y-62130714D01*
X110353571Y-62202142D01*
X110496428Y-62273571D01*
X110782142Y-62273571D01*
X110925000Y-62202142D01*
X109567857Y-61273571D02*
X109567857Y-62773571D01*
X109567857Y-61345000D02*
X109425000Y-61273571D01*
X109139285Y-61273571D01*
X108996428Y-61345000D01*
X108925000Y-61416428D01*
X108853571Y-61559285D01*
X108853571Y-61987857D01*
X108925000Y-62130714D01*
X108996428Y-62202142D01*
X109139285Y-62273571D01*
X109425000Y-62273571D01*
X109567857Y-62202142D01*
X107996428Y-62273571D02*
X108139285Y-62202142D01*
X108210714Y-62130714D01*
X108282142Y-61987857D01*
X108282142Y-61559285D01*
X108210714Y-61416428D01*
X108139285Y-61345000D01*
X107996428Y-61273571D01*
X107782142Y-61273571D01*
X107639285Y-61345000D01*
X107567857Y-61416428D01*
X107496428Y-61559285D01*
X107496428Y-61987857D01*
X107567857Y-62130714D01*
X107639285Y-62202142D01*
X107782142Y-62273571D01*
X107996428Y-62273571D01*
X106853571Y-62273571D02*
X106853571Y-61273571D01*
X106853571Y-61559285D02*
X106782142Y-61416428D01*
X106710714Y-61345000D01*
X106567857Y-61273571D01*
X106425000Y-61273571D01*
X106139285Y-61273571D02*
X105567857Y-61273571D01*
X105925000Y-60773571D02*
X105925000Y-62059285D01*
X105853571Y-62202142D01*
X105710714Y-62273571D01*
X105567857Y-62273571D01*
X105067857Y-62130714D02*
X104996428Y-62202142D01*
X105067857Y-62273571D01*
X105139285Y-62202142D01*
X105067857Y-62130714D01*
X105067857Y-62273571D01*
X105067857Y-61345000D02*
X104996428Y-61416428D01*
X105067857Y-61487857D01*
X105139285Y-61416428D01*
X105067857Y-61345000D01*
X105067857Y-61487857D01*
X122282142Y-69663571D02*
X121782142Y-71163571D01*
X121282142Y-69663571D01*
X120782142Y-71163571D02*
X120782142Y-69663571D01*
X120210714Y-69663571D01*
X120067857Y-69735000D01*
X119996428Y-69806428D01*
X119925000Y-69949285D01*
X119925000Y-70163571D01*
X119996428Y-70306428D01*
X120067857Y-70377857D01*
X120210714Y-70449285D01*
X120782142Y-70449285D01*
X119282142Y-71163571D02*
X119282142Y-69663571D01*
X118710714Y-69663571D01*
X118567857Y-69735000D01*
X118496428Y-69806428D01*
X118425000Y-69949285D01*
X118425000Y-70163571D01*
X118496428Y-70306428D01*
X118567857Y-70377857D01*
X118710714Y-70449285D01*
X119282142Y-70449285D01*
X117782142Y-71020714D02*
X117710714Y-71092142D01*
X117782142Y-71163571D01*
X117853571Y-71092142D01*
X117782142Y-71020714D01*
X117782142Y-71163571D01*
X117782142Y-70235000D02*
X117710714Y-70306428D01*
X117782142Y-70377857D01*
X117853571Y-70306428D01*
X117782142Y-70235000D01*
X117782142Y-70377857D01*
X115139285Y-71163571D02*
X115996428Y-71163571D01*
X115567857Y-71163571D02*
X115567857Y-69663571D01*
X115710714Y-69877857D01*
X115853571Y-70020714D01*
X115996428Y-70092142D01*
X114567857Y-69806428D02*
X114496428Y-69735000D01*
X114353571Y-69663571D01*
X113996428Y-69663571D01*
X113853571Y-69735000D01*
X113782142Y-69806428D01*
X113710714Y-69949285D01*
X113710714Y-70092142D01*
X113782142Y-70306428D01*
X114639285Y-71163571D01*
X113710714Y-71163571D01*
X113067857Y-71020714D02*
X112996428Y-71092142D01*
X113067857Y-71163571D01*
X113139285Y-71092142D01*
X113067857Y-71020714D01*
X113067857Y-71163571D01*
X111639285Y-69663571D02*
X112353571Y-69663571D01*
X112425000Y-70377857D01*
X112353571Y-70306428D01*
X112210714Y-70235000D01*
X111853571Y-70235000D01*
X111710714Y-70306428D01*
X111639285Y-70377857D01*
X111567857Y-70520714D01*
X111567857Y-70877857D01*
X111639285Y-71020714D01*
X111710714Y-71092142D01*
X111853571Y-71163571D01*
X112210714Y-71163571D01*
X112353571Y-71092142D01*
X112425000Y-71020714D01*
X111139285Y-69663571D02*
X110639285Y-71163571D01*
X110139285Y-69663571D01*
X107425000Y-69592142D02*
X108710714Y-71520714D01*
X105853571Y-69806428D02*
X105782142Y-69735000D01*
X105639285Y-69663571D01*
X105282142Y-69663571D01*
X105139285Y-69735000D01*
X105067857Y-69806428D01*
X104996428Y-69949285D01*
X104996428Y-70092142D01*
X105067857Y-70306428D01*
X105925000Y-71163571D01*
X104996428Y-71163571D01*
X103567857Y-71163571D02*
X104425000Y-71163571D01*
X103996428Y-71163571D02*
X103996428Y-69663571D01*
X104139285Y-69877857D01*
X104282142Y-70020714D01*
X104425000Y-70092142D01*
X103139285Y-69663571D02*
X102639285Y-71163571D01*
X102139285Y-69663571D01*
X99425000Y-69592142D02*
X100710714Y-71520714D01*
X97853571Y-69806428D02*
X97782142Y-69735000D01*
X97639285Y-69663571D01*
X97282142Y-69663571D01*
X97139285Y-69735000D01*
X97067857Y-69806428D01*
X96996428Y-69949285D01*
X96996428Y-70092142D01*
X97067857Y-70306428D01*
X97925000Y-71163571D01*
X96996428Y-71163571D01*
X95639285Y-69663571D02*
X96353571Y-69663571D01*
X96425000Y-70377857D01*
X96353571Y-70306428D01*
X96210714Y-70235000D01*
X95853571Y-70235000D01*
X95710714Y-70306428D01*
X95639285Y-70377857D01*
X95567857Y-70520714D01*
X95567857Y-70877857D01*
X95639285Y-71020714D01*
X95710714Y-71092142D01*
X95853571Y-71163571D01*
X96210714Y-71163571D01*
X96353571Y-71092142D01*
X96425000Y-71020714D01*
X95139285Y-69663571D02*
X94639285Y-71163571D01*
X94139285Y-69663571D01*
X93567857Y-71092142D02*
X93567857Y-71163571D01*
X93639285Y-71306428D01*
X93710714Y-71377857D01*
X93639285Y-70235000D02*
X93567857Y-70306428D01*
X93639285Y-70377857D01*
X93710714Y-70306428D01*
X93639285Y-70235000D01*
X93639285Y-70377857D01*
X91996428Y-69663571D02*
X91496428Y-71163571D01*
X90996428Y-69663571D01*
X89639285Y-71020714D02*
X89710714Y-71092142D01*
X89925000Y-71163571D01*
X90067857Y-71163571D01*
X90282142Y-71092142D01*
X90425000Y-70949285D01*
X90496428Y-70806428D01*
X90567857Y-70520714D01*
X90567857Y-70306428D01*
X90496428Y-70020714D01*
X90425000Y-69877857D01*
X90282142Y-69735000D01*
X90067857Y-69663571D01*
X89925000Y-69663571D01*
X89710714Y-69735000D01*
X89639285Y-69806428D01*
X88139285Y-71020714D02*
X88210714Y-71092142D01*
X88425000Y-71163571D01*
X88567857Y-71163571D01*
X88782142Y-71092142D01*
X88925000Y-70949285D01*
X88996428Y-70806428D01*
X89067857Y-70520714D01*
X89067857Y-70306428D01*
X88996428Y-70020714D01*
X88925000Y-69877857D01*
X88782142Y-69735000D01*
X88567857Y-69663571D01*
X88425000Y-69663571D01*
X88210714Y-69735000D01*
X88139285Y-69806428D01*
X87496428Y-71020714D02*
X87425000Y-71092142D01*
X87496428Y-71163571D01*
X87567857Y-71092142D01*
X87496428Y-71020714D01*
X87496428Y-71163571D01*
X87496428Y-70235000D02*
X87425000Y-70306428D01*
X87496428Y-70377857D01*
X87567857Y-70306428D01*
X87496428Y-70235000D01*
X87496428Y-70377857D01*
X84925000Y-69663571D02*
X85639285Y-69663571D01*
X85710714Y-70377857D01*
X85639285Y-70306428D01*
X85496428Y-70235000D01*
X85139285Y-70235000D01*
X84996428Y-70306428D01*
X84925000Y-70377857D01*
X84853571Y-70520714D01*
X84853571Y-70877857D01*
X84925000Y-71020714D01*
X84996428Y-71092142D01*
X85139285Y-71163571D01*
X85496428Y-71163571D01*
X85639285Y-71092142D01*
X85710714Y-71020714D01*
X84210714Y-71020714D02*
X84139285Y-71092142D01*
X84210714Y-71163571D01*
X84282142Y-71092142D01*
X84210714Y-71020714D01*
X84210714Y-71163571D01*
X83210714Y-69663571D02*
X83067857Y-69663571D01*
X82925000Y-69735000D01*
X82853571Y-69806428D01*
X82782142Y-69949285D01*
X82710714Y-70235000D01*
X82710714Y-70592142D01*
X82782142Y-70877857D01*
X82853571Y-71020714D01*
X82925000Y-71092142D01*
X83067857Y-71163571D01*
X83210714Y-71163571D01*
X83353571Y-71092142D01*
X83425000Y-71020714D01*
X83496428Y-70877857D01*
X83567857Y-70592142D01*
X83567857Y-70235000D01*
X83496428Y-69949285D01*
X83425000Y-69806428D01*
X83353571Y-69735000D01*
X83210714Y-69663571D01*
X82282142Y-69663571D02*
X81782142Y-71163571D01*
X81282142Y-69663571D01*
X78567857Y-69592142D02*
X79853571Y-71520714D01*
X76282142Y-69663571D02*
X76567857Y-69663571D01*
X76710714Y-69735000D01*
X76782142Y-69806428D01*
X76925000Y-70020714D01*
X76996428Y-70306428D01*
X76996428Y-70877857D01*
X76925000Y-71020714D01*
X76853571Y-71092142D01*
X76710714Y-71163571D01*
X76425000Y-71163571D01*
X76282142Y-71092142D01*
X76210714Y-71020714D01*
X76139285Y-70877857D01*
X76139285Y-70520714D01*
X76210714Y-70377857D01*
X76282142Y-70306428D01*
X76425000Y-70235000D01*
X76710714Y-70235000D01*
X76853571Y-70306428D01*
X76925000Y-70377857D01*
X76996428Y-70520714D01*
X75496428Y-71020714D02*
X75425000Y-71092142D01*
X75496428Y-71163571D01*
X75567857Y-71092142D01*
X75496428Y-71020714D01*
X75496428Y-71163571D01*
X74496428Y-69663571D02*
X74353571Y-69663571D01*
X74210714Y-69735000D01*
X74139285Y-69806428D01*
X74067857Y-69949285D01*
X73996428Y-70235000D01*
X73996428Y-70592142D01*
X74067857Y-70877857D01*
X74139285Y-71020714D01*
X74210714Y-71092142D01*
X74353571Y-71163571D01*
X74496428Y-71163571D01*
X74639285Y-71092142D01*
X74710714Y-71020714D01*
X74782142Y-70877857D01*
X74853571Y-70592142D01*
X74853571Y-70235000D01*
X74782142Y-69949285D01*
X74710714Y-69806428D01*
X74639285Y-69735000D01*
X74496428Y-69663571D01*
X73567857Y-69663571D02*
X73067857Y-71163571D01*
X72567857Y-69663571D01*
X172140000Y-55796571D02*
X172140000Y-54296571D01*
X171497142Y-55725142D02*
X171354285Y-55796571D01*
X171068571Y-55796571D01*
X170925714Y-55725142D01*
X170854285Y-55582285D01*
X170854285Y-55510857D01*
X170925714Y-55368000D01*
X171068571Y-55296571D01*
X171282857Y-55296571D01*
X171425714Y-55225142D01*
X171497142Y-55082285D01*
X171497142Y-55010857D01*
X171425714Y-54868000D01*
X171282857Y-54796571D01*
X171068571Y-54796571D01*
X170925714Y-54868000D01*
X170282857Y-55725142D02*
X170140000Y-55796571D01*
X169854285Y-55796571D01*
X169711428Y-55725142D01*
X169640000Y-55582285D01*
X169640000Y-55510857D01*
X169711428Y-55368000D01*
X169854285Y-55296571D01*
X170068571Y-55296571D01*
X170211428Y-55225142D01*
X170282857Y-55082285D01*
X170282857Y-55010857D01*
X170211428Y-54868000D01*
X170068571Y-54796571D01*
X169854285Y-54796571D01*
X169711428Y-54868000D01*
X168354285Y-54796571D02*
X168354285Y-55796571D01*
X168997142Y-54796571D02*
X168997142Y-55582285D01*
X168925714Y-55725142D01*
X168782857Y-55796571D01*
X168568571Y-55796571D01*
X168425714Y-55725142D01*
X168354285Y-55653714D01*
X167068571Y-55725142D02*
X167211428Y-55796571D01*
X167497142Y-55796571D01*
X167640000Y-55725142D01*
X167711428Y-55582285D01*
X167711428Y-55010857D01*
X167640000Y-54868000D01*
X167497142Y-54796571D01*
X167211428Y-54796571D01*
X167068571Y-54868000D01*
X166997142Y-55010857D01*
X166997142Y-55153714D01*
X167711428Y-55296571D01*
X165354285Y-54296571D02*
X164425714Y-54296571D01*
X164925714Y-54868000D01*
X164711428Y-54868000D01*
X164568571Y-54939428D01*
X164497142Y-55010857D01*
X164425714Y-55153714D01*
X164425714Y-55510857D01*
X164497142Y-55653714D01*
X164568571Y-55725142D01*
X164711428Y-55796571D01*
X165140000Y-55796571D01*
X165282857Y-55725142D01*
X165354285Y-55653714D01*
X163140000Y-55796571D02*
X163140000Y-55010857D01*
X163211428Y-54868000D01*
X163354285Y-54796571D01*
X163640000Y-54796571D01*
X163782857Y-54868000D01*
X163140000Y-55725142D02*
X163282857Y-55796571D01*
X163640000Y-55796571D01*
X163782857Y-55725142D01*
X163854285Y-55582285D01*
X163854285Y-55439428D01*
X163782857Y-55296571D01*
X163640000Y-55225142D01*
X163282857Y-55225142D01*
X163140000Y-55153714D01*
X96363571Y-64153928D02*
X96292142Y-64082500D01*
X96149285Y-64011071D01*
X95792142Y-64011071D01*
X95649285Y-64082500D01*
X95577857Y-64153928D01*
X95506428Y-64296785D01*
X95506428Y-64439642D01*
X95577857Y-64653928D01*
X96435000Y-65511071D01*
X95506428Y-65511071D01*
X95006428Y-64011071D02*
X94006428Y-64011071D01*
X94649285Y-65511071D01*
X93577857Y-64011071D02*
X92649285Y-64011071D01*
X93149285Y-64582500D01*
X92935000Y-64582500D01*
X92792142Y-64653928D01*
X92720714Y-64725357D01*
X92649285Y-64868214D01*
X92649285Y-65225357D01*
X92720714Y-65368214D01*
X92792142Y-65439642D01*
X92935000Y-65511071D01*
X93363571Y-65511071D01*
X93506428Y-65439642D01*
X93577857Y-65368214D01*
X92077857Y-64153928D02*
X92006428Y-64082500D01*
X91863571Y-64011071D01*
X91506428Y-64011071D01*
X91363571Y-64082500D01*
X91292142Y-64153928D01*
X91220714Y-64296785D01*
X91220714Y-64439642D01*
X91292142Y-64653928D01*
X92149285Y-65511071D01*
X91220714Y-65511071D01*
X97792142Y-66568928D02*
X97720714Y-66497500D01*
X97577857Y-66426071D01*
X97220714Y-66426071D01*
X97077857Y-66497500D01*
X97006428Y-66568928D01*
X96935000Y-66711785D01*
X96935000Y-66854642D01*
X97006428Y-67068928D01*
X97863571Y-67926071D01*
X96935000Y-67926071D01*
X96435000Y-66426071D02*
X95435000Y-66426071D01*
X96077857Y-67926071D01*
X94149285Y-66426071D02*
X94863571Y-66426071D01*
X94935000Y-67140357D01*
X94863571Y-67068928D01*
X94720714Y-66997500D01*
X94363571Y-66997500D01*
X94220714Y-67068928D01*
X94149285Y-67140357D01*
X94077857Y-67283214D01*
X94077857Y-67640357D01*
X94149285Y-67783214D01*
X94220714Y-67854642D01*
X94363571Y-67926071D01*
X94720714Y-67926071D01*
X94863571Y-67854642D01*
X94935000Y-67783214D01*
X92649285Y-67926071D02*
X93506428Y-67926071D01*
X93077857Y-67926071D02*
X93077857Y-66426071D01*
X93220714Y-66640357D01*
X93363571Y-66783214D01*
X93506428Y-66854642D01*
X92149285Y-66426071D02*
X91220714Y-66426071D01*
X91720714Y-66997500D01*
X91506428Y-66997500D01*
X91363571Y-67068928D01*
X91292142Y-67140357D01*
X91220714Y-67283214D01*
X91220714Y-67640357D01*
X91292142Y-67783214D01*
X91363571Y-67854642D01*
X91506428Y-67926071D01*
X91935000Y-67926071D01*
X92077857Y-67854642D01*
X92149285Y-67783214D01*
X112873571Y-64153928D02*
X112802142Y-64082500D01*
X112659285Y-64011071D01*
X112302142Y-64011071D01*
X112159285Y-64082500D01*
X112087857Y-64153928D01*
X112016428Y-64296785D01*
X112016428Y-64439642D01*
X112087857Y-64653928D01*
X112945000Y-65511071D01*
X112016428Y-65511071D01*
X110659285Y-64011071D02*
X111373571Y-64011071D01*
X111445000Y-64725357D01*
X111373571Y-64653928D01*
X111230714Y-64582500D01*
X110873571Y-64582500D01*
X110730714Y-64653928D01*
X110659285Y-64725357D01*
X110587857Y-64868214D01*
X110587857Y-65225357D01*
X110659285Y-65368214D01*
X110730714Y-65439642D01*
X110873571Y-65511071D01*
X111230714Y-65511071D01*
X111373571Y-65439642D01*
X111445000Y-65368214D01*
X109302142Y-64011071D02*
X109587857Y-64011071D01*
X109730714Y-64082500D01*
X109802142Y-64153928D01*
X109945000Y-64368214D01*
X110016428Y-64653928D01*
X110016428Y-65225357D01*
X109945000Y-65368214D01*
X109873571Y-65439642D01*
X109730714Y-65511071D01*
X109445000Y-65511071D01*
X109302142Y-65439642D01*
X109230714Y-65368214D01*
X109159285Y-65225357D01*
X109159285Y-64868214D01*
X109230714Y-64725357D01*
X109302142Y-64653928D01*
X109445000Y-64582500D01*
X109730714Y-64582500D01*
X109873571Y-64653928D01*
X109945000Y-64725357D01*
X110016428Y-64868214D01*
X107873571Y-64511071D02*
X107873571Y-65511071D01*
X108230714Y-63939642D02*
X108587857Y-65011071D01*
X107659285Y-65011071D01*
X114302142Y-66568928D02*
X114230714Y-66497500D01*
X114087857Y-66426071D01*
X113730714Y-66426071D01*
X113587857Y-66497500D01*
X113516428Y-66568928D01*
X113445000Y-66711785D01*
X113445000Y-66854642D01*
X113516428Y-67068928D01*
X114373571Y-67926071D01*
X113445000Y-67926071D01*
X112945000Y-66426071D02*
X111945000Y-66426071D01*
X112587857Y-67926071D01*
X111445000Y-66568928D02*
X111373571Y-66497500D01*
X111230714Y-66426071D01*
X110873571Y-66426071D01*
X110730714Y-66497500D01*
X110659285Y-66568928D01*
X110587857Y-66711785D01*
X110587857Y-66854642D01*
X110659285Y-67068928D01*
X111516428Y-67926071D01*
X110587857Y-67926071D01*
X109230714Y-66426071D02*
X109945000Y-66426071D01*
X110016428Y-67140357D01*
X109945000Y-67068928D01*
X109802142Y-66997500D01*
X109445000Y-66997500D01*
X109302142Y-67068928D01*
X109230714Y-67140357D01*
X109159285Y-67283214D01*
X109159285Y-67640357D01*
X109230714Y-67783214D01*
X109302142Y-67854642D01*
X109445000Y-67926071D01*
X109802142Y-67926071D01*
X109945000Y-67854642D01*
X110016428Y-67783214D01*
X107873571Y-66426071D02*
X108159285Y-66426071D01*
X108302142Y-66497500D01*
X108373571Y-66568928D01*
X108516428Y-66783214D01*
X108587857Y-67068928D01*
X108587857Y-67640357D01*
X108516428Y-67783214D01*
X108445000Y-67854642D01*
X108302142Y-67926071D01*
X108016428Y-67926071D01*
X107873571Y-67854642D01*
X107802142Y-67783214D01*
X107730714Y-67640357D01*
X107730714Y-67283214D01*
X107802142Y-67140357D01*
X107873571Y-67068928D01*
X108016428Y-66997500D01*
X108302142Y-66997500D01*
X108445000Y-67068928D01*
X108516428Y-67140357D01*
X108587857Y-67283214D01*
X88108571Y-64153928D02*
X88037142Y-64082500D01*
X87894285Y-64011071D01*
X87537142Y-64011071D01*
X87394285Y-64082500D01*
X87322857Y-64153928D01*
X87251428Y-64296785D01*
X87251428Y-64439642D01*
X87322857Y-64653928D01*
X88180000Y-65511071D01*
X87251428Y-65511071D01*
X86751428Y-64011071D02*
X85751428Y-64011071D01*
X86394285Y-65511071D01*
X84537142Y-64011071D02*
X84822857Y-64011071D01*
X84965714Y-64082500D01*
X85037142Y-64153928D01*
X85180000Y-64368214D01*
X85251428Y-64653928D01*
X85251428Y-65225357D01*
X85180000Y-65368214D01*
X85108571Y-65439642D01*
X84965714Y-65511071D01*
X84680000Y-65511071D01*
X84537142Y-65439642D01*
X84465714Y-65368214D01*
X84394285Y-65225357D01*
X84394285Y-64868214D01*
X84465714Y-64725357D01*
X84537142Y-64653928D01*
X84680000Y-64582500D01*
X84965714Y-64582500D01*
X85108571Y-64653928D01*
X85180000Y-64725357D01*
X85251428Y-64868214D01*
X83108571Y-64511071D02*
X83108571Y-65511071D01*
X83465714Y-63939642D02*
X83822857Y-65011071D01*
X82894285Y-65011071D01*
X89537142Y-66568928D02*
X89465714Y-66497500D01*
X89322857Y-66426071D01*
X88965714Y-66426071D01*
X88822857Y-66497500D01*
X88751428Y-66568928D01*
X88680000Y-66711785D01*
X88680000Y-66854642D01*
X88751428Y-67068928D01*
X89608571Y-67926071D01*
X88680000Y-67926071D01*
X88180000Y-66426071D02*
X87180000Y-66426071D01*
X87822857Y-67926071D01*
X86322857Y-66426071D02*
X86180000Y-66426071D01*
X86037142Y-66497500D01*
X85965714Y-66568928D01*
X85894285Y-66711785D01*
X85822857Y-66997500D01*
X85822857Y-67354642D01*
X85894285Y-67640357D01*
X85965714Y-67783214D01*
X86037142Y-67854642D01*
X86180000Y-67926071D01*
X86322857Y-67926071D01*
X86465714Y-67854642D01*
X86537142Y-67783214D01*
X86608571Y-67640357D01*
X86680000Y-67354642D01*
X86680000Y-66997500D01*
X86608571Y-66711785D01*
X86537142Y-66568928D01*
X86465714Y-66497500D01*
X86322857Y-66426071D01*
X84394285Y-67926071D02*
X85251428Y-67926071D01*
X84822857Y-67926071D02*
X84822857Y-66426071D01*
X84965714Y-66640357D01*
X85108571Y-66783214D01*
X85251428Y-66854642D01*
X82965714Y-67926071D02*
X83822857Y-67926071D01*
X83394285Y-67926071D02*
X83394285Y-66426071D01*
X83537142Y-66640357D01*
X83680000Y-66783214D01*
X83822857Y-66854642D01*
X104618571Y-64153928D02*
X104547142Y-64082500D01*
X104404285Y-64011071D01*
X104047142Y-64011071D01*
X103904285Y-64082500D01*
X103832857Y-64153928D01*
X103761428Y-64296785D01*
X103761428Y-64439642D01*
X103832857Y-64653928D01*
X104690000Y-65511071D01*
X103761428Y-65511071D01*
X103261428Y-64011071D02*
X102261428Y-64011071D01*
X102904285Y-65511071D01*
X100904285Y-65511071D02*
X101761428Y-65511071D01*
X101332857Y-65511071D02*
X101332857Y-64011071D01*
X101475714Y-64225357D01*
X101618571Y-64368214D01*
X101761428Y-64439642D01*
X99618571Y-64011071D02*
X99904285Y-64011071D01*
X100047142Y-64082500D01*
X100118571Y-64153928D01*
X100261428Y-64368214D01*
X100332857Y-64653928D01*
X100332857Y-65225357D01*
X100261428Y-65368214D01*
X100190000Y-65439642D01*
X100047142Y-65511071D01*
X99761428Y-65511071D01*
X99618571Y-65439642D01*
X99547142Y-65368214D01*
X99475714Y-65225357D01*
X99475714Y-64868214D01*
X99547142Y-64725357D01*
X99618571Y-64653928D01*
X99761428Y-64582500D01*
X100047142Y-64582500D01*
X100190000Y-64653928D01*
X100261428Y-64725357D01*
X100332857Y-64868214D01*
X106047142Y-66568928D02*
X105975714Y-66497500D01*
X105832857Y-66426071D01*
X105475714Y-66426071D01*
X105332857Y-66497500D01*
X105261428Y-66568928D01*
X105190000Y-66711785D01*
X105190000Y-66854642D01*
X105261428Y-67068928D01*
X106118571Y-67926071D01*
X105190000Y-67926071D01*
X104690000Y-66426071D02*
X103690000Y-66426071D01*
X104332857Y-67926071D01*
X102404285Y-66426071D02*
X103118571Y-66426071D01*
X103190000Y-67140357D01*
X103118571Y-67068928D01*
X102975714Y-66997500D01*
X102618571Y-66997500D01*
X102475714Y-67068928D01*
X102404285Y-67140357D01*
X102332857Y-67283214D01*
X102332857Y-67640357D01*
X102404285Y-67783214D01*
X102475714Y-67854642D01*
X102618571Y-67926071D01*
X102975714Y-67926071D01*
X103118571Y-67854642D01*
X103190000Y-67783214D01*
X100904285Y-67926071D02*
X101761428Y-67926071D01*
X101332857Y-67926071D02*
X101332857Y-66426071D01*
X101475714Y-66640357D01*
X101618571Y-66783214D01*
X101761428Y-66854642D01*
X100332857Y-66568928D02*
X100261428Y-66497500D01*
X100118571Y-66426071D01*
X99761428Y-66426071D01*
X99618571Y-66497500D01*
X99547142Y-66568928D01*
X99475714Y-66711785D01*
X99475714Y-66854642D01*
X99547142Y-67068928D01*
X100404285Y-67926071D01*
X99475714Y-67926071D01*
X149983571Y-24808571D02*
X149983571Y-23308571D01*
X149983571Y-24022857D02*
X149126428Y-24022857D01*
X149126428Y-24808571D02*
X149126428Y-23308571D01*
X147555000Y-24665714D02*
X147626428Y-24737142D01*
X147840714Y-24808571D01*
X147983571Y-24808571D01*
X148197857Y-24737142D01*
X148340714Y-24594285D01*
X148412142Y-24451428D01*
X148483571Y-24165714D01*
X148483571Y-23951428D01*
X148412142Y-23665714D01*
X148340714Y-23522857D01*
X148197857Y-23380000D01*
X147983571Y-23308571D01*
X147840714Y-23308571D01*
X147626428Y-23380000D01*
X147555000Y-23451428D01*
X146055000Y-24808571D02*
X146555000Y-24094285D01*
X146912142Y-24808571D02*
X146912142Y-23308571D01*
X146340714Y-23308571D01*
X146197857Y-23380000D01*
X146126428Y-23451428D01*
X146055000Y-23594285D01*
X146055000Y-23808571D01*
X146126428Y-23951428D01*
X146197857Y-24022857D01*
X146340714Y-24094285D01*
X146912142Y-24094285D01*
X144269285Y-24022857D02*
X143769285Y-24022857D01*
X143555000Y-24808571D02*
X144269285Y-24808571D01*
X144269285Y-23308571D01*
X143555000Y-23308571D01*
X142697857Y-24808571D02*
X142840714Y-24737142D01*
X142912142Y-24594285D01*
X142912142Y-23308571D01*
X141555000Y-24737142D02*
X141697857Y-24808571D01*
X141983571Y-24808571D01*
X142126428Y-24737142D01*
X142197857Y-24594285D01*
X142197857Y-24022857D01*
X142126428Y-23880000D01*
X141983571Y-23808571D01*
X141697857Y-23808571D01*
X141555000Y-23880000D01*
X141483571Y-24022857D01*
X141483571Y-24165714D01*
X142197857Y-24308571D01*
X140197857Y-24737142D02*
X140340714Y-24808571D01*
X140626428Y-24808571D01*
X140769285Y-24737142D01*
X140840714Y-24665714D01*
X140912142Y-24522857D01*
X140912142Y-24094285D01*
X140840714Y-23951428D01*
X140769285Y-23880000D01*
X140626428Y-23808571D01*
X140340714Y-23808571D01*
X140197857Y-23880000D01*
X139769285Y-23808571D02*
X139197857Y-23808571D01*
X139555000Y-23308571D02*
X139555000Y-24594285D01*
X139483571Y-24737142D01*
X139340714Y-24808571D01*
X139197857Y-24808571D01*
X138697857Y-24808571D02*
X138697857Y-23808571D01*
X138697857Y-24094285D02*
X138626428Y-23951428D01*
X138555000Y-23880000D01*
X138412142Y-23808571D01*
X138269285Y-23808571D01*
X137555000Y-24808571D02*
X137697857Y-24737142D01*
X137769285Y-24665714D01*
X137840714Y-24522857D01*
X137840714Y-24094285D01*
X137769285Y-23951428D01*
X137697857Y-23880000D01*
X137555000Y-23808571D01*
X137340714Y-23808571D01*
X137197857Y-23880000D01*
X137126428Y-23951428D01*
X137055000Y-24094285D01*
X137055000Y-24522857D01*
X137126428Y-24665714D01*
X137197857Y-24737142D01*
X137340714Y-24808571D01*
X137555000Y-24808571D01*
X136412142Y-23808571D02*
X136412142Y-24808571D01*
X136412142Y-23951428D02*
X136340714Y-23880000D01*
X136197857Y-23808571D01*
X135983571Y-23808571D01*
X135840714Y-23880000D01*
X135769285Y-24022857D01*
X135769285Y-24808571D01*
X135055000Y-24808571D02*
X135055000Y-23808571D01*
X135055000Y-23308571D02*
X135126428Y-23380000D01*
X135055000Y-23451428D01*
X134983571Y-23380000D01*
X135055000Y-23308571D01*
X135055000Y-23451428D01*
X133697857Y-24737142D02*
X133840714Y-24808571D01*
X134126428Y-24808571D01*
X134269285Y-24737142D01*
X134340714Y-24665714D01*
X134412142Y-24522857D01*
X134412142Y-24094285D01*
X134340714Y-23951428D01*
X134269285Y-23880000D01*
X134126428Y-23808571D01*
X133840714Y-23808571D01*
X133697857Y-23880000D01*
X133126428Y-24737142D02*
X132983571Y-24808571D01*
X132697857Y-24808571D01*
X132555000Y-24737142D01*
X132483571Y-24594285D01*
X132483571Y-24522857D01*
X132555000Y-24380000D01*
X132697857Y-24308571D01*
X132912142Y-24308571D01*
X133055000Y-24237142D01*
X133126428Y-24094285D01*
X133126428Y-24022857D01*
X133055000Y-23880000D01*
X132912142Y-23808571D01*
X132697857Y-23808571D01*
X132555000Y-23880000D01*
X130697857Y-24808571D02*
X130697857Y-23308571D01*
X130197857Y-24380000D01*
X129697857Y-23308571D01*
X129697857Y-24808571D01*
X128983571Y-24808571D02*
X128983571Y-23808571D01*
X128983571Y-23308571D02*
X129055000Y-23380000D01*
X128983571Y-23451428D01*
X128912142Y-23380000D01*
X128983571Y-23308571D01*
X128983571Y-23451428D01*
X127626428Y-24737142D02*
X127769285Y-24808571D01*
X128055000Y-24808571D01*
X128197857Y-24737142D01*
X128269285Y-24665714D01*
X128340714Y-24522857D01*
X128340714Y-24094285D01*
X128269285Y-23951428D01*
X128197857Y-23880000D01*
X128055000Y-23808571D01*
X127769285Y-23808571D01*
X127626428Y-23880000D01*
X126983571Y-24808571D02*
X126983571Y-23808571D01*
X126983571Y-24094285D02*
X126912142Y-23951428D01*
X126840714Y-23880000D01*
X126697857Y-23808571D01*
X126555000Y-23808571D01*
X125840714Y-24808571D02*
X125983571Y-24737142D01*
X126055000Y-24665714D01*
X126126428Y-24522857D01*
X126126428Y-24094285D01*
X126055000Y-23951428D01*
X125983571Y-23880000D01*
X125840714Y-23808571D01*
X125626428Y-23808571D01*
X125483571Y-23880000D01*
X125412142Y-23951428D01*
X125340714Y-24094285D01*
X125340714Y-24522857D01*
X125412142Y-24665714D01*
X125483571Y-24737142D01*
X125626428Y-24808571D01*
X125840714Y-24808571D01*
X124697857Y-23808571D02*
X124697857Y-24808571D01*
X124697857Y-23951428D02*
X124626428Y-23880000D01*
X124483571Y-23808571D01*
X124269285Y-23808571D01*
X124126428Y-23880000D01*
X124055000Y-24022857D01*
X124055000Y-24808571D01*
X122197857Y-24808571D02*
X122197857Y-23308571D01*
X121626428Y-23308571D01*
X121483571Y-23380000D01*
X121412142Y-23451428D01*
X121340714Y-23594285D01*
X121340714Y-23808571D01*
X121412142Y-23951428D01*
X121483571Y-24022857D01*
X121626428Y-24094285D01*
X122197857Y-24094285D01*
X120483571Y-24808571D02*
X120626428Y-24737142D01*
X120697857Y-24594285D01*
X120697857Y-23308571D01*
X119269285Y-23808571D02*
X119269285Y-24808571D01*
X119912142Y-23808571D02*
X119912142Y-24594285D01*
X119840714Y-24737142D01*
X119697857Y-24808571D01*
X119483571Y-24808571D01*
X119340714Y-24737142D01*
X119269285Y-24665714D01*
X118626428Y-24737142D02*
X118483571Y-24808571D01*
X118197857Y-24808571D01*
X118055000Y-24737142D01*
X117983571Y-24594285D01*
X117983571Y-24522857D01*
X118055000Y-24380000D01*
X118197857Y-24308571D01*
X118412142Y-24308571D01*
X118555000Y-24237142D01*
X118626428Y-24094285D01*
X118626428Y-24022857D01*
X118555000Y-23880000D01*
X118412142Y-23808571D01*
X118197857Y-23808571D01*
X118055000Y-23880000D01*
X116197857Y-24022857D02*
X115697857Y-24022857D01*
X115483571Y-24808571D02*
X116197857Y-24808571D01*
X116197857Y-23308571D01*
X115483571Y-23308571D01*
X114840714Y-23808571D02*
X114840714Y-25308571D01*
X114840714Y-23880000D02*
X114697857Y-23808571D01*
X114412142Y-23808571D01*
X114269285Y-23880000D01*
X114197857Y-23951428D01*
X114126428Y-24094285D01*
X114126428Y-24522857D01*
X114197857Y-24665714D01*
X114269285Y-24737142D01*
X114412142Y-24808571D01*
X114697857Y-24808571D01*
X114840714Y-24737142D01*
X113483571Y-24808571D02*
X113483571Y-23808571D01*
X113483571Y-24094285D02*
X113412142Y-23951428D01*
X113340714Y-23880000D01*
X113197857Y-23808571D01*
X113055000Y-23808571D01*
X112340714Y-24808571D02*
X112483571Y-24737142D01*
X112555000Y-24665714D01*
X112626428Y-24522857D01*
X112626428Y-24094285D01*
X112555000Y-23951428D01*
X112483571Y-23880000D01*
X112340714Y-23808571D01*
X112126428Y-23808571D01*
X111983571Y-23880000D01*
X111912142Y-23951428D01*
X111840714Y-24094285D01*
X111840714Y-24522857D01*
X111912142Y-24665714D01*
X111983571Y-24737142D01*
X112126428Y-24808571D01*
X112340714Y-24808571D01*
X111197857Y-24808571D02*
X111197857Y-23808571D01*
X111197857Y-23951428D02*
X111126428Y-23880000D01*
X110983571Y-23808571D01*
X110769285Y-23808571D01*
X110626428Y-23880000D01*
X110555000Y-24022857D01*
X110555000Y-24808571D01*
X110555000Y-24022857D02*
X110483571Y-23880000D01*
X110340714Y-23808571D01*
X110126428Y-23808571D01*
X109983571Y-23880000D01*
X109912142Y-24022857D01*
X109912142Y-24808571D01*
X108055000Y-24808571D02*
X108055000Y-23308571D01*
X107483571Y-23308571D01*
X107340714Y-23380000D01*
X107269285Y-23451428D01*
X107197857Y-23594285D01*
X107197857Y-23808571D01*
X107269285Y-23951428D01*
X107340714Y-24022857D01*
X107483571Y-24094285D01*
X108055000Y-24094285D01*
X106555000Y-24808571D02*
X106555000Y-23808571D01*
X106555000Y-24094285D02*
X106483571Y-23951428D01*
X106412142Y-23880000D01*
X106269285Y-23808571D01*
X106126428Y-23808571D01*
X105412142Y-24808571D02*
X105555000Y-24737142D01*
X105626428Y-24665714D01*
X105697857Y-24522857D01*
X105697857Y-24094285D01*
X105626428Y-23951428D01*
X105555000Y-23880000D01*
X105412142Y-23808571D01*
X105197857Y-23808571D01*
X105055000Y-23880000D01*
X104983571Y-23951428D01*
X104912142Y-24094285D01*
X104912142Y-24522857D01*
X104983571Y-24665714D01*
X105055000Y-24737142D01*
X105197857Y-24808571D01*
X105412142Y-24808571D01*
X103626428Y-23808571D02*
X103626428Y-25022857D01*
X103697857Y-25165714D01*
X103769285Y-25237142D01*
X103912142Y-25308571D01*
X104126428Y-25308571D01*
X104269285Y-25237142D01*
X103626428Y-24737142D02*
X103769285Y-24808571D01*
X104055000Y-24808571D01*
X104197857Y-24737142D01*
X104269285Y-24665714D01*
X104340714Y-24522857D01*
X104340714Y-24094285D01*
X104269285Y-23951428D01*
X104197857Y-23880000D01*
X104055000Y-23808571D01*
X103769285Y-23808571D01*
X103626428Y-23880000D01*
X102912142Y-24808571D02*
X102912142Y-23808571D01*
X102912142Y-24094285D02*
X102840714Y-23951428D01*
X102769285Y-23880000D01*
X102626428Y-23808571D01*
X102483571Y-23808571D01*
X101340714Y-24808571D02*
X101340714Y-24022857D01*
X101412142Y-23880000D01*
X101555000Y-23808571D01*
X101840714Y-23808571D01*
X101983571Y-23880000D01*
X101340714Y-24737142D02*
X101483571Y-24808571D01*
X101840714Y-24808571D01*
X101983571Y-24737142D01*
X102055000Y-24594285D01*
X102055000Y-24451428D01*
X101983571Y-24308571D01*
X101840714Y-24237142D01*
X101483571Y-24237142D01*
X101340714Y-24165714D01*
X100626428Y-24808571D02*
X100626428Y-23808571D01*
X100626428Y-23951428D02*
X100555000Y-23880000D01*
X100412142Y-23808571D01*
X100197857Y-23808571D01*
X100055000Y-23880000D01*
X99983571Y-24022857D01*
X99983571Y-24808571D01*
X99983571Y-24022857D02*
X99912142Y-23880000D01*
X99769285Y-23808571D01*
X99555000Y-23808571D01*
X99412142Y-23880000D01*
X99340714Y-24022857D01*
X99340714Y-24808571D01*
X98626428Y-24808571D02*
X98626428Y-23808571D01*
X98626428Y-23951428D02*
X98555000Y-23880000D01*
X98412142Y-23808571D01*
X98197857Y-23808571D01*
X98055000Y-23880000D01*
X97983571Y-24022857D01*
X97983571Y-24808571D01*
X97983571Y-24022857D02*
X97912142Y-23880000D01*
X97769285Y-23808571D01*
X97555000Y-23808571D01*
X97412142Y-23880000D01*
X97340714Y-24022857D01*
X97340714Y-24808571D01*
X96055000Y-24737142D02*
X96197857Y-24808571D01*
X96483571Y-24808571D01*
X96626428Y-24737142D01*
X96697857Y-24594285D01*
X96697857Y-24022857D01*
X96626428Y-23880000D01*
X96483571Y-23808571D01*
X96197857Y-23808571D01*
X96055000Y-23880000D01*
X95983571Y-24022857D01*
X95983571Y-24165714D01*
X96697857Y-24308571D01*
X95340714Y-24808571D02*
X95340714Y-23808571D01*
X95340714Y-24094285D02*
X95269285Y-23951428D01*
X95197857Y-23880000D01*
X95055000Y-23808571D01*
X94912142Y-23808571D01*
X63709285Y-32365000D02*
X63780714Y-32293571D01*
X63923571Y-32079285D01*
X63995000Y-31936428D01*
X64066428Y-31722142D01*
X64137857Y-31365000D01*
X64137857Y-31079285D01*
X64066428Y-30722142D01*
X63995000Y-30507857D01*
X63923571Y-30365000D01*
X63780714Y-30150714D01*
X63709285Y-30079285D01*
X62495000Y-31722142D02*
X62637857Y-31793571D01*
X62923571Y-31793571D01*
X63066428Y-31722142D01*
X63137857Y-31650714D01*
X63209285Y-31507857D01*
X63209285Y-31079285D01*
X63137857Y-30936428D01*
X63066428Y-30865000D01*
X62923571Y-30793571D01*
X62637857Y-30793571D01*
X62495000Y-30865000D01*
X61995000Y-32365000D02*
X61923571Y-32293571D01*
X61780714Y-32079285D01*
X61709285Y-31936428D01*
X61637857Y-31722142D01*
X61566428Y-31365000D01*
X61566428Y-31079285D01*
X61637857Y-30722142D01*
X61709285Y-30507857D01*
X61780714Y-30365000D01*
X61923571Y-30150714D01*
X61995000Y-30079285D01*
X59709285Y-31793571D02*
X59709285Y-30293571D01*
X59709285Y-31007857D02*
X58852142Y-31007857D01*
X58852142Y-31793571D02*
X58852142Y-30293571D01*
X57923571Y-31793571D02*
X58066428Y-31722142D01*
X58137857Y-31650714D01*
X58209285Y-31507857D01*
X58209285Y-31079285D01*
X58137857Y-30936428D01*
X58066428Y-30865000D01*
X57923571Y-30793571D01*
X57709285Y-30793571D01*
X57566428Y-30865000D01*
X57495000Y-30936428D01*
X57423571Y-31079285D01*
X57423571Y-31507857D01*
X57495000Y-31650714D01*
X57566428Y-31722142D01*
X57709285Y-31793571D01*
X57923571Y-31793571D01*
X56137857Y-30793571D02*
X56137857Y-32007857D01*
X56209285Y-32150714D01*
X56280714Y-32222142D01*
X56423571Y-32293571D01*
X56637857Y-32293571D01*
X56780714Y-32222142D01*
X56137857Y-31722142D02*
X56280714Y-31793571D01*
X56566428Y-31793571D01*
X56709285Y-31722142D01*
X56780714Y-31650714D01*
X56852142Y-31507857D01*
X56852142Y-31079285D01*
X56780714Y-30936428D01*
X56709285Y-30865000D01*
X56566428Y-30793571D01*
X56280714Y-30793571D01*
X56137857Y-30865000D01*
X55209285Y-31793571D02*
X55352142Y-31722142D01*
X55423571Y-31579285D01*
X55423571Y-30293571D01*
X54066428Y-31722142D02*
X54209285Y-31793571D01*
X54495000Y-31793571D01*
X54637857Y-31722142D01*
X54709285Y-31579285D01*
X54709285Y-31007857D01*
X54637857Y-30865000D01*
X54495000Y-30793571D01*
X54209285Y-30793571D01*
X54066428Y-30865000D01*
X53995000Y-31007857D01*
X53995000Y-31150714D01*
X54709285Y-31293571D01*
X53566428Y-30793571D02*
X52995000Y-30793571D01*
X53352142Y-30293571D02*
X53352142Y-31579285D01*
X53280714Y-31722142D01*
X53137857Y-31793571D01*
X52995000Y-31793571D01*
X51423571Y-30436428D02*
X51352142Y-30365000D01*
X51209285Y-30293571D01*
X50852142Y-30293571D01*
X50709285Y-30365000D01*
X50637857Y-30436428D01*
X50566428Y-30579285D01*
X50566428Y-30722142D01*
X50637857Y-30936428D01*
X51495000Y-31793571D01*
X50566428Y-31793571D01*
X49637857Y-30293571D02*
X49495000Y-30293571D01*
X49352142Y-30365000D01*
X49280714Y-30436428D01*
X49209285Y-30579285D01*
X49137857Y-30865000D01*
X49137857Y-31222142D01*
X49209285Y-31507857D01*
X49280714Y-31650714D01*
X49352142Y-31722142D01*
X49495000Y-31793571D01*
X49637857Y-31793571D01*
X49780714Y-31722142D01*
X49852142Y-31650714D01*
X49923571Y-31507857D01*
X49995000Y-31222142D01*
X49995000Y-30865000D01*
X49923571Y-30579285D01*
X49852142Y-30436428D01*
X49780714Y-30365000D01*
X49637857Y-30293571D01*
X48566428Y-30436428D02*
X48495000Y-30365000D01*
X48352142Y-30293571D01*
X47995000Y-30293571D01*
X47852142Y-30365000D01*
X47780714Y-30436428D01*
X47709285Y-30579285D01*
X47709285Y-30722142D01*
X47780714Y-30936428D01*
X48637857Y-31793571D01*
X47709285Y-31793571D01*
X47209285Y-30293571D02*
X46280714Y-30293571D01*
X46780714Y-30865000D01*
X46566428Y-30865000D01*
X46423571Y-30936428D01*
X46352142Y-31007857D01*
X46280714Y-31150714D01*
X46280714Y-31507857D01*
X46352142Y-31650714D01*
X46423571Y-31722142D01*
X46566428Y-31793571D01*
X46995000Y-31793571D01*
X47137857Y-31722142D01*
X47209285Y-31650714D01*
D11*
X141437619Y-125563214D02*
X141437619Y-126039404D01*
X140961428Y-126087023D01*
X141009047Y-126039404D01*
X141056666Y-125944166D01*
X141056666Y-125706071D01*
X141009047Y-125610833D01*
X140961428Y-125563214D01*
X140866190Y-125515595D01*
X140628095Y-125515595D01*
X140532857Y-125563214D01*
X140485238Y-125610833D01*
X140437619Y-125706071D01*
X140437619Y-125944166D01*
X140485238Y-126039404D01*
X140532857Y-126087023D01*
X148057619Y-121582976D02*
X148057619Y-122154404D01*
X148057619Y-121868690D02*
X149057619Y-121868690D01*
X148914761Y-121963928D01*
X148819523Y-122059166D01*
X148771904Y-122154404D01*
X141104285Y-121678214D02*
X140437619Y-121678214D01*
X141485238Y-121916309D02*
X140770952Y-122154404D01*
X140770952Y-121535357D01*
X148629047Y-125896547D02*
X148676666Y-125991785D01*
X148724285Y-126039404D01*
X148819523Y-126087023D01*
X148867142Y-126087023D01*
X148962380Y-126039404D01*
X149010000Y-125991785D01*
X149057619Y-125896547D01*
X149057619Y-125706071D01*
X149010000Y-125610833D01*
X148962380Y-125563214D01*
X148867142Y-125515595D01*
X148819523Y-125515595D01*
X148724285Y-125563214D01*
X148676666Y-125610833D01*
X148629047Y-125706071D01*
X148629047Y-125896547D01*
X148581428Y-125991785D01*
X148533809Y-126039404D01*
X148438571Y-126087023D01*
X148248095Y-126087023D01*
X148152857Y-126039404D01*
X148105238Y-125991785D01*
X148057619Y-125896547D01*
X148057619Y-125706071D01*
X148105238Y-125610833D01*
X148152857Y-125563214D01*
X148248095Y-125515595D01*
X148438571Y-125515595D01*
X148533809Y-125563214D01*
X148581428Y-125610833D01*
X148629047Y-125706071D01*
X50389404Y-47797619D02*
X49817976Y-47797619D01*
X50103690Y-47797619D02*
X50103690Y-48797619D01*
X50008452Y-48654761D01*
X49913214Y-48559523D01*
X49817976Y-48511904D01*
X51294166Y-48797619D02*
X50817976Y-48797619D01*
X50770357Y-48321428D01*
X50817976Y-48369047D01*
X50913214Y-48416666D01*
X51151309Y-48416666D01*
X51246547Y-48369047D01*
X51294166Y-48321428D01*
X51341785Y-48226190D01*
X51341785Y-47988095D01*
X51294166Y-47892857D01*
X51246547Y-47845238D01*
X51151309Y-47797619D01*
X50913214Y-47797619D01*
X50817976Y-47845238D01*
X50770357Y-47892857D01*
X60989642Y-47797619D02*
X60418214Y-47797619D01*
X60703928Y-47797619D02*
X60703928Y-48797619D01*
X60608690Y-48654761D01*
X60513452Y-48559523D01*
X60418214Y-48511904D01*
X61846785Y-48464285D02*
X61846785Y-47797619D01*
X61608690Y-48845238D02*
X61370595Y-48130952D01*
X61989642Y-48130952D01*
X49817976Y-81662380D02*
X49865595Y-81710000D01*
X49960833Y-81757619D01*
X50198928Y-81757619D01*
X50294166Y-81710000D01*
X50341785Y-81662380D01*
X50389404Y-81567142D01*
X50389404Y-81471904D01*
X50341785Y-81329047D01*
X49770357Y-80757619D01*
X50389404Y-80757619D01*
X50960833Y-81329047D02*
X50865595Y-81376666D01*
X50817976Y-81424285D01*
X50770357Y-81519523D01*
X50770357Y-81567142D01*
X50817976Y-81662380D01*
X50865595Y-81710000D01*
X50960833Y-81757619D01*
X51151309Y-81757619D01*
X51246547Y-81710000D01*
X51294166Y-81662380D01*
X51341785Y-81567142D01*
X51341785Y-81519523D01*
X51294166Y-81424285D01*
X51246547Y-81376666D01*
X51151309Y-81329047D01*
X50960833Y-81329047D01*
X50865595Y-81281428D01*
X50817976Y-81233809D01*
X50770357Y-81138571D01*
X50770357Y-80948095D01*
X50817976Y-80852857D01*
X50865595Y-80805238D01*
X50960833Y-80757619D01*
X51151309Y-80757619D01*
X51246547Y-80805238D01*
X51294166Y-80852857D01*
X51341785Y-80948095D01*
X51341785Y-81138571D01*
X51294166Y-81233809D01*
X51246547Y-81281428D01*
X51151309Y-81329047D01*
X61942023Y-80757619D02*
X61370595Y-80757619D01*
X61656309Y-80757619D02*
X61656309Y-81757619D01*
X61561071Y-81614761D01*
X61465833Y-81519523D01*
X61370595Y-81471904D01*
X184597380Y-58024404D02*
X184597380Y-57452976D01*
X184597380Y-57738690D02*
X183597380Y-57738690D01*
X183740238Y-57643452D01*
X183835476Y-57548214D01*
X183883095Y-57452976D01*
X183930714Y-58881547D02*
X184597380Y-58881547D01*
X183549761Y-58643452D02*
X184264047Y-58405357D01*
X184264047Y-59024404D01*
X199265952Y-57643452D02*
X199218333Y-57548214D01*
X199170714Y-57500595D01*
X199075476Y-57452976D01*
X199027857Y-57452976D01*
X198932619Y-57500595D01*
X198885000Y-57548214D01*
X198837380Y-57643452D01*
X198837380Y-57833928D01*
X198885000Y-57929166D01*
X198932619Y-57976785D01*
X199027857Y-58024404D01*
X199075476Y-58024404D01*
X199170714Y-57976785D01*
X199218333Y-57929166D01*
X199265952Y-57833928D01*
X199265952Y-57643452D01*
X199313571Y-57548214D01*
X199361190Y-57500595D01*
X199456428Y-57452976D01*
X199646904Y-57452976D01*
X199742142Y-57500595D01*
X199789761Y-57548214D01*
X199837380Y-57643452D01*
X199837380Y-57833928D01*
X199789761Y-57929166D01*
X199742142Y-57976785D01*
X199646904Y-58024404D01*
X199456428Y-58024404D01*
X199361190Y-57976785D01*
X199313571Y-57929166D01*
X199265952Y-57833928D01*
X184597380Y-61957023D02*
X184597380Y-61385595D01*
X184597380Y-61671309D02*
X183597380Y-61671309D01*
X183740238Y-61576071D01*
X183835476Y-61480833D01*
X183883095Y-61385595D01*
X198837380Y-61337976D02*
X198837380Y-62004642D01*
X199837380Y-61576071D01*
X99512380Y-46702023D02*
X99512380Y-46130595D01*
X99512380Y-46416309D02*
X98512380Y-46416309D01*
X98655238Y-46321071D01*
X98750476Y-46225833D01*
X98798095Y-46130595D01*
X122372380Y-45749642D02*
X122372380Y-45178214D01*
X122372380Y-45463928D02*
X121372380Y-45463928D01*
X121515238Y-45368690D01*
X121610476Y-45273452D01*
X121658095Y-45178214D01*
X121372380Y-46368690D02*
X121372380Y-46463928D01*
X121420000Y-46559166D01*
X121467619Y-46606785D01*
X121562857Y-46654404D01*
X121753333Y-46702023D01*
X121991428Y-46702023D01*
X122181904Y-46654404D01*
X122277142Y-46606785D01*
X122324761Y-46559166D01*
X122372380Y-46463928D01*
X122372380Y-46368690D01*
X122324761Y-46273452D01*
X122277142Y-46225833D01*
X122181904Y-46178214D01*
X121991428Y-46130595D01*
X121753333Y-46130595D01*
X121562857Y-46178214D01*
X121467619Y-46225833D01*
X121420000Y-46273452D01*
X121372380Y-46368690D01*
X122372380Y-42769404D02*
X122372380Y-42197976D01*
X122372380Y-42483690D02*
X121372380Y-42483690D01*
X121515238Y-42388452D01*
X121610476Y-42293214D01*
X121658095Y-42197976D01*
X122372380Y-43721785D02*
X122372380Y-43150357D01*
X122372380Y-43436071D02*
X121372380Y-43436071D01*
X121515238Y-43340833D01*
X121610476Y-43245595D01*
X121658095Y-43150357D01*
X98607619Y-42197976D02*
X98560000Y-42245595D01*
X98512380Y-42340833D01*
X98512380Y-42578928D01*
X98560000Y-42674166D01*
X98607619Y-42721785D01*
X98702857Y-42769404D01*
X98798095Y-42769404D01*
X98940952Y-42721785D01*
X99512380Y-42150357D01*
X99512380Y-42769404D01*
X98512380Y-43388452D02*
X98512380Y-43483690D01*
X98560000Y-43578928D01*
X98607619Y-43626547D01*
X98702857Y-43674166D01*
X98893333Y-43721785D01*
X99131428Y-43721785D01*
X99321904Y-43674166D01*
X99417142Y-43626547D01*
X99464761Y-43578928D01*
X99512380Y-43483690D01*
X99512380Y-43388452D01*
X99464761Y-43293214D01*
X99417142Y-43245595D01*
X99321904Y-43197976D01*
X99131428Y-43150357D01*
X98893333Y-43150357D01*
X98702857Y-43197976D01*
X98607619Y-43245595D01*
X98560000Y-43293214D01*
X98512380Y-43388452D01*
X124007619Y-98518214D02*
X123960000Y-98565833D01*
X123912380Y-98661071D01*
X123912380Y-98899166D01*
X123960000Y-98994404D01*
X124007619Y-99042023D01*
X124102857Y-99089642D01*
X124198095Y-99089642D01*
X124340952Y-99042023D01*
X124912380Y-98470595D01*
X124912380Y-99089642D01*
X123912380Y-99708690D02*
X123912380Y-99803928D01*
X123960000Y-99899166D01*
X124007619Y-99946785D01*
X124102857Y-99994404D01*
X124293333Y-100042023D01*
X124531428Y-100042023D01*
X124721904Y-99994404D01*
X124817142Y-99946785D01*
X124864761Y-99899166D01*
X124912380Y-99803928D01*
X124912380Y-99708690D01*
X124864761Y-99613452D01*
X124817142Y-99565833D01*
X124721904Y-99518214D01*
X124531428Y-99470595D01*
X124293333Y-99470595D01*
X124102857Y-99518214D01*
X124007619Y-99565833D01*
X123960000Y-99613452D01*
X123912380Y-99708690D01*
X76652380Y-100042023D02*
X76652380Y-99470595D01*
X76652380Y-99756309D02*
X75652380Y-99756309D01*
X75795238Y-99661071D01*
X75890476Y-99565833D01*
X75938095Y-99470595D01*
X76045714Y-88394166D02*
X76712380Y-88394166D01*
X75664761Y-88156071D02*
X76379047Y-87917976D01*
X76379047Y-88537023D01*
X75712380Y-89108452D02*
X75712380Y-89203690D01*
X75760000Y-89298928D01*
X75807619Y-89346547D01*
X75902857Y-89394166D01*
X76093333Y-89441785D01*
X76331428Y-89441785D01*
X76521904Y-89394166D01*
X76617142Y-89346547D01*
X76664761Y-89298928D01*
X76712380Y-89203690D01*
X76712380Y-89108452D01*
X76664761Y-89013214D01*
X76617142Y-88965595D01*
X76521904Y-88917976D01*
X76331428Y-88870357D01*
X76093333Y-88870357D01*
X75902857Y-88917976D01*
X75807619Y-88965595D01*
X75760000Y-89013214D01*
X75712380Y-89108452D01*
X124007619Y-87917976D02*
X123960000Y-87965595D01*
X123912380Y-88060833D01*
X123912380Y-88298928D01*
X123960000Y-88394166D01*
X124007619Y-88441785D01*
X124102857Y-88489404D01*
X124198095Y-88489404D01*
X124340952Y-88441785D01*
X124912380Y-87870357D01*
X124912380Y-88489404D01*
X124912380Y-89441785D02*
X124912380Y-88870357D01*
X124912380Y-89156071D02*
X123912380Y-89156071D01*
X124055238Y-89060833D01*
X124150476Y-88965595D01*
X124198095Y-88870357D01*
X76647380Y-42784404D02*
X76647380Y-42212976D01*
X76647380Y-42498690D02*
X75647380Y-42498690D01*
X75790238Y-42403452D01*
X75885476Y-42308214D01*
X75933095Y-42212976D01*
X75980714Y-43641547D02*
X76647380Y-43641547D01*
X75599761Y-43403452D02*
X76314047Y-43165357D01*
X76314047Y-43784404D01*
X76647380Y-46717023D02*
X76647380Y-46145595D01*
X76647380Y-46431309D02*
X75647380Y-46431309D01*
X75790238Y-46336071D01*
X75885476Y-46240833D01*
X75933095Y-46145595D01*
X91315952Y-42403452D02*
X91268333Y-42308214D01*
X91220714Y-42260595D01*
X91125476Y-42212976D01*
X91077857Y-42212976D01*
X90982619Y-42260595D01*
X90935000Y-42308214D01*
X90887380Y-42403452D01*
X90887380Y-42593928D01*
X90935000Y-42689166D01*
X90982619Y-42736785D01*
X91077857Y-42784404D01*
X91125476Y-42784404D01*
X91220714Y-42736785D01*
X91268333Y-42689166D01*
X91315952Y-42593928D01*
X91315952Y-42403452D01*
X91363571Y-42308214D01*
X91411190Y-42260595D01*
X91506428Y-42212976D01*
X91696904Y-42212976D01*
X91792142Y-42260595D01*
X91839761Y-42308214D01*
X91887380Y-42403452D01*
X91887380Y-42593928D01*
X91839761Y-42689166D01*
X91792142Y-42736785D01*
X91696904Y-42784404D01*
X91506428Y-42784404D01*
X91411190Y-42736785D01*
X91363571Y-42689166D01*
X91315952Y-42593928D01*
X90887380Y-46097976D02*
X90887380Y-46764642D01*
X91887380Y-46336071D01*
X131627619Y-95537976D02*
X131580000Y-95585595D01*
X131532380Y-95680833D01*
X131532380Y-95918928D01*
X131580000Y-96014166D01*
X131627619Y-96061785D01*
X131722857Y-96109404D01*
X131818095Y-96109404D01*
X131960952Y-96061785D01*
X132532380Y-95490357D01*
X132532380Y-96109404D01*
X131532380Y-96728452D02*
X131532380Y-96823690D01*
X131580000Y-96918928D01*
X131627619Y-96966547D01*
X131722857Y-97014166D01*
X131913333Y-97061785D01*
X132151428Y-97061785D01*
X132341904Y-97014166D01*
X132437142Y-96966547D01*
X132484761Y-96918928D01*
X132532380Y-96823690D01*
X132532380Y-96728452D01*
X132484761Y-96633214D01*
X132437142Y-96585595D01*
X132341904Y-96537976D01*
X132151428Y-96490357D01*
X131913333Y-96490357D01*
X131722857Y-96537976D01*
X131627619Y-96585595D01*
X131580000Y-96633214D01*
X131532380Y-96728452D01*
X155392380Y-96109404D02*
X155392380Y-95537976D01*
X155392380Y-95823690D02*
X154392380Y-95823690D01*
X154535238Y-95728452D01*
X154630476Y-95633214D01*
X154678095Y-95537976D01*
X155392380Y-97061785D02*
X155392380Y-96490357D01*
X155392380Y-96776071D02*
X154392380Y-96776071D01*
X154535238Y-96680833D01*
X154630476Y-96585595D01*
X154678095Y-96490357D01*
X132532380Y-100042023D02*
X132532380Y-99470595D01*
X132532380Y-99756309D02*
X131532380Y-99756309D01*
X131675238Y-99661071D01*
X131770476Y-99565833D01*
X131818095Y-99470595D01*
X155392380Y-99089642D02*
X155392380Y-98518214D01*
X155392380Y-98803928D02*
X154392380Y-98803928D01*
X154535238Y-98708690D01*
X154630476Y-98613452D01*
X154678095Y-98518214D01*
X154392380Y-99708690D02*
X154392380Y-99803928D01*
X154440000Y-99899166D01*
X154487619Y-99946785D01*
X154582857Y-99994404D01*
X154773333Y-100042023D01*
X155011428Y-100042023D01*
X155201904Y-99994404D01*
X155297142Y-99946785D01*
X155344761Y-99899166D01*
X155392380Y-99803928D01*
X155392380Y-99708690D01*
X155344761Y-99613452D01*
X155297142Y-99565833D01*
X155201904Y-99518214D01*
X155011428Y-99470595D01*
X154773333Y-99470595D01*
X154582857Y-99518214D01*
X154487619Y-99565833D01*
X154440000Y-99613452D01*
X154392380Y-99708690D01*
X50394404Y-93517619D02*
X49822976Y-93517619D01*
X50108690Y-93517619D02*
X50108690Y-94517619D01*
X50013452Y-94374761D01*
X49918214Y-94279523D01*
X49822976Y-94231904D01*
X51299166Y-94517619D02*
X50822976Y-94517619D01*
X50775357Y-94041428D01*
X50822976Y-94089047D01*
X50918214Y-94136666D01*
X51156309Y-94136666D01*
X51251547Y-94089047D01*
X51299166Y-94041428D01*
X51346785Y-93946190D01*
X51346785Y-93708095D01*
X51299166Y-93612857D01*
X51251547Y-93565238D01*
X51156309Y-93517619D01*
X50918214Y-93517619D01*
X50822976Y-93565238D01*
X50775357Y-93612857D01*
X49822976Y-127382380D02*
X49870595Y-127430000D01*
X49965833Y-127477619D01*
X50203928Y-127477619D01*
X50299166Y-127430000D01*
X50346785Y-127382380D01*
X50394404Y-127287142D01*
X50394404Y-127191904D01*
X50346785Y-127049047D01*
X49775357Y-126477619D01*
X50394404Y-126477619D01*
X50965833Y-127049047D02*
X50870595Y-127096666D01*
X50822976Y-127144285D01*
X50775357Y-127239523D01*
X50775357Y-127287142D01*
X50822976Y-127382380D01*
X50870595Y-127430000D01*
X50965833Y-127477619D01*
X51156309Y-127477619D01*
X51251547Y-127430000D01*
X51299166Y-127382380D01*
X51346785Y-127287142D01*
X51346785Y-127239523D01*
X51299166Y-127144285D01*
X51251547Y-127096666D01*
X51156309Y-127049047D01*
X50965833Y-127049047D01*
X50870595Y-127001428D01*
X50822976Y-126953809D01*
X50775357Y-126858571D01*
X50775357Y-126668095D01*
X50822976Y-126572857D01*
X50870595Y-126525238D01*
X50965833Y-126477619D01*
X51156309Y-126477619D01*
X51251547Y-126525238D01*
X51299166Y-126572857D01*
X51346785Y-126668095D01*
X51346785Y-126858571D01*
X51299166Y-126953809D01*
X51251547Y-127001428D01*
X51156309Y-127049047D01*
X60994642Y-93517619D02*
X60423214Y-93517619D01*
X60708928Y-93517619D02*
X60708928Y-94517619D01*
X60613690Y-94374761D01*
X60518452Y-94279523D01*
X60423214Y-94231904D01*
X61851785Y-94184285D02*
X61851785Y-93517619D01*
X61613690Y-94565238D02*
X61375595Y-93850952D01*
X61994642Y-93850952D01*
X61947023Y-126477619D02*
X61375595Y-126477619D01*
X61661309Y-126477619D02*
X61661309Y-127477619D01*
X61566071Y-127334761D01*
X61470833Y-127239523D01*
X61375595Y-127191904D01*
X114180952Y-118726071D02*
X114133333Y-118630833D01*
X114085714Y-118583214D01*
X113990476Y-118535595D01*
X113942857Y-118535595D01*
X113847619Y-118583214D01*
X113800000Y-118630833D01*
X113752380Y-118726071D01*
X113752380Y-118916547D01*
X113800000Y-119011785D01*
X113847619Y-119059404D01*
X113942857Y-119107023D01*
X113990476Y-119107023D01*
X114085714Y-119059404D01*
X114133333Y-119011785D01*
X114180952Y-118916547D01*
X114180952Y-118726071D01*
X114228571Y-118630833D01*
X114276190Y-118583214D01*
X114371428Y-118535595D01*
X114561904Y-118535595D01*
X114657142Y-118583214D01*
X114704761Y-118630833D01*
X114752380Y-118726071D01*
X114752380Y-118916547D01*
X114704761Y-119011785D01*
X114657142Y-119059404D01*
X114561904Y-119107023D01*
X114371428Y-119107023D01*
X114276190Y-119059404D01*
X114228571Y-119011785D01*
X114180952Y-118916547D01*
X114752380Y-114698214D02*
X114752380Y-114888690D01*
X114704761Y-114983928D01*
X114657142Y-115031547D01*
X114514285Y-115126785D01*
X114323809Y-115174404D01*
X113942857Y-115174404D01*
X113847619Y-115126785D01*
X113800000Y-115079166D01*
X113752380Y-114983928D01*
X113752380Y-114793452D01*
X113800000Y-114698214D01*
X113847619Y-114650595D01*
X113942857Y-114602976D01*
X114180952Y-114602976D01*
X114276190Y-114650595D01*
X114323809Y-114698214D01*
X114371428Y-114793452D01*
X114371428Y-114983928D01*
X114323809Y-115079166D01*
X114276190Y-115126785D01*
X114180952Y-115174404D01*
X96972380Y-119107023D02*
X96972380Y-118535595D01*
X96972380Y-118821309D02*
X95972380Y-118821309D01*
X96115238Y-118726071D01*
X96210476Y-118630833D01*
X96258095Y-118535595D01*
X96972380Y-115174404D02*
X96972380Y-114602976D01*
X96972380Y-114888690D02*
X95972380Y-114888690D01*
X96115238Y-114793452D01*
X96210476Y-114698214D01*
X96258095Y-114602976D01*
X95972380Y-116031547D02*
X95972380Y-115841071D01*
X96020000Y-115745833D01*
X96067619Y-115698214D01*
X96210476Y-115602976D01*
X96400952Y-115555357D01*
X96781904Y-115555357D01*
X96877142Y-115602976D01*
X96924761Y-115650595D01*
X96972380Y-115745833D01*
X96972380Y-115936309D01*
X96924761Y-116031547D01*
X96877142Y-116079166D01*
X96781904Y-116126785D01*
X96543809Y-116126785D01*
X96448571Y-116079166D01*
X96400952Y-116031547D01*
X96353333Y-115936309D01*
X96353333Y-115745833D01*
X96400952Y-115650595D01*
X96448571Y-115602976D01*
X96543809Y-115555357D01*
X155392380Y-63529642D02*
X155392380Y-62958214D01*
X155392380Y-63243928D02*
X154392380Y-63243928D01*
X154535238Y-63148690D01*
X154630476Y-63053452D01*
X154678095Y-62958214D01*
X154392380Y-64148690D02*
X154392380Y-64243928D01*
X154440000Y-64339166D01*
X154487619Y-64386785D01*
X154582857Y-64434404D01*
X154773333Y-64482023D01*
X155011428Y-64482023D01*
X155201904Y-64434404D01*
X155297142Y-64386785D01*
X155344761Y-64339166D01*
X155392380Y-64243928D01*
X155392380Y-64148690D01*
X155344761Y-64053452D01*
X155297142Y-64005833D01*
X155201904Y-63958214D01*
X155011428Y-63910595D01*
X154773333Y-63910595D01*
X154582857Y-63958214D01*
X154487619Y-64005833D01*
X154440000Y-64053452D01*
X154392380Y-64148690D01*
X132532380Y-64482023D02*
X132532380Y-63910595D01*
X132532380Y-64196309D02*
X131532380Y-64196309D01*
X131675238Y-64101071D01*
X131770476Y-64005833D01*
X131818095Y-63910595D01*
X155392380Y-60549404D02*
X155392380Y-59977976D01*
X155392380Y-60263690D02*
X154392380Y-60263690D01*
X154535238Y-60168452D01*
X154630476Y-60073214D01*
X154678095Y-59977976D01*
X155392380Y-61501785D02*
X155392380Y-60930357D01*
X155392380Y-61216071D02*
X154392380Y-61216071D01*
X154535238Y-61120833D01*
X154630476Y-61025595D01*
X154678095Y-60930357D01*
X131627619Y-59977976D02*
X131580000Y-60025595D01*
X131532380Y-60120833D01*
X131532380Y-60358928D01*
X131580000Y-60454166D01*
X131627619Y-60501785D01*
X131722857Y-60549404D01*
X131818095Y-60549404D01*
X131960952Y-60501785D01*
X132532380Y-59930357D01*
X132532380Y-60549404D01*
X131532380Y-61168452D02*
X131532380Y-61263690D01*
X131580000Y-61358928D01*
X131627619Y-61406547D01*
X131722857Y-61454166D01*
X131913333Y-61501785D01*
X132151428Y-61501785D01*
X132341904Y-61454166D01*
X132437142Y-61406547D01*
X132484761Y-61358928D01*
X132532380Y-61263690D01*
X132532380Y-61168452D01*
X132484761Y-61073214D01*
X132437142Y-61025595D01*
X132341904Y-60977976D01*
X132151428Y-60930357D01*
X131913333Y-60930357D01*
X131722857Y-60977976D01*
X131627619Y-61025595D01*
X131580000Y-61073214D01*
X131532380Y-61168452D01*
X152857380Y-42784404D02*
X152857380Y-42212976D01*
X152857380Y-42498690D02*
X151857380Y-42498690D01*
X152000238Y-42403452D01*
X152095476Y-42308214D01*
X152143095Y-42212976D01*
X152857380Y-43736785D02*
X152857380Y-43165357D01*
X152857380Y-43451071D02*
X151857380Y-43451071D01*
X152000238Y-43355833D01*
X152095476Y-43260595D01*
X152143095Y-43165357D01*
X129092619Y-42212976D02*
X129045000Y-42260595D01*
X128997380Y-42355833D01*
X128997380Y-42593928D01*
X129045000Y-42689166D01*
X129092619Y-42736785D01*
X129187857Y-42784404D01*
X129283095Y-42784404D01*
X129425952Y-42736785D01*
X129997380Y-42165357D01*
X129997380Y-42784404D01*
X128997380Y-43403452D02*
X128997380Y-43498690D01*
X129045000Y-43593928D01*
X129092619Y-43641547D01*
X129187857Y-43689166D01*
X129378333Y-43736785D01*
X129616428Y-43736785D01*
X129806904Y-43689166D01*
X129902142Y-43641547D01*
X129949761Y-43593928D01*
X129997380Y-43498690D01*
X129997380Y-43403452D01*
X129949761Y-43308214D01*
X129902142Y-43260595D01*
X129806904Y-43212976D01*
X129616428Y-43165357D01*
X129378333Y-43165357D01*
X129187857Y-43212976D01*
X129092619Y-43260595D01*
X129045000Y-43308214D01*
X128997380Y-43403452D01*
X152857380Y-45764642D02*
X152857380Y-45193214D01*
X152857380Y-45478928D02*
X151857380Y-45478928D01*
X152000238Y-45383690D01*
X152095476Y-45288452D01*
X152143095Y-45193214D01*
X151857380Y-46383690D02*
X151857380Y-46478928D01*
X151905000Y-46574166D01*
X151952619Y-46621785D01*
X152047857Y-46669404D01*
X152238333Y-46717023D01*
X152476428Y-46717023D01*
X152666904Y-46669404D01*
X152762142Y-46621785D01*
X152809761Y-46574166D01*
X152857380Y-46478928D01*
X152857380Y-46383690D01*
X152809761Y-46288452D01*
X152762142Y-46240833D01*
X152666904Y-46193214D01*
X152476428Y-46145595D01*
X152238333Y-46145595D01*
X152047857Y-46193214D01*
X151952619Y-46240833D01*
X151905000Y-46288452D01*
X151857380Y-46383690D01*
X129997380Y-46717023D02*
X129997380Y-46145595D01*
X129997380Y-46431309D02*
X128997380Y-46431309D01*
X129140238Y-46336071D01*
X129235476Y-46240833D01*
X129283095Y-46145595D01*
X155392380Y-81309642D02*
X155392380Y-80738214D01*
X155392380Y-81023928D02*
X154392380Y-81023928D01*
X154535238Y-80928690D01*
X154630476Y-80833452D01*
X154678095Y-80738214D01*
X154392380Y-81928690D02*
X154392380Y-82023928D01*
X154440000Y-82119166D01*
X154487619Y-82166785D01*
X154582857Y-82214404D01*
X154773333Y-82262023D01*
X155011428Y-82262023D01*
X155201904Y-82214404D01*
X155297142Y-82166785D01*
X155344761Y-82119166D01*
X155392380Y-82023928D01*
X155392380Y-81928690D01*
X155344761Y-81833452D01*
X155297142Y-81785833D01*
X155201904Y-81738214D01*
X155011428Y-81690595D01*
X154773333Y-81690595D01*
X154582857Y-81738214D01*
X154487619Y-81785833D01*
X154440000Y-81833452D01*
X154392380Y-81928690D01*
X132532380Y-82262023D02*
X132532380Y-81690595D01*
X132532380Y-81976309D02*
X131532380Y-81976309D01*
X131675238Y-81881071D01*
X131770476Y-81785833D01*
X131818095Y-81690595D01*
X131627619Y-77757976D02*
X131580000Y-77805595D01*
X131532380Y-77900833D01*
X131532380Y-78138928D01*
X131580000Y-78234166D01*
X131627619Y-78281785D01*
X131722857Y-78329404D01*
X131818095Y-78329404D01*
X131960952Y-78281785D01*
X132532380Y-77710357D01*
X132532380Y-78329404D01*
X131532380Y-78948452D02*
X131532380Y-79043690D01*
X131580000Y-79138928D01*
X131627619Y-79186547D01*
X131722857Y-79234166D01*
X131913333Y-79281785D01*
X132151428Y-79281785D01*
X132341904Y-79234166D01*
X132437142Y-79186547D01*
X132484761Y-79138928D01*
X132532380Y-79043690D01*
X132532380Y-78948452D01*
X132484761Y-78853214D01*
X132437142Y-78805595D01*
X132341904Y-78757976D01*
X132151428Y-78710357D01*
X131913333Y-78710357D01*
X131722857Y-78757976D01*
X131627619Y-78805595D01*
X131580000Y-78853214D01*
X131532380Y-78948452D01*
X155392380Y-78329404D02*
X155392380Y-77757976D01*
X155392380Y-78043690D02*
X154392380Y-78043690D01*
X154535238Y-77948452D01*
X154630476Y-77853214D01*
X154678095Y-77757976D01*
X155392380Y-79281785D02*
X155392380Y-78710357D01*
X155392380Y-78996071D02*
X154392380Y-78996071D01*
X154535238Y-78900833D01*
X154630476Y-78805595D01*
X154678095Y-78710357D01*
X124007619Y-70578214D02*
X123960000Y-70625833D01*
X123912380Y-70721071D01*
X123912380Y-70959166D01*
X123960000Y-71054404D01*
X124007619Y-71102023D01*
X124102857Y-71149642D01*
X124198095Y-71149642D01*
X124340952Y-71102023D01*
X124912380Y-70530595D01*
X124912380Y-71149642D01*
X123912380Y-71768690D02*
X123912380Y-71863928D01*
X123960000Y-71959166D01*
X124007619Y-72006785D01*
X124102857Y-72054404D01*
X124293333Y-72102023D01*
X124531428Y-72102023D01*
X124721904Y-72054404D01*
X124817142Y-72006785D01*
X124864761Y-71959166D01*
X124912380Y-71863928D01*
X124912380Y-71768690D01*
X124864761Y-71673452D01*
X124817142Y-71625833D01*
X124721904Y-71578214D01*
X124531428Y-71530595D01*
X124293333Y-71530595D01*
X124102857Y-71578214D01*
X124007619Y-71625833D01*
X123960000Y-71673452D01*
X123912380Y-71768690D01*
X76652380Y-72102023D02*
X76652380Y-71530595D01*
X76652380Y-71816309D02*
X75652380Y-71816309D01*
X75795238Y-71721071D01*
X75890476Y-71625833D01*
X75938095Y-71530595D01*
X124007619Y-59977976D02*
X123960000Y-60025595D01*
X123912380Y-60120833D01*
X123912380Y-60358928D01*
X123960000Y-60454166D01*
X124007619Y-60501785D01*
X124102857Y-60549404D01*
X124198095Y-60549404D01*
X124340952Y-60501785D01*
X124912380Y-59930357D01*
X124912380Y-60549404D01*
X124912380Y-61501785D02*
X124912380Y-60930357D01*
X124912380Y-61216071D02*
X123912380Y-61216071D01*
X124055238Y-61120833D01*
X124150476Y-61025595D01*
X124198095Y-60930357D01*
X76045714Y-60454166D02*
X76712380Y-60454166D01*
X75664761Y-60216071D02*
X76379047Y-59977976D01*
X76379047Y-60597023D01*
X75712380Y-61168452D02*
X75712380Y-61263690D01*
X75760000Y-61358928D01*
X75807619Y-61406547D01*
X75902857Y-61454166D01*
X76093333Y-61501785D01*
X76331428Y-61501785D01*
X76521904Y-61454166D01*
X76617142Y-61406547D01*
X76664761Y-61358928D01*
X76712380Y-61263690D01*
X76712380Y-61168452D01*
X76664761Y-61073214D01*
X76617142Y-61025595D01*
X76521904Y-60977976D01*
X76331428Y-60930357D01*
X76093333Y-60930357D01*
X75902857Y-60977976D01*
X75807619Y-61025595D01*
X75760000Y-61073214D01*
X75712380Y-61168452D01*
X199265952Y-42403452D02*
X199218333Y-42308214D01*
X199170714Y-42260595D01*
X199075476Y-42212976D01*
X199027857Y-42212976D01*
X198932619Y-42260595D01*
X198885000Y-42308214D01*
X198837380Y-42403452D01*
X198837380Y-42593928D01*
X198885000Y-42689166D01*
X198932619Y-42736785D01*
X199027857Y-42784404D01*
X199075476Y-42784404D01*
X199170714Y-42736785D01*
X199218333Y-42689166D01*
X199265952Y-42593928D01*
X199265952Y-42403452D01*
X199313571Y-42308214D01*
X199361190Y-42260595D01*
X199456428Y-42212976D01*
X199646904Y-42212976D01*
X199742142Y-42260595D01*
X199789761Y-42308214D01*
X199837380Y-42403452D01*
X199837380Y-42593928D01*
X199789761Y-42689166D01*
X199742142Y-42736785D01*
X199646904Y-42784404D01*
X199456428Y-42784404D01*
X199361190Y-42736785D01*
X199313571Y-42689166D01*
X199265952Y-42593928D01*
X184597380Y-46717023D02*
X184597380Y-46145595D01*
X184597380Y-46431309D02*
X183597380Y-46431309D01*
X183740238Y-46336071D01*
X183835476Y-46240833D01*
X183883095Y-46145595D01*
X198837380Y-46097976D02*
X198837380Y-46764642D01*
X199837380Y-46336071D01*
X184597380Y-42784404D02*
X184597380Y-42212976D01*
X184597380Y-42498690D02*
X183597380Y-42498690D01*
X183740238Y-42403452D01*
X183835476Y-42308214D01*
X183883095Y-42212976D01*
X183930714Y-43641547D02*
X184597380Y-43641547D01*
X183549761Y-43403452D02*
X184264047Y-43165357D01*
X184264047Y-43784404D01*
X76647380Y-115174404D02*
X76647380Y-114602976D01*
X76647380Y-114888690D02*
X75647380Y-114888690D01*
X75790238Y-114793452D01*
X75885476Y-114698214D01*
X75933095Y-114602976D01*
X75980714Y-116031547D02*
X76647380Y-116031547D01*
X75599761Y-115793452D02*
X76314047Y-115555357D01*
X76314047Y-116174404D01*
X90887380Y-118487976D02*
X90887380Y-119154642D01*
X91887380Y-118726071D01*
X76647380Y-119107023D02*
X76647380Y-118535595D01*
X76647380Y-118821309D02*
X75647380Y-118821309D01*
X75790238Y-118726071D01*
X75885476Y-118630833D01*
X75933095Y-118535595D01*
X91315952Y-114793452D02*
X91268333Y-114698214D01*
X91220714Y-114650595D01*
X91125476Y-114602976D01*
X91077857Y-114602976D01*
X90982619Y-114650595D01*
X90935000Y-114698214D01*
X90887380Y-114793452D01*
X90887380Y-114983928D01*
X90935000Y-115079166D01*
X90982619Y-115126785D01*
X91077857Y-115174404D01*
X91125476Y-115174404D01*
X91220714Y-115126785D01*
X91268333Y-115079166D01*
X91315952Y-114983928D01*
X91315952Y-114793452D01*
X91363571Y-114698214D01*
X91411190Y-114650595D01*
X91506428Y-114602976D01*
X91696904Y-114602976D01*
X91792142Y-114650595D01*
X91839761Y-114698214D01*
X91887380Y-114793452D01*
X91887380Y-114983928D01*
X91839761Y-115079166D01*
X91792142Y-115126785D01*
X91696904Y-115174404D01*
X91506428Y-115174404D01*
X91411190Y-115126785D01*
X91363571Y-115079166D01*
X91315952Y-114983928D01*
X176405952Y-42403452D02*
X176358333Y-42308214D01*
X176310714Y-42260595D01*
X176215476Y-42212976D01*
X176167857Y-42212976D01*
X176072619Y-42260595D01*
X176025000Y-42308214D01*
X175977380Y-42403452D01*
X175977380Y-42593928D01*
X176025000Y-42689166D01*
X176072619Y-42736785D01*
X176167857Y-42784404D01*
X176215476Y-42784404D01*
X176310714Y-42736785D01*
X176358333Y-42689166D01*
X176405952Y-42593928D01*
X176405952Y-42403452D01*
X176453571Y-42308214D01*
X176501190Y-42260595D01*
X176596428Y-42212976D01*
X176786904Y-42212976D01*
X176882142Y-42260595D01*
X176929761Y-42308214D01*
X176977380Y-42403452D01*
X176977380Y-42593928D01*
X176929761Y-42689166D01*
X176882142Y-42736785D01*
X176786904Y-42784404D01*
X176596428Y-42784404D01*
X176501190Y-42736785D01*
X176453571Y-42689166D01*
X176405952Y-42593928D01*
X161737380Y-46717023D02*
X161737380Y-46145595D01*
X161737380Y-46431309D02*
X160737380Y-46431309D01*
X160880238Y-46336071D01*
X160975476Y-46240833D01*
X161023095Y-46145595D01*
X175977380Y-46097976D02*
X175977380Y-46764642D01*
X176977380Y-46336071D01*
X161737380Y-42784404D02*
X161737380Y-42212976D01*
X161737380Y-42498690D02*
X160737380Y-42498690D01*
X160880238Y-42403452D01*
X160975476Y-42308214D01*
X161023095Y-42212976D01*
X161070714Y-43641547D02*
X161737380Y-43641547D01*
X160689761Y-43403452D02*
X161404047Y-43165357D01*
X161404047Y-43784404D01*
X169079344Y-114207857D02*
X169650772Y-114207857D01*
X169650772Y-113007857D01*
X168679344Y-113579285D02*
X168279344Y-113579285D01*
X168107915Y-114207857D02*
X168679344Y-114207857D01*
X168679344Y-113007857D01*
X168107915Y-113007857D01*
X167593629Y-114207857D02*
X167593629Y-113007857D01*
X167307915Y-113007857D01*
X167136487Y-113065000D01*
X167022201Y-113179285D01*
X166965058Y-113293571D01*
X166907915Y-113522142D01*
X166907915Y-113693571D01*
X166965058Y-113922142D01*
X167022201Y-114036428D01*
X167136487Y-114150714D01*
X167307915Y-114207857D01*
X167593629Y-114207857D01*
X166450772Y-113122142D02*
X166393629Y-113065000D01*
X166279344Y-113007857D01*
X165993629Y-113007857D01*
X165879344Y-113065000D01*
X165822201Y-113122142D01*
X165765058Y-113236428D01*
X165765058Y-113350714D01*
X165822201Y-113522142D01*
X166507915Y-114207857D01*
X165765058Y-114207857D01*
X169268571Y-119415000D02*
X169382857Y-119357857D01*
X169554285Y-119357857D01*
X169725714Y-119415000D01*
X169840000Y-119529285D01*
X169897142Y-119643571D01*
X169954285Y-119872142D01*
X169954285Y-120043571D01*
X169897142Y-120272142D01*
X169840000Y-120386428D01*
X169725714Y-120500714D01*
X169554285Y-120557857D01*
X169440000Y-120557857D01*
X169268571Y-120500714D01*
X169211428Y-120443571D01*
X169211428Y-120043571D01*
X169440000Y-120043571D01*
X168697142Y-120557857D02*
X168697142Y-119757857D01*
X168697142Y-119986428D02*
X168640000Y-119872142D01*
X168582857Y-119815000D01*
X168468571Y-119757857D01*
X168354285Y-119757857D01*
X167497142Y-120500714D02*
X167611428Y-120557857D01*
X167840000Y-120557857D01*
X167954285Y-120500714D01*
X168011428Y-120386428D01*
X168011428Y-119929285D01*
X167954285Y-119815000D01*
X167840000Y-119757857D01*
X167611428Y-119757857D01*
X167497142Y-119815000D01*
X167440000Y-119929285D01*
X167440000Y-120043571D01*
X168011428Y-120157857D01*
X166468571Y-120500714D02*
X166582857Y-120557857D01*
X166811428Y-120557857D01*
X166925714Y-120500714D01*
X166982857Y-120386428D01*
X166982857Y-119929285D01*
X166925714Y-119815000D01*
X166811428Y-119757857D01*
X166582857Y-119757857D01*
X166468571Y-119815000D01*
X166411428Y-119929285D01*
X166411428Y-120043571D01*
X166982857Y-120157857D01*
X165897142Y-119757857D02*
X165897142Y-120557857D01*
X165897142Y-119872142D02*
X165840000Y-119815000D01*
X165725714Y-119757857D01*
X165554285Y-119757857D01*
X165440000Y-119815000D01*
X165382857Y-119929285D01*
X165382857Y-120557857D01*
D10*
X169497142Y-107763571D02*
X169497142Y-108977857D01*
X169425714Y-109120714D01*
X169354285Y-109192142D01*
X169211428Y-109263571D01*
X168925714Y-109263571D01*
X168782857Y-109192142D01*
X168711428Y-109120714D01*
X168640000Y-108977857D01*
X168640000Y-107763571D01*
X167140000Y-109263571D02*
X167997142Y-109263571D01*
X167568571Y-109263571D02*
X167568571Y-107763571D01*
X167711428Y-107977857D01*
X167854285Y-108120714D01*
X167997142Y-108192142D01*
X166640000Y-107763571D02*
X165640000Y-107763571D01*
X166282857Y-109263571D01*
X173532857Y-60281428D02*
X173461428Y-60210000D01*
X173318571Y-60138571D01*
X172961428Y-60138571D01*
X172818571Y-60210000D01*
X172747142Y-60281428D01*
X172675714Y-60424285D01*
X172675714Y-60567142D01*
X172747142Y-60781428D01*
X173604285Y-61638571D01*
X172675714Y-61638571D01*
X171818571Y-60781428D02*
X171961428Y-60710000D01*
X172032857Y-60638571D01*
X172104285Y-60495714D01*
X172104285Y-60424285D01*
X172032857Y-60281428D01*
X171961428Y-60210000D01*
X171818571Y-60138571D01*
X171532857Y-60138571D01*
X171390000Y-60210000D01*
X171318571Y-60281428D01*
X171247142Y-60424285D01*
X171247142Y-60495714D01*
X171318571Y-60638571D01*
X171390000Y-60710000D01*
X171532857Y-60781428D01*
X171818571Y-60781428D01*
X171961428Y-60852857D01*
X172032857Y-60924285D01*
X172104285Y-61067142D01*
X172104285Y-61352857D01*
X172032857Y-61495714D01*
X171961428Y-61567142D01*
X171818571Y-61638571D01*
X171532857Y-61638571D01*
X171390000Y-61567142D01*
X171318571Y-61495714D01*
X171247142Y-61352857D01*
X171247142Y-61067142D01*
X171318571Y-60924285D01*
X171390000Y-60852857D01*
X171532857Y-60781428D01*
X169461428Y-61638571D02*
X169461428Y-60138571D01*
X168890000Y-60138571D01*
X168747142Y-60210000D01*
X168675714Y-60281428D01*
X168604285Y-60424285D01*
X168604285Y-60638571D01*
X168675714Y-60781428D01*
X168747142Y-60852857D01*
X168890000Y-60924285D01*
X169461428Y-60924285D01*
X167961428Y-61638571D02*
X167961428Y-60138571D01*
X167247142Y-61638571D02*
X167247142Y-60138571D01*
X166390000Y-61638571D01*
X166390000Y-60138571D01*
X164675714Y-60138571D02*
X163675714Y-60138571D01*
X164675714Y-61638571D01*
X163675714Y-61638571D01*
X163104285Y-61638571D02*
X163104285Y-60138571D01*
X161890000Y-60852857D02*
X162390000Y-60852857D01*
X162390000Y-61638571D02*
X162390000Y-60138571D01*
X161675714Y-60138571D01*
D11*
X169079344Y-128177857D02*
X169650772Y-128177857D01*
X169650772Y-126977857D01*
X168679344Y-127549285D02*
X168279344Y-127549285D01*
X168107915Y-128177857D02*
X168679344Y-128177857D01*
X168679344Y-126977857D01*
X168107915Y-126977857D01*
X167593629Y-128177857D02*
X167593629Y-126977857D01*
X167307915Y-126977857D01*
X167136487Y-127035000D01*
X167022201Y-127149285D01*
X166965058Y-127263571D01*
X166907915Y-127492142D01*
X166907915Y-127663571D01*
X166965058Y-127892142D01*
X167022201Y-128006428D01*
X167136487Y-128120714D01*
X167307915Y-128177857D01*
X167593629Y-128177857D01*
X165765058Y-128177857D02*
X166450772Y-128177857D01*
X166107915Y-128177857D02*
X166107915Y-126977857D01*
X166222201Y-127149285D01*
X166336487Y-127263571D01*
X166450772Y-127320714D01*
X168325714Y-134527857D02*
X168725714Y-133956428D01*
X169011428Y-134527857D02*
X169011428Y-133327857D01*
X168554285Y-133327857D01*
X168440000Y-133385000D01*
X168382857Y-133442142D01*
X168325714Y-133556428D01*
X168325714Y-133727857D01*
X168382857Y-133842142D01*
X168440000Y-133899285D01*
X168554285Y-133956428D01*
X169011428Y-133956428D01*
X167354285Y-134470714D02*
X167468571Y-134527857D01*
X167697142Y-134527857D01*
X167811428Y-134470714D01*
X167868571Y-134356428D01*
X167868571Y-133899285D01*
X167811428Y-133785000D01*
X167697142Y-133727857D01*
X167468571Y-133727857D01*
X167354285Y-133785000D01*
X167297142Y-133899285D01*
X167297142Y-134013571D01*
X167868571Y-134127857D01*
X166268571Y-134527857D02*
X166268571Y-133327857D01*
X166268571Y-134470714D02*
X166382857Y-134527857D01*
X166611428Y-134527857D01*
X166725714Y-134470714D01*
X166782857Y-134413571D01*
X166840000Y-134299285D01*
X166840000Y-133956428D01*
X166782857Y-133842142D01*
X166725714Y-133785000D01*
X166611428Y-133727857D01*
X166382857Y-133727857D01*
X166268571Y-133785000D01*
D12*
X149145000Y-118755000D02*
X149780000Y-118755000D01*
X140255000Y-118755000D02*
X139620000Y-118755000D01*
X140255000Y-128915000D02*
X139620000Y-128915000D01*
X149780000Y-128280000D02*
X149780000Y-128915000D01*
X139620000Y-118755000D02*
X139620000Y-119390000D01*
X149780000Y-128915000D02*
X149145000Y-128915000D01*
X139620000Y-128915000D02*
X139620000Y-128280000D01*
X149780000Y-118755000D02*
X149780000Y-119390000D01*
X64770000Y-46980000D02*
X64135000Y-46980000D01*
X46990000Y-46980000D02*
X47625000Y-46980000D01*
X64770000Y-47615000D02*
X64770000Y-46980000D01*
X46990000Y-82480000D02*
X46990000Y-81845000D01*
X46990000Y-47615000D02*
X46990000Y-46980000D01*
X64770000Y-82480000D02*
X64135000Y-82480000D01*
X64770000Y-81845000D02*
X64770000Y-82480000D01*
X47625000Y-82480000D02*
X46990000Y-82480000D01*
X182875000Y-64785000D02*
X182875000Y-64150000D01*
X200020000Y-54625000D02*
X200655000Y-54625000D01*
X200655000Y-64785000D02*
X200655000Y-64150000D01*
X182875000Y-55260000D02*
X182875000Y-54625000D01*
X200655000Y-54625000D02*
X200655000Y-55260000D01*
X200020000Y-64785000D02*
X200655000Y-64785000D01*
X182875000Y-54625000D02*
X183510000Y-54625000D01*
X183510000Y-64785000D02*
X182875000Y-64785000D01*
X98425000Y-49530000D02*
X97790000Y-49530000D01*
X123190000Y-39370000D02*
X123190000Y-40005000D01*
X97790000Y-49530000D02*
X97790000Y-48895000D01*
X97790000Y-39370000D02*
X98425000Y-39370000D01*
X123190000Y-49530000D02*
X123190000Y-48895000D01*
X122555000Y-49530000D02*
X123190000Y-49530000D01*
X122555000Y-39370000D02*
X123190000Y-39370000D01*
X97790000Y-40005000D02*
X97790000Y-39370000D01*
X74930000Y-102870000D02*
X74930000Y-102235000D01*
X125730000Y-102870000D02*
X125730000Y-102235000D01*
X125095000Y-85090000D02*
X125730000Y-85090000D01*
X74990000Y-85725000D02*
X74990000Y-85090000D01*
X74990000Y-85090000D02*
X75625000Y-85090000D01*
X125730000Y-85090000D02*
X125730000Y-85725000D01*
X75565000Y-102870000D02*
X74930000Y-102870000D01*
X125095000Y-102870000D02*
X125730000Y-102870000D01*
X74925000Y-49545000D02*
X74925000Y-48910000D01*
X92070000Y-39385000D02*
X92705000Y-39385000D01*
X92705000Y-39385000D02*
X92705000Y-40020000D01*
X92070000Y-49545000D02*
X92705000Y-49545000D01*
X74925000Y-40020000D02*
X74925000Y-39385000D01*
X74925000Y-39385000D02*
X75560000Y-39385000D01*
X92705000Y-49545000D02*
X92705000Y-48910000D01*
X75560000Y-49545000D02*
X74925000Y-49545000D01*
X131445000Y-102870000D02*
X130810000Y-102870000D01*
X130810000Y-92710000D02*
X131445000Y-92710000D01*
X130810000Y-93345000D02*
X130810000Y-92710000D01*
X130810000Y-102870000D02*
X130810000Y-102235000D01*
X64775000Y-92700000D02*
X64140000Y-92700000D01*
X46995000Y-92700000D02*
X47630000Y-92700000D01*
X47630000Y-128200000D02*
X46995000Y-128200000D01*
X64775000Y-93335000D02*
X64775000Y-92700000D01*
X46995000Y-93335000D02*
X46995000Y-92700000D01*
X46995000Y-128200000D02*
X46995000Y-127565000D01*
X64775000Y-128200000D02*
X64140000Y-128200000D01*
X64775000Y-127565000D02*
X64775000Y-128200000D01*
X95250000Y-112410000D02*
X95250000Y-111775000D01*
X95885000Y-121935000D02*
X95250000Y-121935000D01*
X115570000Y-111775000D02*
X115570000Y-112410000D01*
X115570000Y-121935000D02*
X115570000Y-121300000D01*
X114935000Y-111775000D02*
X115570000Y-111775000D01*
X95250000Y-111775000D02*
X95885000Y-111775000D01*
X114935000Y-121935000D02*
X115570000Y-121935000D01*
X95250000Y-121935000D02*
X95250000Y-121300000D01*
X130810000Y-57785000D02*
X130810000Y-57150000D01*
X131445000Y-67310000D02*
X130810000Y-67310000D01*
X130810000Y-67310000D02*
X130810000Y-66675000D01*
X130810000Y-57150000D02*
X131445000Y-57150000D01*
X153675000Y-49545000D02*
X153675000Y-48910000D01*
X128275000Y-49545000D02*
X128275000Y-48910000D01*
X153040000Y-49545000D02*
X153675000Y-49545000D01*
X128275000Y-39385000D02*
X128910000Y-39385000D01*
X153040000Y-39385000D02*
X153675000Y-39385000D01*
X153675000Y-39385000D02*
X153675000Y-40020000D01*
X128910000Y-49545000D02*
X128275000Y-49545000D01*
X128275000Y-40020000D02*
X128275000Y-39385000D01*
X130810000Y-85090000D02*
X130810000Y-84455000D01*
X130810000Y-75565000D02*
X130810000Y-74930000D01*
X130810000Y-74930000D02*
X131445000Y-74930000D01*
X131445000Y-85090000D02*
X130810000Y-85090000D01*
X125730000Y-57150000D02*
X125730000Y-57785000D01*
X74990000Y-57150000D02*
X75625000Y-57150000D01*
X125730000Y-74930000D02*
X125730000Y-74295000D01*
X74990000Y-57785000D02*
X74990000Y-57150000D01*
X125095000Y-57150000D02*
X125730000Y-57150000D01*
X74930000Y-74930000D02*
X74930000Y-74295000D01*
X125095000Y-74930000D02*
X125730000Y-74930000D01*
X75565000Y-74930000D02*
X74930000Y-74930000D01*
X200655000Y-49545000D02*
X200655000Y-48910000D01*
X183510000Y-49545000D02*
X182875000Y-49545000D01*
X200020000Y-39385000D02*
X200655000Y-39385000D01*
X200655000Y-39385000D02*
X200655000Y-40020000D01*
X182875000Y-49545000D02*
X182875000Y-48910000D01*
X182875000Y-39385000D02*
X183510000Y-39385000D01*
X182875000Y-40020000D02*
X182875000Y-39385000D01*
X200020000Y-49545000D02*
X200655000Y-49545000D01*
X92705000Y-121935000D02*
X92705000Y-121300000D01*
X92070000Y-111775000D02*
X92705000Y-111775000D01*
X74925000Y-121935000D02*
X74925000Y-121300000D01*
X92070000Y-121935000D02*
X92705000Y-121935000D01*
X74925000Y-111775000D02*
X75560000Y-111775000D01*
X74925000Y-112410000D02*
X74925000Y-111775000D01*
X92705000Y-111775000D02*
X92705000Y-112410000D01*
X75560000Y-121935000D02*
X74925000Y-121935000D01*
X160650000Y-49545000D02*
X160015000Y-49545000D01*
X160015000Y-40020000D02*
X160015000Y-39385000D01*
X177160000Y-39385000D02*
X177795000Y-39385000D01*
X177795000Y-39385000D02*
X177795000Y-40020000D01*
X177160000Y-49545000D02*
X177795000Y-49545000D01*
X160015000Y-49545000D02*
X160015000Y-48910000D01*
X160015000Y-39385000D02*
X160650000Y-39385000D01*
X177795000Y-49545000D02*
X177795000Y-48910000D01*
X166080000Y-115760000D02*
X166080000Y-115604000D01*
X166080000Y-118076000D02*
X166080000Y-117920000D01*
X169312335Y-115761392D02*
G75*
G03*
X166080000Y-115604484I-1672335J-1078608D01*
G01*
X166080000Y-118075516D02*
G75*
G03*
X169312335Y-117918608I1560000J1235516D01*
G01*
X168681130Y-115760163D02*
G75*
G03*
X166599039Y-115760000I-1041130J-1079837D01*
G01*
X166599039Y-117920000D02*
G75*
G03*
X168681130Y-117919837I1040961J1080000D01*
G01*
X156090000Y-102960000D02*
X156090000Y-59120000D01*
X156090000Y-109720000D02*
X156090000Y-107860000D01*
X179190000Y-109720000D02*
X156090000Y-109720000D01*
X156090000Y-59120000D02*
X179190000Y-59120000D01*
X179190000Y-59120000D02*
X179190000Y-109720000D01*
X158370000Y-109720000D02*
X158370000Y-107460000D01*
X159370000Y-105410000D02*
G75*
G03*
X159370000Y-105410000I-2550000J0D01*
G01*
X157720000Y-105410000D02*
G75*
G03*
X157720000Y-105410000I-900000J0D01*
G01*
X166080000Y-129730000D02*
X166080000Y-129574000D01*
X166080000Y-132046000D02*
X166080000Y-131890000D01*
X166599039Y-131890000D02*
G75*
G03*
X168681130Y-131889837I1040961J1080000D01*
G01*
X166080000Y-132045516D02*
G75*
G03*
X169312335Y-131888608I1560000J1235516D01*
G01*
X168681130Y-129730163D02*
G75*
G03*
X166599039Y-129730000I-1041130J-1079837D01*
G01*
X169312335Y-129731392D02*
G75*
G03*
X166080000Y-129574484I-1672335J-1078608D01*
G01*
%LPC*%
D13*
X128237500Y-29257500D03*
D14*
X120617500Y-29257500D03*
X115537500Y-29257500D03*
X110457500Y-29257500D03*
X110457500Y-36877500D03*
X115537500Y-36877500D03*
X120617500Y-36877500D03*
X128237500Y-36877500D03*
D15*
X198120000Y-68570000D03*
X198120000Y-71110000D03*
X198120000Y-73650000D03*
D16*
X185420000Y-85725000D03*
D17*
X185420000Y-80725000D03*
D18*
X148510000Y-120025000D03*
D19*
X145970000Y-120025000D03*
X143430000Y-120025000D03*
X140890000Y-120025000D03*
X140890000Y-127645000D03*
X143430000Y-127645000D03*
X145970000Y-127645000D03*
X148510000Y-127645000D03*
D17*
X194945000Y-91440000D03*
D19*
X194945000Y-102870000D03*
D13*
X153637500Y-29257500D03*
D14*
X146017500Y-29257500D03*
X140937500Y-29257500D03*
X135857500Y-29257500D03*
X135857500Y-36877500D03*
X140937500Y-36877500D03*
X146017500Y-36877500D03*
X153637500Y-36877500D03*
D17*
X192405000Y-91440000D03*
D19*
X192405000Y-102870000D03*
D20*
X63500000Y-81270000D03*
D19*
X63500000Y-78730000D03*
X63500000Y-76190000D03*
X63500000Y-73650000D03*
X63500000Y-71110000D03*
X63500000Y-68570000D03*
X63500000Y-66030000D03*
X63500000Y-63490000D03*
X63500000Y-60950000D03*
X63500000Y-58410000D03*
X63500000Y-55870000D03*
X63500000Y-53330000D03*
X63500000Y-50790000D03*
X63500000Y-48250000D03*
X48260000Y-48250000D03*
X48260000Y-50790000D03*
X48260000Y-53330000D03*
X48260000Y-55870000D03*
X48260000Y-58410000D03*
X48260000Y-60950000D03*
X48260000Y-63490000D03*
X48260000Y-66030000D03*
X48260000Y-68570000D03*
X48260000Y-71110000D03*
X48260000Y-73650000D03*
X48260000Y-76190000D03*
X48260000Y-78730000D03*
X48260000Y-81270000D03*
D17*
X158750000Y-54864000D03*
D19*
X146050000Y-54864000D03*
D17*
X52665000Y-135890000D03*
D19*
X62825000Y-135890000D03*
D21*
X44890000Y-141080000D03*
D17*
X181610000Y-77470000D03*
D19*
X181610000Y-88900000D03*
D17*
X50085000Y-130810000D03*
X45085000Y-130810000D03*
X172125000Y-116840000D03*
X177125000Y-116840000D03*
X172125000Y-119380000D03*
X177125000Y-119380000D03*
D22*
X140890000Y-113665000D03*
D23*
X151050000Y-113665000D03*
D24*
X121920000Y-131080000D03*
D25*
X126920000Y-134180000D03*
D26*
X121920000Y-137280000D03*
D21*
X200220000Y-25290000D03*
D27*
X185420000Y-92710000D03*
D28*
X182880000Y-95250000D03*
X185420000Y-97790000D03*
D29*
X175260000Y-111323000D03*
D30*
X172720000Y-111323000D03*
X170180000Y-111323000D03*
D16*
X184145000Y-63515000D03*
D19*
X186685000Y-63515000D03*
X189225000Y-63515000D03*
X191765000Y-63515000D03*
X194305000Y-63515000D03*
X196845000Y-63515000D03*
X199385000Y-63515000D03*
X199385000Y-55895000D03*
X196845000Y-55895000D03*
X194305000Y-55895000D03*
X191765000Y-55895000D03*
X189225000Y-55895000D03*
X186685000Y-55895000D03*
X184145000Y-55895000D03*
D17*
X62825000Y-139700000D03*
X57825000Y-139700000D03*
D31*
X181610000Y-35560000D03*
D32*
X184150000Y-33020000D03*
X181610000Y-30480000D03*
D33*
X69850000Y-135890000D03*
D34*
X69850000Y-133350000D03*
X72390000Y-135890000D03*
X72390000Y-133350000D03*
X74930000Y-135890000D03*
X74930000Y-133350000D03*
X77470000Y-135890000D03*
X77470000Y-133350000D03*
X80010000Y-135890000D03*
X80010000Y-133350000D03*
X82550000Y-135890000D03*
X82550000Y-133350000D03*
X85090000Y-135890000D03*
X85090000Y-133350000D03*
X87630000Y-135890000D03*
X87630000Y-133350000D03*
X90170000Y-135890000D03*
X90170000Y-133350000D03*
X92710000Y-135890000D03*
X92710000Y-133350000D03*
X95250000Y-135890000D03*
X95250000Y-133350000D03*
X97790000Y-135890000D03*
X97790000Y-133350000D03*
X100330000Y-135890000D03*
X100330000Y-133350000D03*
X102870000Y-135890000D03*
X102870000Y-133350000D03*
X105410000Y-135890000D03*
X105410000Y-133350000D03*
X107950000Y-135890000D03*
X107950000Y-133350000D03*
X110490000Y-135890000D03*
X110490000Y-133350000D03*
D17*
X52665000Y-133350000D03*
D19*
X62825000Y-133350000D03*
D17*
X187960000Y-35560000D03*
D19*
X199390000Y-35560000D03*
D35*
X172085000Y-125730000D03*
D17*
X177085000Y-125730000D03*
D15*
X185420000Y-68570000D03*
X185420000Y-71110000D03*
X185420000Y-73650000D03*
D17*
X193675000Y-129580000D03*
X193675000Y-134580000D03*
X192405000Y-77470000D03*
D19*
X192405000Y-88900000D03*
D16*
X99060000Y-48260000D03*
D19*
X101600000Y-48260000D03*
X104140000Y-48260000D03*
X106680000Y-48260000D03*
X109220000Y-48260000D03*
X111760000Y-48260000D03*
X114300000Y-48260000D03*
X116840000Y-48260000D03*
X119380000Y-48260000D03*
X121920000Y-48260000D03*
X121920000Y-40640000D03*
X119380000Y-40640000D03*
X116840000Y-40640000D03*
X114300000Y-40640000D03*
X111760000Y-40640000D03*
X109220000Y-40640000D03*
X106680000Y-40640000D03*
X104140000Y-40640000D03*
X101600000Y-40640000D03*
X99060000Y-40640000D03*
D17*
X151050000Y-135890000D03*
D19*
X140890000Y-135890000D03*
D17*
X133350000Y-118745000D03*
D19*
X133350000Y-128905000D03*
D16*
X76200000Y-101600000D03*
D19*
X78740000Y-101600000D03*
X81280000Y-101600000D03*
X83820000Y-101600000D03*
X86360000Y-101600000D03*
X88900000Y-101600000D03*
X91440000Y-101600000D03*
X93980000Y-101600000D03*
X96520000Y-101600000D03*
X99060000Y-101600000D03*
X101600000Y-101600000D03*
X104140000Y-101600000D03*
X106680000Y-101600000D03*
X109220000Y-101600000D03*
X111760000Y-101600000D03*
X114300000Y-101600000D03*
X116840000Y-101600000D03*
X119380000Y-101600000D03*
X121920000Y-101600000D03*
X124460000Y-101600000D03*
X124460000Y-86360000D03*
X121920000Y-86360000D03*
X119380000Y-86360000D03*
X116840000Y-86360000D03*
X114300000Y-86360000D03*
X111760000Y-86360000D03*
X109220000Y-86360000D03*
X106680000Y-86360000D03*
X104140000Y-86360000D03*
X101600000Y-86360000D03*
X99060000Y-86360000D03*
X96520000Y-86360000D03*
X93980000Y-86360000D03*
X91440000Y-86360000D03*
X88900000Y-86360000D03*
X86360000Y-86360000D03*
X83820000Y-86360000D03*
X81280000Y-86360000D03*
X78740000Y-86360000D03*
X76200000Y-86360000D03*
D16*
X76195000Y-48275000D03*
D19*
X78735000Y-48275000D03*
X81275000Y-48275000D03*
X83815000Y-48275000D03*
X86355000Y-48275000D03*
X88895000Y-48275000D03*
X91435000Y-48275000D03*
X91435000Y-40655000D03*
X88895000Y-40655000D03*
X86355000Y-40655000D03*
X83815000Y-40655000D03*
X81275000Y-40655000D03*
X78735000Y-40655000D03*
X76195000Y-40655000D03*
D17*
X193675000Y-111760000D03*
X188675000Y-111760000D03*
D36*
X176530000Y-30480000D03*
D32*
X173990000Y-33020000D03*
X176530000Y-35560000D03*
D17*
X189865000Y-88900000D03*
D19*
X189865000Y-77470000D03*
D17*
X144780000Y-105410000D03*
D19*
X134620000Y-105410000D03*
D16*
X132080000Y-101600000D03*
D19*
X134620000Y-101600000D03*
X137160000Y-101600000D03*
X139700000Y-101600000D03*
X142240000Y-101600000D03*
X144780000Y-101600000D03*
X147320000Y-101600000D03*
X149860000Y-101600000D03*
X152400000Y-101600000D03*
X154940000Y-101600000D03*
X154940000Y-93980000D03*
X152400000Y-93980000D03*
X149860000Y-93980000D03*
X147320000Y-93980000D03*
X144780000Y-93980000D03*
X142240000Y-93980000D03*
X139700000Y-93980000D03*
X137160000Y-93980000D03*
X134620000Y-93980000D03*
X132080000Y-93980000D03*
D16*
X191135000Y-125730000D03*
D17*
X191135000Y-123230000D03*
D20*
X63505000Y-126990000D03*
D19*
X63505000Y-124450000D03*
X63505000Y-121910000D03*
X63505000Y-119370000D03*
X63505000Y-116830000D03*
X63505000Y-114290000D03*
X63505000Y-111750000D03*
X63505000Y-109210000D03*
X63505000Y-106670000D03*
X63505000Y-104130000D03*
X63505000Y-101590000D03*
X63505000Y-99050000D03*
X63505000Y-96510000D03*
X63505000Y-93970000D03*
X48265000Y-93970000D03*
X48265000Y-96510000D03*
X48265000Y-99050000D03*
X48265000Y-101590000D03*
X48265000Y-104130000D03*
X48265000Y-106670000D03*
X48265000Y-109210000D03*
X48265000Y-111750000D03*
X48265000Y-114290000D03*
X48265000Y-116830000D03*
X48265000Y-119370000D03*
X48265000Y-121910000D03*
X48265000Y-124450000D03*
X48265000Y-126990000D03*
D13*
X88900000Y-29210000D03*
D14*
X81280000Y-29210000D03*
X76200000Y-29210000D03*
X71120000Y-29210000D03*
X71120000Y-36830000D03*
X76200000Y-36830000D03*
X81280000Y-36830000D03*
X88900000Y-36830000D03*
D21*
X200220000Y-141080000D03*
D27*
X199390000Y-106680000D03*
D28*
X196850000Y-109220000D03*
X199390000Y-111760000D03*
D16*
X96520000Y-120665000D03*
D19*
X99060000Y-120665000D03*
X101600000Y-120665000D03*
X104140000Y-120665000D03*
X106680000Y-120665000D03*
X109220000Y-120665000D03*
X111760000Y-120665000D03*
X114300000Y-120665000D03*
X114300000Y-113045000D03*
X111760000Y-113045000D03*
X109220000Y-113045000D03*
X106680000Y-113045000D03*
X104140000Y-113045000D03*
X101600000Y-113045000D03*
X99060000Y-113045000D03*
X96520000Y-113045000D03*
D21*
X44890000Y-25290000D03*
D17*
X187960000Y-30480000D03*
D19*
X199390000Y-30480000D03*
D17*
X200025000Y-77470000D03*
D19*
X200025000Y-88900000D03*
D16*
X132080000Y-66040000D03*
D19*
X134620000Y-66040000D03*
X137160000Y-66040000D03*
X139700000Y-66040000D03*
X142240000Y-66040000D03*
X144780000Y-66040000D03*
X147320000Y-66040000D03*
X149860000Y-66040000D03*
X152400000Y-66040000D03*
X154940000Y-66040000D03*
X154940000Y-58420000D03*
X152400000Y-58420000D03*
X149860000Y-58420000D03*
X147320000Y-58420000D03*
X144780000Y-58420000D03*
X142240000Y-58420000D03*
X139700000Y-58420000D03*
X137160000Y-58420000D03*
X134620000Y-58420000D03*
X132080000Y-58420000D03*
D16*
X197485000Y-88900000D03*
D19*
X197485000Y-77470000D03*
D17*
X123952000Y-127635000D03*
D19*
X123952000Y-114935000D03*
D17*
X140890000Y-132715000D03*
D19*
X151050000Y-132715000D03*
D16*
X129545000Y-48275000D03*
D19*
X132085000Y-48275000D03*
X134625000Y-48275000D03*
X137165000Y-48275000D03*
X139705000Y-48275000D03*
X142245000Y-48275000D03*
X144785000Y-48275000D03*
X147325000Y-48275000D03*
X149865000Y-48275000D03*
X152405000Y-48275000D03*
X152405000Y-40655000D03*
X149865000Y-40655000D03*
X147325000Y-40655000D03*
X144785000Y-40655000D03*
X142245000Y-40655000D03*
X139705000Y-40655000D03*
X137165000Y-40655000D03*
X134625000Y-40655000D03*
X132085000Y-40655000D03*
X129545000Y-40655000D03*
D16*
X132080000Y-83820000D03*
D19*
X134620000Y-83820000D03*
X137160000Y-83820000D03*
X139700000Y-83820000D03*
X142240000Y-83820000D03*
X144780000Y-83820000D03*
X147320000Y-83820000D03*
X149860000Y-83820000D03*
X152400000Y-83820000D03*
X154940000Y-83820000D03*
X154940000Y-76200000D03*
X152400000Y-76200000D03*
X149860000Y-76200000D03*
X147320000Y-76200000D03*
X144780000Y-76200000D03*
X142240000Y-76200000D03*
X139700000Y-76200000D03*
X137160000Y-76200000D03*
X134620000Y-76200000D03*
X132080000Y-76200000D03*
D17*
X145890000Y-116840000D03*
X140890000Y-116840000D03*
D35*
X187960000Y-33020000D03*
D19*
X199390000Y-33020000D03*
D16*
X76200000Y-73660000D03*
D19*
X78740000Y-73660000D03*
X81280000Y-73660000D03*
X83820000Y-73660000D03*
X86360000Y-73660000D03*
X88900000Y-73660000D03*
X91440000Y-73660000D03*
X93980000Y-73660000D03*
X96520000Y-73660000D03*
X99060000Y-73660000D03*
X101600000Y-73660000D03*
X104140000Y-73660000D03*
X106680000Y-73660000D03*
X109220000Y-73660000D03*
X111760000Y-73660000D03*
X114300000Y-73660000D03*
X116840000Y-73660000D03*
X119380000Y-73660000D03*
X121920000Y-73660000D03*
X124460000Y-73660000D03*
X124460000Y-58420000D03*
X121920000Y-58420000D03*
X119380000Y-58420000D03*
X116840000Y-58420000D03*
X114300000Y-58420000D03*
X111760000Y-58420000D03*
X109220000Y-58420000D03*
X106680000Y-58420000D03*
X104140000Y-58420000D03*
X101600000Y-58420000D03*
X99060000Y-58420000D03*
X96520000Y-58420000D03*
X93980000Y-58420000D03*
X91440000Y-58420000D03*
X88900000Y-58420000D03*
X86360000Y-58420000D03*
X83820000Y-58420000D03*
X81280000Y-58420000D03*
X78740000Y-58420000D03*
X76200000Y-58420000D03*
D16*
X200025000Y-102870000D03*
D19*
X200025000Y-91440000D03*
D17*
X175220000Y-140335000D03*
X170220000Y-140335000D03*
X194945000Y-77470000D03*
D19*
X194945000Y-88900000D03*
D17*
X52665000Y-130810000D03*
D19*
X62825000Y-130810000D03*
D17*
X180975000Y-128905000D03*
D19*
X180975000Y-118745000D03*
D17*
X147320000Y-105410000D03*
X152320000Y-105410000D03*
X72390000Y-55920000D03*
X72390000Y-60920000D03*
X184150000Y-128905000D03*
D19*
X184150000Y-118745000D03*
D17*
X158810000Y-30480000D03*
D19*
X170240000Y-30480000D03*
D16*
X197485000Y-102870000D03*
D19*
X197485000Y-91440000D03*
D20*
X105320000Y-35560000D03*
D19*
X93890000Y-35560000D03*
D17*
X128905000Y-128905000D03*
D19*
X128905000Y-118745000D03*
D20*
X170180000Y-35560000D03*
D19*
X158750000Y-35560000D03*
D37*
X199390000Y-124460000D03*
D38*
X199390000Y-127000000D03*
X199390000Y-129540000D03*
D16*
X184145000Y-48275000D03*
D19*
X186685000Y-48275000D03*
X189225000Y-48275000D03*
X191765000Y-48275000D03*
X194305000Y-48275000D03*
X196845000Y-48275000D03*
X199385000Y-48275000D03*
X199385000Y-40655000D03*
X196845000Y-40655000D03*
X194305000Y-40655000D03*
X191765000Y-40655000D03*
X189225000Y-40655000D03*
X186685000Y-40655000D03*
X184145000Y-40655000D03*
D16*
X76195000Y-120665000D03*
D19*
X78735000Y-120665000D03*
X81275000Y-120665000D03*
X83815000Y-120665000D03*
X86355000Y-120665000D03*
X88895000Y-120665000D03*
X91435000Y-120665000D03*
X91435000Y-113045000D03*
X88895000Y-113045000D03*
X86355000Y-113045000D03*
X83815000Y-113045000D03*
X81275000Y-113045000D03*
X78735000Y-113045000D03*
X76195000Y-113045000D03*
D15*
X191770000Y-68570000D03*
X191770000Y-71110000D03*
X191770000Y-73650000D03*
D17*
X158750000Y-33020000D03*
D19*
X170180000Y-33020000D03*
D35*
X93390000Y-30480000D03*
D19*
X104820000Y-30480000D03*
D16*
X134540000Y-114935000D03*
D17*
X134540000Y-109935000D03*
X137795000Y-126325000D03*
X137795000Y-121325000D03*
D39*
X185420000Y-137795000D03*
X160020000Y-137795000D03*
D18*
X134540000Y-132715000D03*
D17*
X134540000Y-137715000D03*
D16*
X161285000Y-48275000D03*
D19*
X163825000Y-48275000D03*
X166365000Y-48275000D03*
X168905000Y-48275000D03*
X171445000Y-48275000D03*
X173985000Y-48275000D03*
X176525000Y-48275000D03*
X176525000Y-40655000D03*
X173985000Y-40655000D03*
X171445000Y-40655000D03*
X168905000Y-40655000D03*
X166365000Y-40655000D03*
X163825000Y-40655000D03*
X161285000Y-40655000D03*
D17*
X192405000Y-105410000D03*
D19*
X182245000Y-105410000D03*
D40*
X156985000Y-126055000D03*
X156635000Y-122555000D03*
X159385000Y-127555000D03*
X159385000Y-117555000D03*
X162135000Y-122555000D03*
X161785000Y-119055000D03*
D29*
X175260000Y-133675000D03*
D30*
X172720000Y-133675000D03*
X170180000Y-133675000D03*
D16*
X191135000Y-119340000D03*
D17*
X191135000Y-114340000D03*
D41*
X166370000Y-116840000D03*
D42*
X168910000Y-116840000D03*
D43*
X160020000Y-99060000D03*
D44*
X160020000Y-96520000D03*
X160020000Y-93980000D03*
X160020000Y-91440000D03*
X160020000Y-88900000D03*
X160020000Y-86360000D03*
X160020000Y-83820000D03*
X160020000Y-81280000D03*
X160020000Y-78740000D03*
X160020000Y-76200000D03*
X160020000Y-73660000D03*
X160020000Y-71120000D03*
X160020000Y-68580000D03*
X160020000Y-66040000D03*
X175260000Y-66040000D03*
X175260000Y-68580000D03*
X175260000Y-71120000D03*
X175260000Y-73660000D03*
X175260000Y-76200000D03*
X175260000Y-78740000D03*
X175260000Y-81280000D03*
X175260000Y-83820000D03*
X175260000Y-86360000D03*
X175260000Y-88900000D03*
X175260000Y-91440000D03*
X175260000Y-93980000D03*
X175260000Y-96520000D03*
X175260000Y-99060000D03*
D41*
X166370000Y-130810000D03*
D42*
X168910000Y-130810000D03*
M02*
